<svg width="218" height="54" viewBox="0 0 218 54" fill="none" xmlns="http://www.w3.org/2000/svg">
<path d="M42.1714 19.0794C41.9583 18.8664 41.5627 18.5773 40.9845 18.2121C40.4367 17.8469 39.7519 17.4969 38.9302 17.1621C38.139 16.8274 37.2716 16.5383 36.3282 16.2948C35.3848 16.0209 34.4261 15.8839 33.4522 15.8839C31.748 15.8839 30.4546 16.2035 29.572 16.8426C28.7199 17.4817 28.2938 18.3795 28.2938 19.5359C28.2938 20.4185 28.5677 21.1185 29.1155 21.6358C29.6633 22.1532 30.485 22.5945 31.5806 22.9597C32.6762 23.3249 34.0457 23.7205 35.6891 24.1466C37.8194 24.6639 39.6606 25.303 41.2127 26.0639C42.7953 26.7943 43.9974 27.7681 44.8191 28.9855C45.6712 30.1724 46.0973 31.7549 46.0973 33.7331C46.0973 35.4678 45.7777 36.959 45.1386 38.2068C44.4995 39.4241 43.617 40.4132 42.4909 41.174C41.3649 41.9348 40.0867 42.4979 38.6563 42.8631C37.226 43.1978 35.7043 43.3652 34.0913 43.3652C32.4784 43.3652 30.8654 43.1978 29.2524 42.8631C27.6395 42.5283 26.0874 42.0566 24.5962 41.4479C23.1049 40.8088 21.7354 40.048 20.4877 39.1654L23.2723 33.7331C23.5462 34.007 24.0331 34.3722 24.7331 34.8287C25.4331 35.2547 26.2852 35.696 27.2895 36.1525C28.2938 36.5786 29.3894 36.9438 30.5763 37.2481C31.7632 37.5524 32.9653 37.7046 34.1826 37.7046C35.8869 37.7046 37.1803 37.4155 38.0629 36.8373C38.9454 36.259 39.3867 35.4373 39.3867 34.3722C39.3867 33.3983 39.0367 32.6375 38.3368 32.0897C37.6368 31.5419 36.6629 31.0702 35.4152 30.6745C34.1674 30.2485 32.6914 29.792 30.9871 29.305C28.9481 28.7268 27.2438 28.0877 25.8743 27.3877C24.5049 26.6573 23.4853 25.7443 22.8158 24.6487C22.1463 23.5531 21.8115 22.1836 21.8115 20.5402C21.8115 18.3186 22.3289 16.4622 23.3636 14.9709C24.4288 13.4493 25.8591 12.308 27.6547 11.5472C29.4503 10.7559 31.4436 10.3603 33.6348 10.3603C35.1565 10.3603 36.5869 10.5277 37.9259 10.8625C39.2954 11.1972 40.5736 11.6385 41.7605 12.1863C42.9474 12.7341 44.0126 13.3276 44.956 13.9666L42.1714 19.0794ZM61.2373 10.6799H67.0805L70.7782 21.4076L74.5215 10.6799H80.319L74.7497 25.4248L78.8582 35.7417L88.0339 10.5886H94.8813L81.9168 43H76.4844L70.7782 29.3963L65.1176 43H59.6852L46.7663 10.5886H53.5225L62.7438 35.7417L66.761 25.4248L61.2373 10.6799ZM120.302 10.5886L129.067 35.5134L137.741 10.5886H144.36L132.08 43H126.009L113.683 10.5886H120.302ZM170.325 37.4764V43H147.819V10.5886H169.914V16.1122H154.119V23.9183H167.768V29.0311H154.119V37.4764H170.325ZM175.236 43V10.5886H181.536V37.4764H198.061V43H175.236Z" fill="#111439"/>
<path d="M110.743 42.0347L103.659 43.9983L96 42.0347L101.088 20.0886L98.6806 10.7326L103.659 9L110.743 10.7326L107.201 25.8639L110.743 42.0347Z" fill="#111439"/>
<path d="M96 42.0347L103.659 40.9951M96 42.0347L103.659 43.9983L110.743 42.0347M96 42.0347L101.088 20.0886M103.659 40.9951L110.743 42.0347M103.659 40.9951L107.201 25.8639M110.743 42.0347L107.201 25.8639M103.659 9L110.743 10.7326L107.201 25.8639M103.659 9L101.088 20.0886M103.659 9L98.6806 10.7326L101.088 20.0886" stroke="white" stroke-width="1.21733"/>
</svg>
