<svg width="1440" height="975" viewBox="0 0 1440 975" fill="none" xmlns="http://www.w3.org/2000/svg">
<rect y="13" width="1458" height="983" fill="#111439"/>
<path fill-rule="evenodd" clip-rule="evenodd" d="M1233.93 63.4423C1316.94 54.839 1346.19 173.872 1402.21 235.734C1453.15 291.982 1529.2 329.284 1542.34 404.021C1557.32 489.214 1542.68 591.509 1474.01 644.11C1407.96 694.709 1316.89 646.668 1233.93 640.273C1162.07 634.734 1085.75 653.134 1028.2 609.744C963.97 561.309 904.712 482.882 920.613 404.021C935.91 328.156 1044.85 324.297 1097.24 267.34C1154.83 204.739 1149.32 72.2109 1233.93 63.4423Z" fill="#20234F"/>
<path fill-rule="evenodd" clip-rule="evenodd" d="M985.793 438.617C1073.33 444.078 1145 502.488 1203.36 567.967C1257.78 629.036 1311.12 705.339 1294.97 785.531C1279.98 859.952 1187.49 880.099 1130.42 930.162C1080.35 974.087 1050.81 1042.31 985.793 1056.76C907.477 1074.18 816.163 1068.6 758.471 1012.85C700.287 956.626 708.39 866.378 705.115 785.531C701.625 699.363 685.035 606.06 739.278 539.016C797.293 467.31 893.736 432.874 985.793 438.617Z" fill="#20234F"/>
<path fill-rule="evenodd" clip-rule="evenodd" d="M233.099 561.617C131.208 551.142 41.5843 496.33 -21.7173 431.712C-85.9235 366.171 -124.724 287.075 -109.329 212.071C-94.1947 138.34 -33.9629 71.2007 57.5537 45.5193C138.888 22.6953 226.093 77.5243 315.768 92.7797C406.95 108.292 519.608 77.5478 579.401 134.296C639.38 191.221 586.769 265.796 567.139 331.35C550.011 388.551 531.01 444.205 475.047 482.783C408.614 528.577 328.492 571.424 233.099 561.617Z" fill="#20234F"/>
<path fill-rule="evenodd" clip-rule="evenodd" d="M87.0246 755.724C162.088 719.247 230.291 821.096 304.09 860.067C371.193 895.502 455.413 904.544 493.322 970.28C536.535 1045.21 557.77 1146.34 511.234 1219.26C466.47 1289.4 364.457 1275.4 284.312 1297.77C214.896 1317.14 149.467 1360.53 80.5547 1339.44C3.62921 1315.9 -78.8787 1262.47 -90.9083 1182.92C-102.481 1106.4 -1.43322 1065.52 28.3235 994.073C61.0288 915.551 10.5181 792.901 87.0246 755.724Z" fill="#20234F"/>
</svg>
