<svg width="43" height="41" viewBox="0 0 43 41" fill="none" xmlns="http://www.w3.org/2000/svg">
<path d="M37.1616 35.875V11.5312L25.3491 0H10.9116C9.51923 0 8.18388 0.539954 7.19931 1.50108C6.21474 2.4622 5.66162 3.76577 5.66162 5.125V35.875C5.66162 37.2342 6.21474 38.5378 7.19931 39.4989C8.18388 40.46 9.51923 41 10.9116 41H31.9116C33.304 41 34.6394 40.46 35.6239 39.4989C36.6085 38.5378 37.1616 37.2342 37.1616 35.875ZM25.3491 7.6875C25.3491 8.70693 25.764 9.6846 26.5024 10.4054C27.2408 11.1263 28.2423 11.5312 29.2866 11.5312H34.5366V35.875C34.5366 36.5546 34.2601 37.2064 33.7678 37.687C33.2755 38.1675 32.6078 38.4375 31.9116 38.4375H10.9116C10.2154 38.4375 9.54775 38.1675 9.05547 37.687C8.56318 37.2064 8.28662 36.5546 8.28662 35.875V5.125C8.28662 4.44538 8.56318 3.7936 9.05547 3.31304C9.54775 2.83248 10.2154 2.5625 10.9116 2.5625H25.3491V7.6875Z" fill="#111439"/>
<path d="M12.4946 36.0979C11.9829 35.8981 11.5707 35.5123 11.3448 35.0216C10.8329 34.0274 11.0036 33.0331 11.5548 32.1977C12.0746 31.4111 12.9356 30.7422 13.9094 30.1811C15.143 29.4981 16.447 28.9441 17.7997 28.5282C18.8502 26.6848 19.7813 24.7788 20.5874 22.8216C20.1054 21.7524 19.7275 20.6414 19.4587 19.5031C19.2329 18.4781 19.1463 17.4634 19.3379 16.5921C19.5348 15.685 20.0572 14.8701 21.0442 14.4832C21.5482 14.2859 22.0942 14.1757 22.6244 14.2859C22.8912 14.3413 23.1419 14.454 23.3585 14.6158C23.5751 14.7775 23.752 14.9843 23.8766 15.2212C24.1076 15.6414 24.1916 16.1334 24.2099 16.5998C24.2283 17.0816 24.1784 17.6146 24.0866 18.1732C23.8661 19.4801 23.3778 21.0791 22.7216 22.7703C23.4458 24.2822 24.3067 25.7281 25.2941 27.0907C26.4625 27.0006 27.6376 27.0436 28.7958 27.2188C29.7513 27.3879 30.7226 27.7185 31.3158 28.4104C31.6308 28.7794 31.8224 29.2304 31.8408 29.7377C31.8592 30.2297 31.7174 30.7166 31.4786 31.1804C31.2716 31.6102 30.9508 31.9783 30.5493 32.2464C30.1524 32.4992 29.6838 32.6229 29.2106 32.6001C28.3417 32.5642 27.4938 32.0978 26.7614 31.5315C25.8709 30.8127 25.0684 29.9958 24.3701 29.0971C22.5949 29.2938 20.8408 29.6419 19.1279 30.1375C18.3435 31.4955 17.4481 32.7895 16.4504 34.0069C15.6839 34.9037 14.8518 35.6879 14.0171 36.0236C13.5374 36.2354 12.9934 36.2619 12.4946 36.0979ZM16.1144 31.2266C15.6787 31.4213 15.2744 31.6263 14.9096 31.8364C14.0486 32.3336 13.4894 32.8179 13.2112 33.2381C12.9644 33.6097 12.9592 33.8787 13.1062 34.1632C13.1324 34.2196 13.1587 34.2554 13.1744 34.2759C13.2058 34.2678 13.2365 34.2575 13.2663 34.2452C13.6259 34.1017 14.1982 33.643 14.9332 32.7794C15.3512 32.2798 15.7454 31.7616 16.1144 31.2266ZM20.4194 27.8184C21.296 27.6187 22.1805 27.4537 23.0707 27.3239C22.5927 26.6098 22.1461 25.8763 21.7319 25.1252C21.3202 26.0339 20.8825 26.9311 20.4194 27.8159V27.8184ZM26.8402 28.9716C27.2339 29.3892 27.6172 29.7403 27.9821 30.0222C28.6121 30.5091 29.0504 30.6705 29.2893 30.6782C29.3533 30.6863 29.4182 30.6728 29.4731 30.6397C29.5823 30.5556 29.6673 30.4452 29.7198 30.3194C29.8131 30.1633 29.8663 29.9875 29.8747 29.8069C29.8732 29.7467 29.8489 29.6892 29.8064 29.6455C29.6699 29.4866 29.2814 29.256 28.4467 29.1099C27.9157 29.0232 27.3785 28.9778 26.8402 28.9741V28.9716ZM21.6164 19.9874C21.8374 19.2918 22.0127 18.5831 22.1414 17.8657C22.2228 17.3839 22.2543 16.9867 22.2412 16.6741C22.2419 16.5016 22.2135 16.3302 22.1572 16.1667C22.0259 16.1826 21.8976 16.2171 21.7766 16.2692C21.5482 16.3589 21.3618 16.5409 21.2621 16.9944C21.1571 17.4864 21.1833 18.1962 21.3828 19.1008C21.4458 19.3852 21.5246 19.6825 21.6191 19.9874H21.6164Z" fill="#111439"/>
</svg>
