<svg width="603" height="717" viewBox="0 0 603 717" fill="none" xmlns="http://www.w3.org/2000/svg">
<path fill-rule="evenodd" clip-rule="evenodd" d="M-66.1207 -89.4821C7.39798 -160.802 106.996 -194.225 197.185 -201.181C288.664 -208.237 374.196 -187.118 421.756 -127.113C468.509 -68.1259 481.224 21.1705 442.072 107.784C407.276 184.76 309.22 216.32 239.891 275.209C169.398 335.088 120.534 441.151 38.6286 450.478C-43.5326 459.834 -66.8429 371.595 -104.443 314.42C-137.251 264.532 -167.671 214.202 -161.251 146.535C-153.63 66.2082 -134.95 -22.7109 -66.1207 -89.4821Z" fill="url(#paint0_linear_332_2592)"/>
<path fill-rule="evenodd" clip-rule="evenodd" d="M896.405 618.482C822.886 689.802 723.289 723.225 633.099 730.181C541.621 737.237 456.089 716.118 408.528 656.113C361.775 597.126 349.06 507.829 388.213 421.216C423.009 344.24 521.065 312.68 590.393 253.791C660.887 193.912 709.751 87.8495 791.656 78.5224C873.817 69.1662 897.127 157.405 934.727 214.58C967.535 264.468 997.956 314.798 991.535 382.465C983.914 462.792 965.235 551.711 896.405 618.482Z" fill="url(#paint1_linear_332_2592)"/>
<path fill-rule="evenodd" clip-rule="evenodd" d="M256.861 292.617C344.4 298.078 416.069 356.488 474.425 421.967C528.851 483.036 582.186 559.339 566.038 639.531C551.052 713.952 458.558 734.099 401.491 784.162C351.421 828.087 321.88 896.31 256.861 910.765C178.545 928.176 87.2313 922.604 29.5391 866.853C-28.6454 810.626 -20.5422 720.378 -23.817 639.531C-27.3074 553.363 -43.8975 460.06 10.3457 393.016C68.3606 321.31 164.804 286.874 256.861 292.617Z" fill="url(#paint2_linear_332_2592)"/>
<path fill-rule="evenodd" clip-rule="evenodd" d="M504.994 -164.558C588.006 -173.161 617.262 -54.1283 673.281 7.7338C724.218 63.9825 800.266 101.284 813.406 176.021C828.385 261.214 813.75 363.509 745.083 416.11C679.029 466.709 587.954 418.668 504.994 412.273C433.139 406.734 356.814 425.134 299.271 381.744C235.038 333.309 175.78 254.882 191.681 176.021C206.978 100.156 315.916 96.297 368.313 39.3401C425.902 -23.2608 420.386 -155.789 504.994 -164.558Z" fill="url(#paint3_linear_332_2592)"/>
<defs>
<linearGradient id="paint0_linear_332_2592" x1="-31.8803" y1="-119.399" x2="290.165" y2="264.399" gradientUnits="userSpaceOnUse">
<stop stop-color="#F55C7A"/>
<stop offset="1" stop-color="#F6BC66"/>
</linearGradient>
<linearGradient id="paint1_linear_332_2592" x1="862.165" y1="648.399" x2="540.12" y2="264.601" gradientUnits="userSpaceOnUse">
<stop stop-color="#F55C7A"/>
<stop offset="1" stop-color="#F6BC66"/>
</linearGradient>
<linearGradient id="paint2_linear_332_2592" x1="270.019" y1="292" x2="270.019" y2="919.528" gradientUnits="userSpaceOnUse">
<stop stop-color="#F55C7A"/>
<stop offset="1" stop-color="#F6BC66"/>
</linearGradient>
<linearGradient id="paint3_linear_332_2592" x1="503.906" y1="-165" x2="503.906" y2="439.027" gradientUnits="userSpaceOnUse">
<stop stop-color="#F55C7A"/>
<stop offset="1" stop-color="#F6BC66"/>
</linearGradient>
</defs>
</svg>
