<svg width="225" height="67" viewBox="0 0 225 67" fill="none" xmlns="http://www.w3.org/2000/svg">
<path d="M28.439 24.016C28.172 23.749 27.6761 23.3866 26.9513 22.9288C26.2646 22.471 25.4063 22.0323 24.3763 21.6127C23.3845 21.1931 22.2973 20.8307 21.1147 20.5255C19.9321 20.1822 18.7305 20.0105 17.5097 20.0105C15.3735 20.0105 13.7522 20.4111 12.6459 21.2122C11.5778 22.0133 11.0437 23.1386 11.0437 24.5882C11.0437 25.6945 11.387 26.5719 12.0737 27.2204C12.7604 27.8689 13.7903 28.4221 15.1637 28.8798C16.537 29.3376 18.2536 29.8335 20.3136 30.3676C22.9839 31.0161 25.2918 31.8172 27.2374 32.7709C29.221 33.6864 30.7279 34.9071 31.7579 36.433C32.826 37.9208 33.36 39.9045 33.36 42.3841C33.36 44.5585 32.9595 46.4277 32.1584 47.9918C31.3573 49.5177 30.251 50.7575 28.8396 51.7111C27.4281 52.6648 25.8259 53.3706 24.033 53.8283C22.24 54.248 20.3327 54.4578 18.3108 54.4578C16.289 54.4578 14.2672 54.248 12.2454 53.8283C10.2235 53.4087 8.27802 52.8174 6.40879 52.0545C4.53956 51.2534 2.82292 50.2997 1.25887 49.1934L4.74937 42.3841C5.0927 42.7274 5.70306 43.1852 6.58046 43.7574C7.45785 44.2914 8.52598 44.8446 9.78485 45.4168C11.0437 45.9509 12.417 46.4086 13.9048 46.7901C15.3925 47.1716 16.8994 47.3623 18.4253 47.3623C20.5615 47.3623 22.1828 46.9999 23.2891 46.2751C24.3954 45.5503 24.9485 44.5203 24.9485 43.1852C24.9485 41.9644 24.5098 41.0108 23.6324 40.3241C22.755 39.6374 21.5343 39.0462 19.9703 38.5502C18.4062 38.0162 16.556 37.444 14.4198 36.8336C11.8639 36.1088 9.72763 35.3077 8.01099 34.4303C6.29435 33.5148 5.01641 32.3703 4.17716 30.997C3.33791 29.6237 2.91829 27.9071 2.91829 25.8471C2.91829 23.0623 3.5668 20.7353 4.86381 18.8661C6.19898 16.9587 7.99192 15.5282 10.2426 14.5745C12.4933 13.5827 14.992 13.0867 17.7386 13.0867C19.646 13.0867 21.4389 13.2965 23.1174 13.7162C24.8341 14.1358 26.4363 14.6889 27.924 15.3756C29.4118 16.0622 30.7469 16.8061 31.9295 17.6072L28.439 24.016ZM52.3379 13.4873H59.6622L64.2971 26.9343L68.9893 13.4873H76.2564L69.2754 31.9698L74.4253 44.9018L85.9268 13.3728H94.51L78.2591 54H71.4498L64.2971 36.948L57.2017 54H50.3923L34.1987 13.3728H42.6675L54.2262 44.9018L59.2617 31.9698L52.3379 13.4873ZM126.375 13.3728L137.361 44.6157L148.233 13.3728H156.53L141.138 54H133.527L118.078 13.3728H126.375ZM189.077 47.0762V54H160.867V13.3728H188.562V20.2966H168.763V30.0815H185.872V36.4903H168.763V47.0762H189.077ZM195.233 54V13.3728H203.13V47.0762H223.844V54H195.233Z" fill="white"/>
<path d="M28.439 24.016L27.3571 25.0979L28.804 26.5447L29.7826 24.7478L28.439 24.016ZM26.9513 22.9288L26.1026 24.2018L26.1183 24.2123L26.1342 24.2224L26.9513 22.9288ZM24.3763 21.6127L23.7801 23.0218L23.7896 23.0258L23.799 23.0296L24.3763 21.6127ZM21.1147 20.5255L20.6881 21.9948L20.7101 22.0012L20.7324 22.007L21.1147 20.5255ZM12.6459 21.2122L11.7486 19.973L11.7382 19.9805L11.7279 19.9882L12.6459 21.2122ZM15.1637 28.8798L14.6798 30.3313L14.6798 30.3313L15.1637 28.8798ZM20.3136 30.3676L19.9296 31.8486L19.941 31.8516L19.9525 31.8544L20.3136 30.3676ZM27.2374 32.7709L26.5639 34.1447L26.58 34.1526L26.5962 34.1601L27.2374 32.7709ZM31.7579 36.433L30.4897 37.289L30.5021 37.3074L30.515 37.3254L31.7579 36.433ZM32.1584 47.9918L33.5131 48.703L33.5166 48.6961L33.5202 48.6892L32.1584 47.9918ZM24.033 53.8283L24.3816 55.3181L24.3966 55.3146L24.4115 55.3108L24.033 53.8283ZM6.40879 52.0545L5.8061 53.4608L5.81831 53.466L5.83061 53.471L6.40879 52.0545ZM1.25887 49.1934L-0.10267 48.4955L-0.707958 49.6763L0.375349 50.4425L1.25887 49.1934ZM4.74937 42.3841L5.83125 41.3022L4.34599 39.8169L3.38783 41.6861L4.74937 42.3841ZM6.58046 43.7574L5.74467 45.0389L5.7646 45.0519L5.78494 45.0643L6.58046 43.7574ZM9.78485 45.4168L9.15173 46.8097L9.16942 46.8177L9.18731 46.8253L9.78485 45.4168ZM13.9048 46.7901L13.5248 48.2722H13.5248L13.9048 46.7901ZM23.2891 46.2751L22.4506 44.9953H22.4506L23.2891 46.2751ZM19.9703 38.5502L19.4758 39.9981L19.4918 40.0036L19.5078 40.0087L19.9703 38.5502ZM14.4198 36.8336L14.8401 35.3625L14.8372 35.3616L14.4198 36.8336ZM8.01099 34.4303L7.29099 35.7803L7.30277 35.7866L7.31467 35.7927L8.01099 34.4303ZM4.17716 30.997L2.87164 31.7948H2.87164L4.17716 30.997ZM4.86381 18.8661L3.61038 17.9887L3.60678 17.9939L4.86381 18.8661ZM10.2426 14.5745L10.8396 15.9832L10.8496 15.979L10.8596 15.9746L10.2426 14.5745ZM23.1174 13.7162L22.7463 15.2005L22.7541 15.2024L23.1174 13.7162ZM27.924 15.3756L28.5652 13.9864H28.5652L27.924 15.3756ZM31.9295 17.6072L33.2732 18.339L33.9374 17.1194L32.7876 16.3405L31.9295 17.6072ZM29.5209 22.9341C29.1231 22.5363 28.4993 22.0969 27.7683 21.6352L26.1342 24.2224C26.8528 24.6763 27.2209 24.9616 27.3571 25.0979L29.5209 22.9341ZM27.7999 21.6558C27.0043 21.1253 26.0481 20.6417 24.9536 20.1958L23.799 23.0296C24.7644 23.4229 25.5249 23.8168 26.1026 24.2018L27.7999 21.6558ZM24.9724 20.2036C23.9027 19.7511 22.743 19.3656 21.497 19.044L20.7324 22.007C21.8515 22.2958 22.8662 22.6351 23.7801 23.0218L24.9724 20.2036ZM21.5413 19.0562C20.2213 18.673 18.8761 18.4805 17.5097 18.4805V21.5405C18.5848 21.5405 19.6429 21.6914 20.6881 21.9948L21.5413 19.0562ZM17.5097 18.4805C15.2204 18.4805 13.2258 18.9032 11.7486 19.973L13.5433 22.4514C14.2786 21.9189 15.5265 21.5405 17.5097 21.5405V18.4805ZM11.7279 19.9882C10.2378 21.1057 9.51372 22.7049 9.51372 24.5882H12.5737C12.5737 23.5724 12.9178 22.9208 13.5639 22.4362L11.7279 19.9882ZM9.51372 24.5882C9.51372 26.037 9.97776 27.3454 11.0232 28.3327L13.1242 26.1081C12.7963 25.7984 12.5737 25.352 12.5737 24.5882H9.51372ZM11.0232 28.3327C11.9349 29.1938 13.1969 29.837 14.6798 30.3313L15.6475 27.4283C14.3838 27.0071 13.5858 26.544 13.1242 26.1081L11.0232 28.3327ZM14.6798 30.3313C16.0974 30.8038 17.8501 31.3095 19.9296 31.8486L20.6976 28.8865C18.6572 28.3576 16.9765 27.8713 15.6475 27.4283L14.6798 30.3313ZM19.9525 31.8544C22.5422 32.4833 24.7405 33.2509 26.5639 34.1447L27.9108 31.3971C25.8432 30.3835 23.4256 29.5489 20.6747 28.8808L19.9525 31.8544ZM26.5962 34.1601C28.3739 34.9805 29.6431 36.0349 30.4897 37.289L33.026 35.577C31.8126 33.7794 30.0682 32.3923 27.8785 31.3817L26.5962 34.1601ZM30.515 37.3254C31.3406 38.4752 31.83 40.1133 31.83 42.3841H34.89C34.89 39.6957 34.3114 37.3664 33.0007 35.5407L30.515 37.3254ZM31.83 42.3841C31.83 44.3725 31.464 45.9913 30.7966 47.2943L33.5202 48.6892C34.455 46.8641 34.89 44.7445 34.89 42.3841H31.83ZM30.8037 47.2806C30.1187 48.5854 29.1824 49.633 27.983 50.4434L29.6961 52.9789C31.3196 51.882 32.5959 50.4499 33.5131 48.703L30.8037 47.2806ZM27.983 50.4434C26.7294 51.2904 25.2916 51.9279 23.6545 52.3459L24.4115 55.3108C26.3602 54.8132 28.1268 54.0393 29.6961 52.9789L27.983 50.4434ZM23.6843 52.3386C22.0162 52.729 20.2266 52.9278 18.3108 52.9278V55.9878C20.4387 55.9878 22.4639 55.7669 24.3816 55.3181L23.6843 52.3386ZM18.3108 52.9278C16.3957 52.9278 14.478 52.7291 12.5563 52.3303L11.9344 55.3264C14.0564 55.7668 16.1823 55.9878 18.3108 55.9878V52.9278ZM12.5563 52.3303C10.6238 51.9292 8.76785 51.3648 6.98697 50.6379L5.83061 53.471C7.7882 54.27 9.82332 54.8883 11.9344 55.3264L12.5563 52.3303ZM7.01149 50.6482C5.23509 49.8869 3.61341 48.9848 2.14239 47.9443L0.375349 50.4425C2.03243 51.6146 3.84403 52.6199 5.8061 53.4608L7.01149 50.6482ZM2.62041 49.8913L6.11091 43.082L3.38783 41.6861L-0.10267 48.4955L2.62041 49.8913ZM3.6675 43.4659C4.1309 43.9293 4.85608 44.4594 5.74467 45.0389L7.41625 42.4758C6.55004 41.9109 6.0545 41.5254 5.83125 41.3022L3.6675 43.4659ZM5.78494 45.0643C6.72905 45.639 7.85479 46.2201 9.15173 46.8097L10.418 44.0239C9.19717 43.469 8.18665 42.9439 7.37597 42.4505L5.78494 45.0643ZM9.18731 46.8253C10.5247 47.3927 11.9717 47.8739 13.5248 48.2722L14.2848 45.3081C12.8624 44.9433 11.5627 44.509 10.3824 44.0083L9.18731 46.8253ZM13.5248 48.2722C15.1359 48.6853 16.7703 48.8923 18.4253 48.8923V45.8323C17.0284 45.8323 15.6492 45.6579 14.2848 45.3081L13.5248 48.2722ZM18.4253 48.8923C20.6928 48.8923 22.6621 48.5151 24.1276 47.5549L22.4506 44.9953C21.7036 45.4848 20.4302 45.8323 18.4253 45.8323V48.8923ZM24.1276 47.5549C25.6703 46.5441 26.4785 45.0303 26.4785 43.1852H23.4185C23.4185 44.0104 23.1204 44.5565 22.4506 44.9953L24.1276 47.5549ZM26.4785 43.1852C26.4785 41.5455 25.8621 40.1262 24.5754 39.1192L22.6895 41.529C23.1575 41.8953 23.4185 42.3834 23.4185 43.1852H26.4785ZM24.5754 39.1192C23.5033 38.2802 22.0961 37.6192 20.4327 37.0918L19.5078 40.0087C20.9725 40.4731 22.0067 40.9947 22.6895 41.529L24.5754 39.1192ZM20.4647 37.1023C18.8694 36.5576 16.9934 35.9777 14.8401 35.3625L13.9995 38.3047C16.1187 38.9102 17.943 39.4747 19.4758 39.9981L20.4647 37.1023ZM14.8372 35.3616C12.3443 34.6547 10.3085 33.8863 8.70731 33.0679L7.31467 35.7927C9.14675 36.7291 11.3834 37.5629 14.0024 38.3056L14.8372 35.3616ZM8.73099 33.0803C7.20497 32.2664 6.15246 31.2952 5.48268 30.1992L2.87164 31.7948C3.88035 33.4454 5.38373 34.7631 7.29099 35.7803L8.73099 33.0803ZM5.48268 30.1992C4.82605 29.1247 4.44829 27.7032 4.44829 25.8471H1.38829C1.38829 28.1109 1.84978 30.1227 2.87164 31.7948L5.48268 30.1992ZM4.44829 25.8471C4.44829 23.3034 5.03802 21.2989 6.12084 19.7383L3.60678 17.9939C2.09558 20.1718 1.38829 22.8213 1.38829 25.8471H4.44829ZM6.11724 19.7435C7.27936 18.0833 8.83937 16.8308 10.8396 15.9832L9.64569 13.1657C7.14446 14.2256 5.1186 15.8341 3.61039 17.9887L6.11724 19.7435ZM10.8596 15.9746C12.8944 15.0779 15.1796 14.6167 17.7386 14.6167V11.5567C14.8044 11.5567 12.0923 12.0874 9.62564 13.1744L10.8596 15.9746ZM17.7386 14.6167C19.5335 14.6167 21.2009 14.8141 22.7463 15.2005L23.4885 12.2318C21.677 11.779 19.7585 11.5567 17.7386 11.5567V14.6167ZM22.7541 15.2024C24.3826 15.6005 25.8911 16.1224 27.2829 16.7648L28.5652 13.9864C26.9815 13.2555 25.2855 12.6711 23.4807 12.2299L22.7541 15.2024ZM27.2829 16.7648C28.7059 17.4215 29.9669 18.1257 31.0714 18.8739L32.7876 16.3405C31.527 15.4865 30.1177 14.703 28.5652 13.9864L27.2829 16.7648ZM30.5859 16.8754L27.0954 23.2842L29.7826 24.7478L33.2732 18.339L30.5859 16.8754ZM52.3379 13.4873V11.9573H50.1309L50.9051 14.024L52.3379 13.4873ZM59.6622 13.4873L61.1087 12.9887L60.7532 11.9573H59.6622V13.4873ZM64.2971 26.9343L62.8506 27.4329L64.2883 31.6037L65.7417 27.4384L64.2971 26.9343ZM68.9893 13.4873V11.9573H67.9027L67.5447 12.9832L68.9893 13.4873ZM76.2564 13.4873L77.6877 14.0279L78.4698 11.9573H76.2564V13.4873ZM69.2754 31.9698L67.8441 31.4292L67.6344 31.9844L67.854 32.5358L69.2754 31.9698ZM74.4253 44.9018L73.0039 45.4679L74.488 49.1946L75.8627 45.4261L74.4253 44.9018ZM85.9268 13.3728V11.8428H84.8563L84.4895 12.8485L85.9268 13.3728ZM94.51 13.3728L95.9306 13.9411L96.7699 11.8428H94.51V13.3728ZM78.2591 54V55.53H79.295L79.6797 54.5682L78.2591 54ZM71.4498 54L70.0389 54.5918L70.4324 55.53H71.4498V54ZM64.2971 36.948L65.708 36.3562L64.2915 32.9791L62.8845 36.3602L64.2971 36.948ZM57.2017 54V55.53H58.2222L58.6143 54.5878L57.2017 54ZM50.3923 54L48.9711 54.5665L49.3551 55.53H50.3923V54ZM34.1987 13.3728V11.8428H31.9418L32.7774 13.9393L34.1987 13.3728ZM42.6675 13.3728L44.104 12.8462L43.7361 11.8428H42.6675V13.3728ZM54.2262 44.9018L52.7897 45.4284L54.1831 49.2292L55.6519 45.457L54.2262 44.9018ZM59.2617 31.9698L60.6874 32.5249L60.8994 31.9803L60.6944 31.433L59.2617 31.9698ZM52.3379 15.0173H59.6622V11.9573H52.3379V15.0173ZM58.2157 13.9859L62.8506 27.4329L65.7436 26.4357L61.1087 12.9887L58.2157 13.9859ZM65.7417 27.4384L70.4339 13.9914L67.5447 12.9832L62.8526 26.4302L65.7417 27.4384ZM68.9893 15.0173H76.2564V11.9573H68.9893V15.0173ZM74.8251 12.9467L67.8441 31.4292L70.7067 32.5104L77.6877 14.0279L74.8251 12.9467ZM67.854 32.5358L73.0039 45.4679L75.8467 44.3357L70.6968 31.4037L67.854 32.5358ZM75.8627 45.4261L87.3642 13.8972L84.4895 12.8485L72.988 44.3775L75.8627 45.4261ZM85.9268 14.9028H94.51V11.8428H85.9268V14.9028ZM93.0894 12.8046L76.8386 53.4318L79.6797 54.5682L95.9306 13.9411L93.0894 12.8046ZM78.2591 52.47H71.4498V55.53H78.2591V52.47ZM72.8607 53.4082L65.708 36.3562L62.8862 37.5399L70.0389 54.5918L72.8607 53.4082ZM62.8845 36.3602L55.7891 53.4122L58.6143 54.5878L65.7097 37.5358L62.8845 36.3602ZM57.2017 52.47H50.3923V55.53H57.2017V52.47ZM51.8136 53.4335L35.62 12.8063L32.7774 13.9393L48.9711 54.5665L51.8136 53.4335ZM34.1987 14.9028H42.6675V11.8428H34.1987V14.9028ZM41.2309 13.8995L52.7897 45.4284L55.6627 44.3752L44.104 12.8462L41.2309 13.8995ZM55.6519 45.457L60.6874 32.5249L57.8359 31.4146L52.8004 44.3467L55.6519 45.457ZM60.6944 31.433L53.7706 12.9506L50.9051 14.024L57.8289 32.5065L60.6944 31.433ZM126.375 13.3728L127.818 12.8653L127.459 11.8428H126.375V13.3728ZM137.361 44.6157L135.918 45.1233L137.369 49.2493L138.806 45.1185L137.361 44.6157ZM148.233 13.3728V11.8428H147.146L146.788 12.87L148.233 13.3728ZM156.53 13.3728L157.961 13.9149L158.746 11.8428H156.53V13.3728ZM141.138 54V55.53H142.194L142.569 54.5421L141.138 54ZM133.527 54L132.097 54.5438L132.472 55.53H133.527V54ZM118.078 13.3728V11.8428H115.859L116.648 13.9167L118.078 13.3728ZM124.931 13.8804L135.918 45.1233L138.805 44.1081L127.818 12.8653L124.931 13.8804ZM138.806 45.1185L149.678 13.8757L146.788 12.87L135.916 44.1129L138.806 45.1185ZM148.233 14.9028H156.53V11.8428H148.233V14.9028ZM155.1 12.8308L139.707 53.4579L142.569 54.5421L157.961 13.9149L155.1 12.8308ZM141.138 52.47H133.527V55.53H141.138V52.47ZM134.957 53.4562L119.508 12.829L116.648 13.9167L132.097 54.5438L134.957 53.4562ZM118.078 14.9028H126.375V11.8428H118.078V14.9028ZM189.077 47.0762H190.607V45.5462H189.077V47.0762ZM189.077 54V55.53H190.607V54H189.077ZM160.867 54H159.337V55.53H160.867V54ZM160.867 13.3728V11.8428H159.337V13.3728H160.867ZM188.562 13.3728H190.092V11.8428H188.562V13.3728ZM188.562 20.2966V21.8266H190.092V20.2966H188.562ZM168.763 20.2966V18.7666H167.233V20.2966H168.763ZM168.763 30.0815H167.233V31.6115H168.763V30.0815ZM185.872 30.0815H187.402V28.5515H185.872V30.0815ZM185.872 36.4903V38.0203H187.402V36.4903H185.872ZM168.763 36.4903V34.9603H167.233V36.4903H168.763ZM168.763 47.0762H167.233V48.6062H168.763V47.0762ZM187.547 47.0762V54H190.607V47.0762H187.547ZM189.077 52.47H160.867V55.53H189.077V52.47ZM162.397 54V13.3728H159.337V54H162.397ZM160.867 14.9028H188.562V11.8428H160.867V14.9028ZM187.032 13.3728V20.2966H190.092V13.3728H187.032ZM188.562 18.7666H168.763V21.8266H188.562V18.7666ZM167.233 20.2966V30.0815H170.293V20.2966H167.233ZM168.763 31.6115H185.872V28.5515H168.763V31.6115ZM184.342 30.0815V36.4903H187.402V30.0815H184.342ZM185.872 34.9603H168.763V38.0203H185.872V34.9603ZM167.233 36.4903V47.0762H170.293V36.4903H167.233ZM168.763 48.6062H189.077V45.5462H168.763V48.6062ZM195.233 54H193.703V55.53H195.233V54ZM195.233 13.3728V11.8428H193.703V13.3728H195.233ZM203.13 13.3728H204.66V11.8428H203.13V13.3728ZM203.13 47.0762H201.6V48.6062H203.13V47.0762ZM223.844 47.0762H225.374V45.5462H223.844V47.0762ZM223.844 54V55.53H225.374V54H223.844ZM196.763 54V13.3728H193.703V54H196.763ZM195.233 14.9028H203.13V11.8428H195.233V14.9028ZM201.6 13.3728V47.0762H204.66V13.3728H201.6ZM203.13 48.6062H223.844V45.5462H203.13V48.6062ZM222.314 47.0762V54H225.374V47.0762H222.314ZM223.844 52.47H195.233V55.53H223.844V52.47Z" fill="#111439"/>
<path d="M112.535 52.8537L105.203 55.315L97.2762 52.8537L102.542 25.3446L100.051 13.6171L105.203 11.4453L112.535 13.6171L108.869 32.5838L112.535 52.8537Z" fill="white"/>
<path d="M97.2762 52.8537L105.203 51.5506M97.2762 52.8537L105.203 55.315L112.535 52.8537M97.2762 52.8537L102.542 25.3446M105.203 51.5506L112.535 52.8537M105.203 51.5506L108.869 32.5838M112.535 52.8537L108.869 32.5838M105.203 11.4453L112.535 13.6171L108.869 32.5838M105.203 11.4453L102.542 25.3446M105.203 11.4453L100.051 13.6171L102.542 25.3446" stroke="#111439" stroke-width="1.5259"/>
</svg>
