<svg width="24" height="24" viewBox="0 0 24 24" fill="none" xmlns="http://www.w3.org/2000/svg">
<path fill-rule="evenodd" clip-rule="evenodd" d="M20.0159 12.1943C20.0159 11.5881 19.9615 11.0051 19.8605 10.4455H11.8079V13.7528H16.4094C16.2112 14.8215 15.6088 15.727 14.7033 16.3333V18.4786H17.4665C19.0832 16.9901 20.0159 14.7982 20.0159 12.1943Z" fill="#4285F4"/>
<path fill-rule="evenodd" clip-rule="evenodd" d="M11.8079 20.55C14.1164 20.55 16.0518 19.7844 17.4665 18.4786L14.7033 16.3333C13.9376 16.8463 12.9583 17.1494 11.8079 17.1494C9.58103 17.1494 7.69615 15.6454 7.0238 13.6245H4.16733V15.8397C5.57419 18.634 8.46565 20.55 11.8079 20.55Z" fill="#34A853"/>
<path fill-rule="evenodd" clip-rule="evenodd" d="M7.02382 13.6245C6.85282 13.1115 6.75566 12.5635 6.75566 12C6.75566 11.4365 6.85282 10.8885 7.02382 10.3755V8.16028H4.16734C3.58828 9.31453 3.25793 10.6203 3.25793 12C3.25793 13.3797 3.58828 14.6855 4.16734 15.8397L7.02382 13.6245Z" fill="#FBBC05"/>
<path fill-rule="evenodd" clip-rule="evenodd" d="M11.8079 6.85058C13.0632 6.85058 14.1903 7.28197 15.0763 8.12919L17.5286 5.6769C16.0479 4.29724 14.1125 3.45001 11.8079 3.45001C8.46565 3.45001 5.57419 5.36599 4.16733 8.16028L7.0238 10.3755C7.69615 8.3546 9.58103 6.85058 11.8079 6.85058Z" fill="#EA4335"/>
</svg>
