<svg width="1757" height="1448" viewBox="0 0 1757 1448" fill="none" xmlns="http://www.w3.org/2000/svg">
<g filter="url(#filter0_i_14_363)">
<path fill-rule="evenodd" clip-rule="evenodd" d="M1442.93 0.442271C1525.94 -8.16098 1555.19 110.872 1611.21 172.734C1662.15 228.982 1738.2 266.284 1751.34 341.021C1766.32 426.214 1751.68 528.509 1683.01 581.11C1616.96 631.709 1525.89 583.668 1442.93 577.273C1371.07 571.734 1294.75 590.134 1237.2 546.744C1172.97 498.309 1113.71 419.882 1129.61 341.021C1144.91 265.156 1253.85 261.297 1306.24 204.34C1363.83 141.739 1358.32 9.21087 1442.93 0.442271Z" fill="#20234F"/>
</g>
<g filter="url(#filter1_i_14_363)">
<path fill-rule="evenodd" clip-rule="evenodd" d="M1195.79 455.617C1283.33 461.078 1355 519.488 1413.36 584.967C1467.78 646.036 1521.12 722.339 1504.97 802.531C1489.98 876.952 1397.49 897.099 1340.42 947.162C1290.35 991.087 1260.81 1059.31 1195.79 1073.76C1117.48 1091.18 1026.16 1085.6 968.471 1029.85C910.287 973.626 918.39 883.378 915.115 802.531C911.625 716.363 895.035 623.06 949.278 556.016C1007.29 484.31 1103.74 449.874 1195.79 455.617Z" fill="#20234F"/>
</g>
<g filter="url(#filter2_i_14_363)">
<path fill-rule="evenodd" clip-rule="evenodd" d="M443.099 578.617C341.208 568.142 251.584 513.33 188.283 448.712C124.076 383.171 85.2755 304.075 100.671 229.071C115.805 155.34 176.037 88.2007 267.554 62.5193C348.888 39.6953 436.093 94.5243 525.768 109.78C616.95 125.292 729.608 94.5478 789.401 151.296C849.38 208.221 796.769 282.796 777.139 348.35C760.011 405.551 741.01 461.205 685.047 499.783C618.614 545.577 538.492 588.424 443.099 578.617Z" fill="#20234F"/>
</g>
<g filter="url(#filter3_i_14_363)">
<path fill-rule="evenodd" clip-rule="evenodd" d="M297.025 772.724C372.088 736.247 440.291 838.096 514.09 877.067C581.193 912.502 665.413 921.544 703.322 987.28C746.535 1062.21 767.77 1163.34 721.234 1236.26C676.47 1306.4 574.457 1292.4 494.312 1314.77C424.896 1334.14 359.467 1377.53 290.555 1356.44C213.629 1332.9 131.121 1279.47 119.092 1199.92C107.519 1123.4 208.567 1082.52 238.323 1011.07C271.029 932.551 220.518 809.901 297.025 772.724Z" fill="#20234F"/>
</g>
<defs>
<filter id="filter0_i_14_363" x="1127" y="0" width="629.677" height="608.027" filterUnits="userSpaceOnUse" color-interpolation-filters="sRGB">
<feFlood flood-opacity="0" result="BackgroundImageFix"/>
<feBlend mode="normal" in="SourceGraphic" in2="BackgroundImageFix" result="shape"/>
<feColorMatrix in="SourceAlpha" type="matrix" values="0 0 0 0 0 0 0 0 0 0 0 0 0 0 0 0 0 0 127 0" result="hardAlpha"/>
<feOffset dy="4"/>
<feGaussianBlur stdDeviation="2"/>
<feComposite in2="hardAlpha" operator="arithmetic" k2="-1" k3="1"/>
<feColorMatrix type="matrix" values="0 0 0 0 0 0 0 0 0 0 0 0 0 0 0 0 0 0 0.25 0"/>
<feBlend mode="normal" in2="shape" result="effect1_innerShadow_14_363"/>
</filter>
<filter id="filter1_i_14_363" x="910" y="455" width="597.903" height="631.528" filterUnits="userSpaceOnUse" color-interpolation-filters="sRGB">
<feFlood flood-opacity="0" result="BackgroundImageFix"/>
<feBlend mode="normal" in="SourceGraphic" in2="BackgroundImageFix" result="shape"/>
<feColorMatrix in="SourceAlpha" type="matrix" values="0 0 0 0 0 0 0 0 0 0 0 0 0 0 0 0 0 0 127 0" result="hardAlpha"/>
<feOffset dy="4"/>
<feGaussianBlur stdDeviation="2"/>
<feComposite in2="hardAlpha" operator="arithmetic" k2="-1" k3="1"/>
<feColorMatrix type="matrix" values="0 0 0 0 0 0 0 0 0 0 0 0 0 0 0 0 0 0 0.25 0"/>
<feBlend mode="normal" in2="shape" result="effect1_innerShadow_14_363"/>
</filter>
<filter id="filter2_i_14_363" x="97.3035" y="57.0352" width="719.952" height="526.995" filterUnits="userSpaceOnUse" color-interpolation-filters="sRGB">
<feFlood flood-opacity="0" result="BackgroundImageFix"/>
<feBlend mode="normal" in="SourceGraphic" in2="BackgroundImageFix" result="shape"/>
<feColorMatrix in="SourceAlpha" type="matrix" values="0 0 0 0 0 0 0 0 0 0 0 0 0 0 0 0 0 0 127 0" result="hardAlpha"/>
<feOffset dy="4"/>
<feGaussianBlur stdDeviation="2"/>
<feComposite in2="hardAlpha" operator="arithmetic" k2="-1" k3="1"/>
<feColorMatrix type="matrix" values="0 0 0 0 0 0 0 0 0 0 0 0 0 0 0 0 0 0 0.25 0"/>
<feBlend mode="normal" in2="shape" result="effect1_innerShadow_14_363"/>
</filter>
<filter id="filter3_i_14_363" x="118.173" y="764.966" width="629.307" height="601.122" filterUnits="userSpaceOnUse" color-interpolation-filters="sRGB">
<feFlood flood-opacity="0" result="BackgroundImageFix"/>
<feBlend mode="normal" in="SourceGraphic" in2="BackgroundImageFix" result="shape"/>
<feColorMatrix in="SourceAlpha" type="matrix" values="0 0 0 0 0 0 0 0 0 0 0 0 0 0 0 0 0 0 127 0" result="hardAlpha"/>
<feOffset dy="4"/>
<feGaussianBlur stdDeviation="2"/>
<feComposite in2="hardAlpha" operator="arithmetic" k2="-1" k3="1"/>
<feColorMatrix type="matrix" values="0 0 0 0 0 0 0 0 0 0 0 0 0 0 0 0 0 0 0.25 0"/>
<feBlend mode="normal" in2="shape" result="effect1_innerShadow_14_363"/>
</filter>
</defs>
</svg>
