<svg width="40" height="40" viewBox="0 0 40 40" fill="none" xmlns="http://www.w3.org/2000/svg">
<path d="M20 3.75C16.7861 3.75 13.6443 4.70305 10.972 6.48862C8.29969 8.27419 6.21689 10.8121 4.98696 13.7814C3.75704 16.7507 3.43524 20.018 4.06225 23.1702C4.68926 26.3224 6.23692 29.2179 8.50952 31.4905C10.7821 33.7631 13.6776 35.3107 16.8298 35.9378C19.982 36.5648 23.2493 36.243 26.2186 35.013C29.1879 33.7831 31.7258 31.7003 33.5114 29.028C35.297 26.3557 36.25 23.2139 36.25 20C36.2455 15.6916 34.5319 11.561 31.4855 8.51454C28.439 5.46806 24.3084 3.75455 20 3.75ZM11.575 30.8594C12.4793 29.4451 13.725 28.2813 15.1974 27.4751C16.6698 26.6689 18.3214 26.2463 20 26.2463C21.6786 26.2463 23.3303 26.6689 24.8026 27.4751C26.275 28.2813 27.5207 29.4451 28.425 30.8594C26.0162 32.7328 23.0516 33.7499 20 33.7499C16.9484 33.7499 13.9839 32.7328 11.575 30.8594ZM15 18.75C15 17.7611 15.2933 16.7944 15.8427 15.9721C16.3921 15.1499 17.173 14.509 18.0866 14.1306C19.0002 13.7522 20.0056 13.6531 20.9755 13.8461C21.9454 14.039 22.8363 14.5152 23.5355 15.2145C24.2348 15.9137 24.711 16.8046 24.9039 17.7745C25.0969 18.7445 24.9978 19.7498 24.6194 20.6634C24.241 21.577 23.6001 22.3579 22.7779 22.9073C21.9556 23.4568 20.9889 23.75 20 23.75C18.6739 23.75 17.4022 23.2232 16.4645 22.2855C15.5268 21.3479 15 20.0761 15 18.75ZM30.275 29.1266C28.8809 27.1064 26.9206 25.5435 24.6406 24.6344C25.8653 23.6698 26.759 22.3475 27.1974 20.8514C27.6358 19.3553 27.597 17.7598 27.0866 16.2868C26.5761 14.8137 25.6194 13.5364 24.3493 12.6323C23.0792 11.7283 21.559 11.2425 20 11.2425C18.441 11.2425 16.9208 11.7283 15.6507 12.6323C14.3807 13.5364 13.4239 14.8137 12.9134 16.2868C12.403 17.7598 12.3642 19.3553 12.8026 20.8514C13.241 22.3475 14.1347 23.6698 15.3594 24.6344C13.0794 25.5435 11.1191 27.1064 9.72501 29.1266C7.96339 27.1456 6.81199 24.6976 6.40945 22.0773C6.00691 19.4571 6.37039 16.7764 7.45613 14.358C8.54186 11.9395 10.3036 9.88653 12.5291 8.44615C14.7546 7.00577 17.349 6.23945 20 6.23945C22.651 6.23945 25.2454 7.00577 27.4709 8.44615C29.6965 9.88653 31.4582 11.9395 32.5439 14.358C33.6296 16.7764 33.9931 19.4571 33.5906 22.0773C33.188 24.6976 32.0366 27.1456 30.275 29.1266Z" fill="white"/>
</svg>
