<svg width="152" height="45" viewBox="0 0 152 45" fill="none" xmlns="http://www.w3.org/2000/svg">
<path d="M19.1714 15.8615C18.992 15.6821 18.659 15.4387 18.1721 15.1313C17.711 14.8238 17.1345 14.5292 16.4427 14.2473C15.7765 13.9655 15.0463 13.7221 14.2521 13.5171C13.4578 13.2865 12.6507 13.1712 11.8308 13.1712C10.396 13.1712 9.30711 13.4403 8.56409 13.9783C7.84668 14.5164 7.48798 15.2722 7.48798 16.2458C7.48798 16.9888 7.71858 17.5781 8.17976 18.0137C8.64095 18.4493 9.33273 18.8208 10.2551 19.1282C11.1775 19.4357 12.3304 19.7688 13.714 20.1275C15.5075 20.563 17.0576 21.1011 18.3643 21.7416C19.6966 22.3565 20.7087 23.1764 21.4005 24.2013C22.1179 25.2005 22.4766 26.5329 22.4766 28.1983C22.4766 29.6587 22.2075 30.9141 21.6695 31.9646C21.1314 32.9895 20.3884 33.8222 19.4404 34.4627C18.4924 35.1032 17.4163 35.5772 16.2121 35.8847C15.0079 36.1665 13.7268 36.3075 12.3689 36.3075C11.0109 36.3075 9.653 36.1665 8.29506 35.8847C6.93712 35.6029 5.63042 35.2057 4.37497 34.6933C3.11952 34.1553 1.96655 33.5147 0.916066 32.7717L3.26043 28.1983C3.49103 28.4288 3.90097 28.7363 4.49027 29.1206C5.07956 29.4793 5.79696 29.8508 6.64247 30.2352C7.48798 30.5939 8.41036 30.9013 9.4096 31.1575C10.4088 31.4138 11.4209 31.5419 12.4457 31.5419C13.8805 31.5419 14.9695 31.2985 15.7125 30.8116C16.4555 30.3248 16.827 29.6331 16.827 28.7363C16.827 27.9164 16.5324 27.2759 15.9431 26.8147C15.3538 26.3535 14.5339 25.9564 13.4834 25.6233C12.4329 25.2646 11.1903 24.8803 9.75549 24.4703C8.03884 23.9835 6.60404 23.4455 5.45107 22.8562C4.2981 22.2413 3.43978 21.4726 2.87611 20.5502C2.31244 19.6279 2.0306 18.4749 2.0306 17.0913C2.0306 15.221 2.46617 13.658 3.3373 12.4026C4.23405 11.1215 5.43826 10.1607 6.94993 9.52018C8.4616 8.85402 10.1398 8.52094 11.9846 8.52094C13.2656 8.52094 14.4698 8.66185 15.5972 8.94369C16.7502 9.22553 17.8263 9.59704 18.8255 10.0582C19.8247 10.5194 20.7215 11.019 21.5158 11.5571L19.1714 15.8615ZM35.2229 8.78996H40.1422L43.2552 17.8215L46.4066 8.78996H51.2875L46.5988 21.2036L50.0577 29.8893L57.7826 8.7131H63.5474L52.6327 36H48.0592L43.2552 24.5472L38.4896 36H33.9162L23.0398 8.7131H28.7278L36.4911 29.8893L39.8732 21.2036L35.2229 8.78996ZM84.9491 8.7131L92.3281 29.6971L99.6302 8.7131H105.203L94.8646 36H89.7531L79.3764 8.7131H84.9491ZM127.062 31.3497V36H108.115V8.7131H126.717V13.3634H113.419V19.9353H124.91V24.2397H113.419V31.3497H127.062ZM131.197 36V8.7131H136.501V31.3497H150.413V36H131.197Z" fill="#111439"/>
<path d="M75.6541 35.4971L70.7295 37.1503L65.4055 35.4971L68.9424 17.0209L67.2689 9.1442L70.7295 7.68555L75.6541 9.1442L73.1918 21.8831L75.6541 35.4971Z" fill="#111439"/>
<path d="M65.4055 35.4971L70.7295 34.6219M65.4055 35.4971L70.7295 37.1503L75.6541 35.4971M65.4055 35.4971L68.9424 17.0209M70.7295 34.6219L75.6541 35.4971M70.7295 34.6219L73.1918 21.8831M75.6541 35.4971L73.1918 21.8831M70.7295 7.68555L75.6541 9.1442L73.1918 21.8831M70.7295 7.68555L68.9424 17.0209M70.7295 7.68555L67.2689 9.1442L68.9424 17.0209" stroke="white" stroke-width="1.02486"/>
</svg>
