<svg width="1174" height="170" viewBox="0 0 1174 170" fill="none" xmlns="http://www.w3.org/2000/svg">
<mask id="mask0_415_3727" style="mask-type:alpha" maskUnits="userSpaceOnUse" x="0" y="0" width="1174" height="170">
<rect width="1174" height="170" fill="#D9D9D9"/>
</mask>
<g mask="url(#mask0_415_3727)">
<path fill-rule="evenodd" clip-rule="evenodd" d="M215.308 -110.493C296.93 -115.184 368.153 -86.3743 434.686 -63.3133C501.251 -40.2411 569.008 -15.2824 596.706 21.7024C624.842 59.2726 625.995 103.399 585.717 138.357C547.959 171.13 449.41 171.817 393.544 198.036C320.875 232.139 315.709 303.914 215.308 312.19C119.444 320.092 45.2211 268.474 -14.0396 231.632C-61.781 201.95 -48.4324 160.803 -82.433 127.082C-125.185 84.6809 -267.188 55.4972 -236.765 10.7358C-206.346 -34.0201 -54.7031 -17.0852 31.2108 -40.124C101.466 -58.9639 135.312 -105.895 215.308 -110.493Z" fill="url(#paint0_linear_415_3727)"/>
<path fill-rule="evenodd" clip-rule="evenodd" d="M920.479 235.493C853.734 240.184 795.493 211.374 741.086 188.313C686.652 165.241 631.245 140.282 608.595 103.298C585.587 65.7273 584.644 21.6012 617.581 -13.3574C648.458 -46.1297 729.045 -46.8174 774.729 -73.0356C834.153 -107.139 838.378 -178.914 920.479 -187.19C998.872 -195.092 1059.57 -143.474 1108.03 -106.632C1147.07 -76.9504 1136.15 -35.8031 1163.95 -2.0818C1198.91 40.319 1315.04 69.5027 1290.16 114.264C1265.28 159.02 1141.28 142.085 1071.02 165.124C1013.57 183.964 985.896 230.895 920.479 235.493Z" fill="url(#paint1_linear_415_3727)"/>
<path fill-rule="evenodd" clip-rule="evenodd" d="M1032.27 -36.5474C1099.07 -40.7353 1157.35 -15.0155 1211.8 5.57205C1266.28 26.1696 1321.72 48.4513 1344.39 81.4693C1367.42 115.01 1368.36 154.403 1335.4 185.612C1304.5 214.87 1223.85 215.484 1178.13 238.89C1118.66 269.335 1126.66 178.224 1044.5 185.612C966.048 192.667 915.496 218.504 867 185.612C827.93 159.115 816.438 205.651 788.613 175.546C753.627 137.693 542.603 121.43 567.5 81.4693C592.394 41.5137 811.306 46.8419 881.615 26.2741C939.109 9.45498 966.806 -32.4428 1032.27 -36.5474Z" fill="url(#paint2_linear_415_3727)"/>
<path fill-rule="evenodd" clip-rule="evenodd" d="M495.659 310.591C428.877 314.375 370.605 291.137 316.168 272.536C261.705 253.926 206.269 233.794 183.607 203.962C160.586 173.657 159.643 138.065 192.597 109.867C223.49 83.4331 304.121 82.8784 349.83 61.7307C409.286 34.2228 413.513 -23.6714 495.659 -30.3466C574.094 -36.7203 634.822 4.9145 683.308 34.6321C722.369 58.573 834.5 90 912 109C984 126.652 1039.89 186.395 1015 222.5C990.112 258.6 716.578 235.248 646.284 253.831C588.803 269.027 561.111 306.882 495.659 310.591Z" fill="url(#paint3_linear_415_3727)"/>
</g>
<defs>
<linearGradient id="paint0_linear_415_3727" x1="560" y1="-188" x2="560" y2="313" gradientUnits="userSpaceOnUse">
<stop stop-color="#F55C7A"/>
<stop offset="1" stop-color="#F6BC66"/>
</linearGradient>
<linearGradient id="paint1_linear_415_3727" x1="560" y1="-188" x2="560" y2="313" gradientUnits="userSpaceOnUse">
<stop stop-color="#F55C7A"/>
<stop offset="1" stop-color="#F6BC66"/>
</linearGradient>
<linearGradient id="paint2_linear_415_3727" x1="654.026" y1="-188" x2="654.026" y2="484.155" gradientUnits="userSpaceOnUse">
<stop stop-color="#F55C7A"/>
<stop offset="1" stop-color="#F6BC66"/>
</linearGradient>
<linearGradient id="paint3_linear_415_3727" x1="518" y1="311" x2="518" y2="-31" gradientUnits="userSpaceOnUse">
<stop stop-color="#F55C7A"/>
<stop offset="1" stop-color="#F6BC66"/>
</linearGradient>
</defs>
</svg>
