<?xml version="1.0" encoding="UTF-8"?>
<!DOCTYPE svg PUBLIC "-//W3C//DTD SVG 1.1//EN" "http://www.w3.org/Graphics/SVG/1.1/DTD/svg11.dtd">
<svg xmlns="http://www.w3.org/2000/svg" version="1.1" width="722px" height="127px" style="shape-rendering:geometricPrecision; text-rendering:geometricPrecision; image-rendering:optimizeQuality; fill-rule:evenodd; clip-rule:evenodd" xmlns:xlink="http://www.w3.org/1999/xlink">
<g><path style="opacity:1" fill="#f57674" d="M -0.5,0.5 C -0.5,0.166667 -0.5,-0.166667 -0.5,-0.5C 85.1667,-0.5 170.833,-0.5 256.5,-0.5C 255.833,0.833333 254.833,1.83333 253.5,2.5C 239.552,1.93655 225.885,1.93655 212.5,2.5C 211.318,0.354556 209.818,0.354556 208,2.5C 207,-0.166667 206,-0.166667 205,2.5C 193.585,2.24814 182.252,2.24814 171,2.5C 168,1.83333 165,1.16667 162,0.5C 161.125,2.51267 159.791,2.51267 158,0.5C 157,1.16667 156,1.83333 155,2.5C 152.684,1.8607 150.184,1.8607 147.5,2.5C 144.118,1.5183 140.951,0.851638 138,0.5C 136.667,3.16667 135.333,3.16667 134,0.5C 133.667,1.16667 133.333,1.83333 133,2.5C 121.703,2.42719 110.37,2.42719 99,2.5C 98.3333,-0.166667 97.6667,-0.166667 97,2.5C 91.4234,1.25555 85.7567,1.25555 80,2.5C 78.9895,2.10812 78.4895,1.44145 78.5,0.5C 77.5,1.16667 76.5,1.83333 75.5,2.5C 70.7659,1.90134 65.7659,1.90134 60.5,2.5C 59.0626,-0.0443383 57.5626,-0.0443383 56,2.5C 47.4922,1.4819 38.6589,1.4819 29.5,2.5C 28.031,0.62487 26.1976,0.62487 24,2.5C 23.3086,0.108816 22.3086,0.108816 21,2.5C 18.1525,2.25923 15.1525,1.59256 12,0.5C 11.6667,1.16667 11.3333,1.83333 11,2.5C 9.47483,2.11191 7.80817,2.11191 6,2.5C 3.84604,1.76988 1.67937,1.10321 -0.5,0.5 Z"/></g>
<g><path style="opacity:1" fill="#f6b068" d="M 256.5,-0.5 C 299.833,-0.5 343.167,-0.5 386.5,-0.5C 388.794,1.653 391.46,3.31966 394.5,4.5C 395.167,5.16667 395.833,5.83333 396.5,6.5C 396.013,7.47344 395.513,8.47344 395,9.5C 389.645,9.45657 383.978,9.45657 378,9.5C 377.333,6.83333 376.667,6.83333 376,9.5C 368.99,9.4897 361.656,9.4897 354,9.5C 352.075,7.02662 350.242,7.02662 348.5,9.5C 345.898,8.58882 343.065,8.58882 340,9.5C 337.729,7.56625 335.729,7.56625 334,9.5C 331.593,9.3267 329.26,9.3267 327,9.5C 326.333,8.83333 325.667,8.16667 325,7.5C 320.333,8.16667 315.667,8.83333 311,9.5C 307.645,9.81658 304.478,9.48325 301.5,8.5C 299.246,10.9733 297.08,10.9733 295,8.5C 283.65,9.46995 271.483,9.80328 258.5,9.5C 255.891,8.7695 253.224,8.2695 250.5,8C 251.252,7.32924 251.586,6.4959 251.5,5.5C 252.167,4.5 252.833,3.5 253.5,2.5C 254.833,1.83333 255.833,0.833333 256.5,-0.5 Z"/></g>
<g><path style="opacity:1" fill="#f6906f" d="M 386.5,-0.5 C 497.167,-0.5 607.833,-0.5 718.5,-0.5C 718.833,0.166667 719.167,0.833333 719.5,1.5C 719.5,2.5 719.5,3.5 719.5,4.5C 718.448,4.64945 717.448,4.48278 716.5,4C 717.888,3.11066 717.722,2.61066 716,2.5C 714.584,3.57334 713.25,3.57334 712,2.5C 711.333,3.16667 710.667,3.83333 710,4.5C 708,3.16667 706,3.16667 704,4.5C 703.311,3.64332 702.478,2.97665 701.5,2.5C 698.028,3.42633 694.528,4.42633 691,5.5C 689.071,4.82068 687.071,3.82068 685,2.5C 683.989,2.89188 683.489,3.55855 683.5,4.5C 682.252,3.95978 681.085,3.29311 680,2.5C 677.534,3.78834 675.034,3.78834 672.5,2.5C 670.902,4.97343 669.402,4.97343 668,2.5C 666.34,2.32406 664.674,2.99073 663,4.5C 662.333,3.83333 661.667,3.16667 661,2.5C 659.038,2.03062 657.205,2.69729 655.5,4.5C 653.833,4.5 652.167,4.5 650.5,4.5C 649.318,2.35456 647.818,2.35456 646,4.5C 645.333,3.83333 644.667,3.16667 644,2.5C 642.434,1.9394 641.101,2.60607 640,4.5C 637.684,2.54062 635.684,2.54062 634,4.5C 632.424,5.01252 631.091,4.34585 630,2.5C 629.055,2.90536 628.388,3.57203 628,4.5C 626.57,4.30618 625.07,4.30618 623.5,4.5C 622.522,4.02335 621.689,3.35668 621,2.5C 617.893,2.95308 614.893,2.95308 612,2.5C 610.691,4.89118 609.691,4.89118 609,2.5C 606.076,3.66023 603.076,3.66023 600,2.5C 599.333,3.16667 598.667,3.83333 598,4.5C 596.333,3.16667 594.667,3.16667 593,4.5C 591.488,2.04264 590.154,2.04264 589,4.5C 588.311,3.64332 587.478,2.97665 586.5,2.5C 582.634,3.78832 578.801,3.78832 575,2.5C 574.667,3.16667 574.333,3.83333 574,4.5C 572.333,3.83333 570.667,3.16667 569,2.5C 568.333,3.16667 567.667,3.83333 567,4.5C 560.233,3.60213 553.233,3.26879 546,3.5C 544.105,3.61485 542.438,4.28151 541,5.5C 540.667,4.83333 540.333,4.16667 540,3.5C 517.556,3.80388 494.056,3.80388 469.5,3.5C 468.006,3.70919 466.839,4.37586 466,5.5C 465.692,4.69194 465.192,4.02527 464.5,3.5C 456.204,3.78163 447.704,3.78163 439,3.5C 436.703,5.42096 434.703,5.42096 433,3.5C 420.089,4.00569 407.256,4.33902 394.5,4.5C 391.46,3.31966 388.794,1.653 386.5,-0.5 Z"/></g>
<g><path style="opacity:1" fill="#f56777" d="M 718.5,-0.5 C 719.5,-0.5 720.5,-0.5 721.5,-0.5C 721.5,0.5 721.5,1.5 721.5,2.5C 720.833,2.16667 720.167,1.83333 719.5,1.5C 719.167,0.833333 718.833,0.166667 718.5,-0.5 Z"/></g>
<g><path style="opacity:1" fill="#f57973" d="M -0.5,0.5 C 1.67937,1.10321 3.84604,1.76988 6,2.5C 7.80817,2.11191 9.47483,2.11191 11,2.5C 11.3333,1.83333 11.6667,1.16667 12,0.5C 15.1525,1.59256 18.1525,2.25923 21,2.5C 22.3086,0.108816 23.3086,0.108816 24,2.5C 26.1976,0.62487 28.031,0.62487 29.5,2.5C 38.6589,1.4819 47.4922,1.4819 56,2.5C 57.5626,-0.0443383 59.0626,-0.0443383 60.5,2.5C 65.7659,1.90134 70.7659,1.90134 75.5,2.5C 76.5,1.83333 77.5,1.16667 78.5,0.5C 78.4895,1.44145 78.9895,2.10812 80,2.5C 85.7567,1.25555 91.4234,1.25555 97,2.5C 97.6667,-0.166667 98.3333,-0.166667 99,2.5C 110.37,2.42719 121.703,2.42719 133,2.5C 133.333,1.83333 133.667,1.16667 134,0.5C 135.333,3.16667 136.667,3.16667 138,0.5C 140.951,0.851638 144.118,1.5183 147.5,2.5C 150.184,1.8607 152.684,1.8607 155,2.5C 156,1.83333 157,1.16667 158,0.5C 159.791,2.51267 161.125,2.51267 162,0.5C 165,1.16667 168,1.83333 171,2.5C 182.252,2.24814 193.585,2.24814 205,2.5C 206,-0.166667 207,-0.166667 208,2.5C 209.818,0.354556 211.318,0.354556 212.5,2.5C 225.885,1.93655 239.552,1.93655 253.5,2.5C 252.833,3.5 252.167,4.5 251.5,5.5C 246.806,9.52708 242.473,13.8604 238.5,18.5C 198.946,17.6104 159.113,17.6104 119,18.5C 118.055,18.0946 117.388,17.428 117,16.5C 114.787,17.7595 112.287,18.4262 109.5,18.5C 106.713,18.4262 104.213,17.7595 102,16.5C 100.991,17.6582 99.6581,18.3248 98,18.5C 64.8317,18.5034 31.9984,18.1701 -0.5,17.5C -0.5,11.8333 -0.5,6.16667 -0.5,0.5 Z"/></g>
<g><path style="opacity:1" fill="#f58c6f" d="M 719.5,1.5 C 720.167,1.83333 720.833,2.16667 721.5,2.5C 721.5,8.16667 721.5,13.8333 721.5,19.5C 720.603,18.4019 719.77,18.4019 719,19.5C 718.667,18.8333 718.333,18.1667 718,17.5C 717.612,18.428 716.945,19.0946 716,19.5C 714.989,19.1081 714.489,18.4415 714.5,17.5C 712.88,20.0578 711.38,20.0578 710,17.5C 708.261,17.5659 706.428,18.2326 704.5,19.5C 701.812,18.8503 699.312,18.8503 697,19.5C 695.113,17.9739 694.113,15.9739 694,13.5C 692.887,14.7604 692.72,15.927 693.5,17C 692.354,17.6449 691.354,18.4783 690.5,19.5C 684.472,18.7759 678.305,18.7759 672,19.5C 669.695,19.5159 668.028,18.5159 667,16.5C 666.667,17.5 666.333,18.5 666,19.5C 664.417,19.507 662.751,19.1737 661,18.5C 658.803,20.7309 656.47,20.7309 654,18.5C 652.165,19.1193 649.999,19.286 647.5,19C 649.158,18.2747 649.658,17.108 649,15.5C 645.907,20.0242 642.073,20.6908 637.5,17.5C 636.252,18.0402 635.085,18.7069 634,19.5C 629.484,18.9249 624.817,18.9249 620,19.5C 617.177,19.5907 615.51,18.2574 615,15.5C 614.517,16.448 614.351,17.448 614.5,18.5C 612.142,19.1784 609.975,19.5117 608,19.5C 607.667,18.8333 607.333,18.1667 607,17.5C 606.326,18.5784 605.326,19.2451 604,19.5C 601.953,18.4553 599.953,18.4553 598,19.5C 597.055,19.0946 596.388,18.428 596,17.5C 595.333,18.1667 594.667,18.8333 594,19.5C 592.073,19.2393 590.073,19.2393 588,19.5C 587.055,19.0946 586.388,18.428 586,17.5C 584.667,20.1667 583.333,20.1667 582,17.5C 581,20.1667 580,20.1667 579,17.5C 576.958,18.2854 574.958,17.952 573,16.5C 572.383,17.4491 572.549,18.2825 573.5,19C 573,19.1667 572.5,19.3333 572,19.5C 570.445,18.6224 568.779,18.6224 567,19.5C 565.674,19.2451 564.674,18.5784 564,17.5C 561.827,19.901 559.494,19.901 557,17.5C 553.824,19.0585 550.657,19.7251 547.5,19.5C 546.353,19.1822 545.519,18.5156 545,17.5C 544.667,18.1667 544.333,18.8333 544,19.5C 542.004,19.0037 540.337,18.0037 539,16.5C 538,17.5 537,18.5 536,19.5C 530.948,17.8179 525.948,18.4846 521,21.5C 519,20.1667 517,20.1667 515,21.5C 513.806,20.5697 512.473,19.9031 511,19.5C 503.926,20.1934 497.426,20.5267 491.5,20.5C 489.866,20.032 488.7,19.032 488,17.5C 487,18.5 486,19.5 485,20.5C 481.49,20.6392 477.823,20.3059 474,19.5C 472,20.1667 470,20.8333 468,21.5C 466.261,20.1057 464.261,19.4391 462,19.5C 457.472,20.2227 452.805,20.2227 448,19.5C 447.692,20.3081 447.192,20.9747 446.5,21.5C 444.833,20.8333 443.167,20.1667 441.5,19.5C 435.301,20.7796 429.134,20.7796 423,19.5C 422.536,20.0944 422.369,20.7611 422.5,21.5C 421.609,20.8902 420.609,20.5569 419.5,20.5C 412.341,15.0832 404.675,10.4166 396.5,6.5C 395.833,5.83333 395.167,5.16667 394.5,4.5C 407.256,4.33902 420.089,4.00569 433,3.5C 434.703,5.42096 436.703,5.42096 439,3.5C 447.704,3.78163 456.204,3.78163 464.5,3.5C 465.192,4.02527 465.692,4.69194 466,5.5C 466.839,4.37586 468.006,3.70919 469.5,3.5C 494.056,3.80388 517.556,3.80388 540,3.5C 540.333,4.16667 540.667,4.83333 541,5.5C 542.438,4.28151 544.105,3.61485 546,3.5C 553.233,3.26879 560.233,3.60213 567,4.5C 567.667,3.83333 568.333,3.16667 569,2.5C 570.667,3.16667 572.333,3.83333 574,4.5C 574.333,3.83333 574.667,3.16667 575,2.5C 578.801,3.78832 582.634,3.78832 586.5,2.5C 587.478,2.97665 588.311,3.64332 589,4.5C 590.154,2.04264 591.488,2.04264 593,4.5C 594.667,3.16667 596.333,3.16667 598,4.5C 598.667,3.83333 599.333,3.16667 600,2.5C 603.076,3.66023 606.076,3.66023 609,2.5C 609.691,4.89118 610.691,4.89118 612,2.5C 614.893,2.95308 617.893,2.95308 621,2.5C 621.689,3.35668 622.522,4.02335 623.5,4.5C 625.07,4.30618 626.57,4.30618 628,4.5C 628.388,3.57203 629.055,2.90536 630,2.5C 631.091,4.34585 632.424,5.01252 634,4.5C 635.684,2.54062 637.684,2.54062 640,4.5C 641.101,2.60607 642.434,1.9394 644,2.5C 644.667,3.16667 645.333,3.83333 646,4.5C 647.818,2.35456 649.318,2.35456 650.5,4.5C 652.167,4.5 653.833,4.5 655.5,4.5C 657.205,2.69729 659.038,2.03062 661,2.5C 661.667,3.16667 662.333,3.83333 663,4.5C 664.674,2.99073 666.34,2.32406 668,2.5C 669.402,4.97343 670.902,4.97343 672.5,2.5C 675.034,3.78834 677.534,3.78834 680,2.5C 681.085,3.29311 682.252,3.95978 683.5,4.5C 683.489,3.55855 683.989,2.89188 685,2.5C 687.071,3.82068 689.071,4.82068 691,5.5C 694.528,4.42633 698.028,3.42633 701.5,2.5C 702.478,2.97665 703.311,3.64332 704,4.5C 706,3.16667 708,3.16667 710,4.5C 710.667,3.83333 711.333,3.16667 712,2.5C 713.25,3.57334 714.584,3.57334 716,2.5C 717.722,2.61066 717.888,3.11066 716.5,4C 717.448,4.48278 718.448,4.64945 719.5,4.5C 719.5,3.5 719.5,2.5 719.5,1.5 Z"/></g>
<g><path style="opacity:1" fill="#f6ab69" d="M 251.5,5.5 C 251.586,6.4959 251.252,7.32924 250.5,8C 253.224,8.2695 255.891,8.7695 258.5,9.5C 271.483,9.80328 283.65,9.46995 295,8.5C 297.08,10.9733 299.246,10.9733 301.5,8.5C 304.478,9.48325 307.645,9.81658 311,9.5C 315.667,8.83333 320.333,8.16667 325,7.5C 325.667,8.16667 326.333,8.83333 327,9.5C 329.26,9.3267 331.593,9.3267 334,9.5C 335.729,7.56625 337.729,7.56625 340,9.5C 343.065,8.58882 345.898,8.58882 348.5,9.5C 350.242,7.02662 352.075,7.02662 354,9.5C 361.656,9.4897 368.99,9.4897 376,9.5C 376.667,6.83333 377.333,6.83333 378,9.5C 383.978,9.45657 389.645,9.45657 395,9.5C 395.513,8.47344 396.013,7.47344 396.5,6.5C 404.675,10.4166 412.341,15.0832 419.5,20.5C 418.469,21.2485 417.302,21.9152 416,22.5C 395.024,22.2211 374.358,21.8877 354,21.5C 353.055,21.9054 352.388,22.572 352,23.5C 350.915,22.7069 349.748,22.0402 348.5,21.5C 318.223,21.2814 288.39,21.6148 259,22.5C 258.667,21.8333 258.333,21.1667 258,20.5C 255.667,21.1667 253.333,21.8333 251,22.5C 247.517,21.5127 244.183,21.5127 241,22.5C 239.698,21.9152 238.531,21.2485 237.5,20.5C 237.833,19.8333 238.167,19.1667 238.5,18.5C 242.473,13.8604 246.806,9.52708 251.5,5.5 Z"/></g>
<g><path style="opacity:1" fill="#f58072" d="M 238.5,18.5 C 238.167,19.1667 237.833,19.8333 237.5,20.5C 234.553,21.7805 232.219,23.7805 230.5,26.5C 226.779,28.3535 223.446,30.6869 220.5,33.5C 217.162,34.836 213.829,36.1693 210.5,37.5C 176.669,36.8558 143.669,36.8558 111.5,37.5C 110.459,35.0087 109.626,35.0087 109,37.5C 81.0506,36.943 53.2173,36.943 25.5,37.5C 23.3587,37.3868 21.5253,36.7201 20,35.5C 18.6667,38.1667 17.3333,38.1667 16,35.5C 15.196,36.8045 14.0293,37.4712 12.5,37.5C 8.32956,36.9187 3.99623,36.9187 -0.5,37.5C -0.5,30.8333 -0.5,24.1667 -0.5,17.5C 31.9984,18.1701 64.8317,18.5034 98,18.5C 99.6581,18.3248 100.991,17.6582 102,16.5C 104.213,17.7595 106.713,18.4262 109.5,18.5C 112.287,18.4262 114.787,17.7595 117,16.5C 117.388,17.428 118.055,18.0946 119,18.5C 159.113,17.6104 198.946,17.6104 238.5,18.5 Z"/></g>
<g><path style="opacity:1" fill="#f58671" d="M 721.5,19.5 C 721.5,24.8333 721.5,30.1667 721.5,35.5C 699.016,36.045 677.683,36.045 657.5,35.5C 656.522,35.9767 655.689,36.6433 655,37.5C 654,36.1667 653,36.1667 652,37.5C 651.692,36.6919 651.192,36.0253 650.5,35.5C 648.899,36.1654 647.399,36.4988 646,36.5C 644.684,33.972 643.517,33.972 642.5,36.5C 636.317,35.9296 630.15,35.5962 624,35.5C 623.667,36.1667 623.333,36.8333 623,37.5C 620.944,37.0391 618.611,36.3725 616,35.5C 609.283,35.6002 603.117,35.6002 597.5,35.5C 595.567,37.5638 593.4,37.5638 591,35.5C 588.703,37.421 586.703,37.421 585,35.5C 575.861,36.0743 566.861,36.0743 558,35.5C 556.209,37.5127 554.875,37.5127 554,35.5C 553.333,36.8333 552.667,36.8333 552,35.5C 549.997,37.8007 548.163,37.8007 546.5,35.5C 542.183,35.6802 537.85,36.0135 533.5,36.5C 531.902,34.0266 530.402,34.0266 529,36.5C 522.489,36.0465 516.322,35.7132 510.5,35.5C 508.971,35.5288 507.804,36.1955 507,37.5C 506.667,36.8333 506.333,36.1667 506,35.5C 501.552,36.0908 496.552,36.0908 491,35.5C 489.667,38.1667 488.333,38.1667 487,35.5C 474.085,36.6661 460.919,36.6661 447.5,35.5C 446.522,35.9767 445.689,36.6433 445,37.5C 442.667,36.8333 440.333,36.1667 438,35.5C 437.57,38.1922 437.737,40.8589 438.5,43.5C 437.131,40.038 435.464,36.7046 433.5,33.5C 431.167,29.1667 427.833,25.8333 423.5,23.5C 423.167,22.8333 422.833,22.1667 422.5,21.5C 422.369,20.7611 422.536,20.0944 423,19.5C 429.134,20.7796 435.301,20.7796 441.5,19.5C 443.167,20.1667 444.833,20.8333 446.5,21.5C 447.192,20.9747 447.692,20.3081 448,19.5C 452.805,20.2227 457.472,20.2227 462,19.5C 464.261,19.4391 466.261,20.1057 468,21.5C 470,20.8333 472,20.1667 474,19.5C 477.823,20.3059 481.49,20.6392 485,20.5C 486,19.5 487,18.5 488,17.5C 488.7,19.032 489.866,20.032 491.5,20.5C 497.426,20.5267 503.926,20.1934 511,19.5C 512.473,19.9031 513.806,20.5697 515,21.5C 517,20.1667 519,20.1667 521,21.5C 525.948,18.4846 530.948,17.8179 536,19.5C 537,18.5 538,17.5 539,16.5C 540.337,18.0037 542.004,19.0037 544,19.5C 544.333,18.8333 544.667,18.1667 545,17.5C 545.519,18.5156 546.353,19.1822 547.5,19.5C 550.657,19.7251 553.824,19.0585 557,17.5C 559.494,19.901 561.827,19.901 564,17.5C 564.674,18.5784 565.674,19.2451 567,19.5C 568.779,18.6224 570.445,18.6224 572,19.5C 572.5,19.3333 573,19.1667 573.5,19C 572.549,18.2825 572.383,17.4491 573,16.5C 574.958,17.952 576.958,18.2854 579,17.5C 580,20.1667 581,20.1667 582,17.5C 583.333,20.1667 584.667,20.1667 586,17.5C 586.388,18.428 587.055,19.0946 588,19.5C 590.073,19.2393 592.073,19.2393 594,19.5C 594.667,18.8333 595.333,18.1667 596,17.5C 596.388,18.428 597.055,19.0946 598,19.5C 599.953,18.4553 601.953,18.4553 604,19.5C 605.326,19.2451 606.326,18.5784 607,17.5C 607.333,18.1667 607.667,18.8333 608,19.5C 609.975,19.5117 612.142,19.1784 614.5,18.5C 614.351,17.448 614.517,16.448 615,15.5C 615.51,18.2574 617.177,19.5907 620,19.5C 624.817,18.9249 629.484,18.9249 634,19.5C 635.085,18.7069 636.252,18.0402 637.5,17.5C 642.073,20.6908 645.907,20.0242 649,15.5C 649.658,17.108 649.158,18.2747 647.5,19C 649.999,19.286 652.165,19.1193 654,18.5C 656.47,20.7309 658.803,20.7309 661,18.5C 662.751,19.1737 664.417,19.507 666,19.5C 666.333,18.5 666.667,17.5 667,16.5C 668.028,18.5159 669.695,19.5159 672,19.5C 678.305,18.7759 684.472,18.7759 690.5,19.5C 691.354,18.4783 692.354,17.6449 693.5,17C 692.72,15.927 692.887,14.7604 694,13.5C 694.113,15.9739 695.113,17.9739 697,19.5C 699.312,18.8503 701.812,18.8503 704.5,19.5C 706.428,18.2326 708.261,17.5659 710,17.5C 711.38,20.0578 712.88,20.0578 714.5,17.5C 714.489,18.4415 714.989,19.1081 716,19.5C 716.945,19.0946 717.612,18.428 718,17.5C 718.333,18.1667 718.667,18.8333 719,19.5C 719.77,18.4019 720.603,18.4019 721.5,19.5 Z"/></g>
<g><path style="opacity:1" fill="#f6a76a" d="M 237.5,20.5 C 238.531,21.2485 239.698,21.9152 241,22.5C 244.183,21.5127 247.517,21.5127 251,22.5C 253.333,21.8333 255.667,21.1667 258,20.5C 258.333,21.1667 258.667,21.8333 259,22.5C 288.39,21.6148 318.223,21.2814 348.5,21.5C 349.748,22.0402 350.915,22.7069 352,23.5C 352.388,22.572 353.055,21.9054 354,21.5C 374.358,21.8877 395.024,22.2211 416,22.5C 417.302,21.9152 418.469,21.2485 419.5,20.5C 420.609,20.5569 421.609,20.8902 422.5,21.5C 422.833,22.1667 423.167,22.8333 423.5,23.5C 421.816,24.9999 420.149,26.6666 418.5,28.5C 416.657,28.2448 414.657,28.0781 412.5,28C 413.654,27.0862 413.487,26.2529 412,25.5C 411.261,26.5742 410.261,27.2409 409,27.5C 407.219,27.2614 405.386,26.9281 403.5,26.5C 401.884,27.1152 400.551,28.1152 399.5,29.5C 397.833,28.6667 396.167,27.8333 394.5,27C 395.654,26.0862 395.487,25.2529 394,24.5C 392.041,26.788 389.541,28.1213 386.5,28.5C 386.687,27.1832 386.02,25.8499 384.5,24.5C 384.251,25.5821 384.085,26.9154 384,28.5C 383.586,28.9574 383.086,29.2907 382.5,29.5C 381.23,28.4378 380.063,27.4378 379,26.5C 378.751,27.624 378.251,28.624 377.5,29.5C 376.289,28.7261 376.289,27.8928 377.5,27C 375.862,27.242 374.362,28.0753 373,29.5C 372.333,25.5 371.667,25.5 371,29.5C 370.517,28.552 370.351,27.552 370.5,26.5C 369.448,26.3505 368.448,26.5172 367.5,27C 368.696,27.6543 368.696,28.1543 367.5,28.5C 366.186,27.6872 365.019,26.6872 364,25.5C 363.667,26.8333 363.333,28.1667 363,29.5C 362.311,28.6433 361.478,27.9767 360.5,27.5C 359.28,28.7111 358.113,28.7111 357,27.5C 355.983,30.028 354.816,30.028 353.5,27.5C 352.483,30.028 351.316,30.028 350,27.5C 348.676,28.8802 347.343,29.2135 346,28.5C 345.667,29.1667 345.333,29.8333 345,30.5C 343.863,29.636 342.53,28.636 341,27.5C 339.667,28.8333 338.333,28.8333 337,27.5C 335.075,29.9734 333.242,29.9734 331.5,27.5C 329.742,28.1279 328.242,29.1279 327,30.5C 325.887,29.2396 325.72,28.073 326.5,27C 325.451,26.5078 324.451,26.6744 323.5,27.5C 322.262,25.2656 320.596,24.9322 318.5,26.5C 317.214,26.1485 316.381,25.4818 316,24.5C 314.333,25.8333 312.667,27.1667 311,28.5C 309.351,27.1023 308.018,27.4356 307,29.5C 304.539,25.2745 302.873,25.6079 302,30.5C 301.667,29.1667 301.333,27.8333 301,26.5C 298.87,26.5866 296.703,26.5866 294.5,26.5C 293.522,26.9767 292.689,27.6433 292,28.5C 291.309,26.1088 290.309,26.1088 289,28.5C 288.333,25.8333 287.667,25.8333 287,28.5C 286.333,25.8333 285.667,25.8333 285,28.5C 283.667,27.8333 282.667,26.8333 282,25.5C 281.077,26.7588 280.243,28.0921 279.5,29.5C 278.904,28.2839 278.737,26.9506 279,25.5C 278,26.8333 277,28.1667 276,29.5C 276.077,28.2624 275.911,27.2624 275.5,26.5C 273.228,28.1106 271.061,29.1106 269,29.5C 268.71,27.9559 268.044,26.6226 267,25.5C 267.275,29.4832 266.275,29.4832 264,25.5C 263.085,26.3279 262.419,27.3279 262,28.5C 261.667,27.5 261.333,26.5 261,25.5C 259.345,25.8024 258.012,27.1358 257,29.5C 255.49,27.7923 253.99,26.1256 252.5,24.5C 251.52,25.9814 250.353,27.3147 249,28.5C 248.612,27.572 247.945,26.9054 247,26.5C 242.956,29.4246 239.623,28.758 237,24.5C 236.667,26.0468 237.167,27.3801 238.5,28.5C 238.167,28.8333 237.833,29.1667 237.5,29.5C 236.833,28.8333 236.167,28.1667 235.5,27.5C 234.11,29.2029 232.61,29.8696 231,29.5C 230.517,28.552 230.351,27.552 230.5,26.5C 232.219,23.7805 234.553,21.7805 237.5,20.5 Z"/></g>
<g><path style="opacity:1" fill="#f6a46b" d="M 423.5,23.5 C 427.833,25.8333 431.167,29.1667 433.5,33.5C 432.389,34.643 431.223,35.643 430,36.5C 429.309,34.1088 428.309,34.1088 427,36.5C 426.667,35.8333 426.333,35.1667 426,34.5C 423.729,36.4337 421.729,36.4337 420,34.5C 418.34,34.3241 416.674,34.9907 415,36.5C 414.311,35.6433 413.478,34.9767 412.5,34.5C 397.945,35.2414 383.445,35.2414 369,34.5C 368.667,35.1667 368.333,35.8333 368,36.5C 365.537,36.7489 363.87,36.0822 363,34.5C 360.551,34.8613 358.218,35.528 356,36.5C 355.667,35.8333 355.333,35.1667 355,34.5C 353.225,37.0443 351.392,37.0443 349.5,34.5C 348.522,34.9767 347.689,35.6433 347,36.5C 345.434,37.0606 344.101,36.3939 343,34.5C 341.192,34.8881 339.525,34.8881 338,34.5C 337.333,37.1667 336.667,37.1667 336,34.5C 327.133,35.7669 318.299,35.7669 309.5,34.5C 308.483,37.028 307.316,37.028 306,34.5C 304.434,33.9394 303.101,34.6061 302,36.5C 301.692,35.6919 301.192,35.0253 300.5,34.5C 298.833,35.8333 297.167,35.8333 295.5,34.5C 294.522,34.9767 293.689,35.6433 293,36.5C 292.311,35.6433 291.478,34.9767 290.5,34.5C 289.033,35.6953 287.533,35.6953 286,34.5C 284.548,36.8253 282.881,36.8253 281,34.5C 278.522,35.4467 276.188,35.4467 274,34.5C 272.667,37.1667 271.333,37.1667 270,34.5C 267.812,35.4467 265.478,35.4467 263,34.5C 261,37.1667 259,37.1667 257,34.5C 249.391,35.6491 241.724,35.6491 234,34.5C 233.055,34.9054 232.388,35.572 232,36.5C 231.311,35.6433 230.478,34.9767 229.5,34.5C 226.514,34.6814 223.514,35.0147 220.5,35.5C 219.537,35.0302 219.537,34.3635 220.5,33.5C 223.446,30.6869 226.779,28.3535 230.5,26.5C 230.351,27.552 230.517,28.552 231,29.5C 232.61,29.8696 234.11,29.2029 235.5,27.5C 236.167,28.1667 236.833,28.8333 237.5,29.5C 237.833,29.1667 238.167,28.8333 238.5,28.5C 237.167,27.3801 236.667,26.0468 237,24.5C 239.623,28.758 242.956,29.4246 247,26.5C 247.945,26.9054 248.612,27.572 249,28.5C 250.353,27.3147 251.52,25.9814 252.5,24.5C 253.99,26.1256 255.49,27.7923 257,29.5C 258.012,27.1358 259.345,25.8024 261,25.5C 261.333,26.5 261.667,27.5 262,28.5C 262.419,27.3279 263.085,26.3279 264,25.5C 266.275,29.4832 267.275,29.4832 267,25.5C 268.044,26.6226 268.71,27.9559 269,29.5C 271.061,29.1106 273.228,28.1106 275.5,26.5C 275.911,27.2624 276.077,28.2624 276,29.5C 277,28.1667 278,26.8333 279,25.5C 278.737,26.9506 278.904,28.2839 279.5,29.5C 280.243,28.0921 281.077,26.7588 282,25.5C 282.667,26.8333 283.667,27.8333 285,28.5C 285.667,25.8333 286.333,25.8333 287,28.5C 287.667,25.8333 288.333,25.8333 289,28.5C 290.309,26.1088 291.309,26.1088 292,28.5C 292.689,27.6433 293.522,26.9767 294.5,26.5C 296.703,26.5866 298.87,26.5866 301,26.5C 301.333,27.8333 301.667,29.1667 302,30.5C 302.873,25.6079 304.539,25.2745 307,29.5C 308.018,27.4356 309.351,27.1023 311,28.5C 312.667,27.1667 314.333,25.8333 316,24.5C 316.381,25.4818 317.214,26.1485 318.5,26.5C 320.596,24.9322 322.262,25.2656 323.5,27.5C 324.451,26.6744 325.451,26.5078 326.5,27C 325.72,28.073 325.887,29.2396 327,30.5C 328.242,29.1279 329.742,28.1279 331.5,27.5C 333.242,29.9734 335.075,29.9734 337,27.5C 338.333,28.8333 339.667,28.8333 341,27.5C 342.53,28.636 343.863,29.636 345,30.5C 345.333,29.8333 345.667,29.1667 346,28.5C 347.343,29.2135 348.676,28.8802 350,27.5C 351.316,30.028 352.483,30.028 353.5,27.5C 354.816,30.028 355.983,30.028 357,27.5C 358.113,28.7111 359.28,28.7111 360.5,27.5C 361.478,27.9767 362.311,28.6433 363,29.5C 363.333,28.1667 363.667,26.8333 364,25.5C 365.019,26.6872 366.186,27.6872 367.5,28.5C 368.696,28.1543 368.696,27.6543 367.5,27C 368.448,26.5172 369.448,26.3505 370.5,26.5C 370.351,27.552 370.517,28.552 371,29.5C 371.667,25.5 372.333,25.5 373,29.5C 374.362,28.0753 375.862,27.242 377.5,27C 376.289,27.8928 376.289,28.7261 377.5,29.5C 378.251,28.624 378.751,27.624 379,26.5C 380.063,27.4378 381.23,28.4378 382.5,29.5C 383.086,29.2907 383.586,28.9574 384,28.5C 384.085,26.9154 384.251,25.5821 384.5,24.5C 386.02,25.8499 386.687,27.1832 386.5,28.5C 389.541,28.1213 392.041,26.788 394,24.5C 395.487,25.2529 395.654,26.0862 394.5,27C 396.167,27.8333 397.833,28.6667 399.5,29.5C 400.551,28.1152 401.884,27.1152 403.5,26.5C 405.386,26.9281 407.219,27.2614 409,27.5C 410.261,27.2409 411.261,26.5742 412,25.5C 413.487,26.2529 413.654,27.0862 412.5,28C 414.657,28.0781 416.657,28.2448 418.5,28.5C 420.149,26.6666 421.816,24.9999 423.5,23.5 Z"/></g>
<g><path style="opacity:1" fill="#f69f6b" d="M 220.5,33.5 C 219.537,34.3635 219.537,35.0302 220.5,35.5C 223.514,35.0147 226.514,34.6814 229.5,34.5C 230.478,34.9767 231.311,35.6433 232,36.5C 232.388,35.572 233.055,34.9054 234,34.5C 241.724,35.6491 249.391,35.6491 257,34.5C 259,37.1667 261,37.1667 263,34.5C 265.478,35.4467 267.812,35.4467 270,34.5C 271.333,37.1667 272.667,37.1667 274,34.5C 276.188,35.4467 278.522,35.4467 281,34.5C 282.881,36.8253 284.548,36.8253 286,34.5C 287.533,35.6953 289.033,35.6953 290.5,34.5C 291.478,34.9767 292.311,35.6433 293,36.5C 293.689,35.6433 294.522,34.9767 295.5,34.5C 297.167,35.8333 298.833,35.8333 300.5,34.5C 301.192,35.0253 301.692,35.6919 302,36.5C 303.101,34.6061 304.434,33.9394 306,34.5C 307.316,37.028 308.483,37.028 309.5,34.5C 318.299,35.7669 327.133,35.7669 336,34.5C 336.667,37.1667 337.333,37.1667 338,34.5C 339.525,34.8881 341.192,34.8881 343,34.5C 344.101,36.3939 345.434,37.0606 347,36.5C 347.689,35.6433 348.522,34.9767 349.5,34.5C 351.392,37.0443 353.225,37.0443 355,34.5C 355.333,35.1667 355.667,35.8333 356,36.5C 358.218,35.528 360.551,34.8613 363,34.5C 363.87,36.0822 365.537,36.7489 368,36.5C 368.333,35.8333 368.667,35.1667 369,34.5C 383.445,35.2414 397.945,35.2414 412.5,34.5C 413.478,34.9767 414.311,35.6433 415,36.5C 416.674,34.9907 418.34,34.3241 420,34.5C 421.729,36.4337 423.729,36.4337 426,34.5C 426.333,35.1667 426.667,35.8333 427,36.5C 428.309,34.1088 429.309,34.1088 430,36.5C 431.223,35.643 432.389,34.643 433.5,33.5C 435.464,36.7046 437.131,40.038 438.5,43.5C 439.434,44.5676 439.768,45.901 439.5,47.5C 438.469,48.2485 437.302,48.9152 436,49.5C 433.022,49.6719 430.022,49.0053 427,47.5C 425,48.1667 423,48.8333 421,49.5C 419.244,48.4519 417.41,48.4519 415.5,49.5C 413.945,49.278 412.611,48.6113 411.5,47.5C 405.681,48.5931 400.181,48.5931 395,47.5C 393.667,50.1667 392.333,50.1667 391,47.5C 389.112,49.9223 387.112,49.9223 385,47.5C 384.667,48.1667 384.333,48.8333 384,49.5C 381.849,49.7255 379.683,49.0588 377.5,47.5C 374.141,48.1903 370.975,48.1903 368,47.5C 366.428,49.5894 364.595,49.5894 362.5,47.5C 360.622,47.6225 358.789,47.6225 357,47.5C 355.271,49.4337 353.271,49.4337 351,47.5C 349.667,48.1667 348.333,48.8333 347,49.5C 346.309,47.1088 345.309,47.1088 344,49.5C 339.333,48.8333 334.667,48.1667 330,47.5C 328.667,47.5 327.333,47.5 326,47.5C 323.535,49.4253 320.868,49.4253 318,47.5C 317.692,48.3081 317.192,48.9747 316.5,49.5C 316.511,48.5585 316.011,47.8919 315,47.5C 313.56,48.6071 312.06,48.6071 310.5,47.5C 307.55,49.3818 304.384,49.3818 301,47.5C 297.791,49.3122 294.791,49.3122 292,47.5C 287.982,47.8154 283.815,48.4821 279.5,49.5C 278.167,48.8333 276.833,48.1667 275.5,47.5C 269.836,48.3347 264.003,48.3347 258,47.5C 255.803,49.7309 253.47,49.7309 251,47.5C 250.125,49.5127 248.791,49.5127 247,47.5C 246.333,48.1667 245.667,48.8333 245,49.5C 244.333,48.1667 243.667,48.1667 243,49.5C 242.309,47.1088 241.309,47.1088 240,49.5C 238.846,47.0426 237.512,47.0426 236,49.5C 235.667,48.8333 235.333,48.1667 235,47.5C 218.018,47.5179 202.518,47.5179 188.5,47.5C 186.941,48.0736 185.441,48.7402 184,49.5C 180.893,49.0469 177.893,49.0469 175,49.5C 174.536,48.9056 174.369,48.2389 174.5,47.5C 187.015,45.7069 199.015,42.3735 210.5,37.5C 213.829,36.1693 217.162,34.836 220.5,33.5 Z"/></g>
<g><path style="opacity:1" fill="#f58072" d="M 721.5,35.5 C 721.5,41.8333 721.5,48.1667 721.5,54.5C 716.322,55.4725 710.656,55.4725 704.5,54.5C 702.626,54.3898 701.126,55.0564 700,56.5C 699.692,55.6919 699.192,55.0253 698.5,54.5C 684.787,55.7384 670.62,55.7384 656,54.5C 654.667,57.1667 653.333,57.1667 652,54.5C 650.542,55.7468 649.042,55.7468 647.5,54.5C 646.808,55.0253 646.308,55.6919 646,56.5C 643.432,54.364 641.098,54.364 639,56.5C 637.39,56.8696 635.89,56.2029 634.5,54.5C 631.812,55.1312 629.312,55.1312 627,54.5C 626.333,57.1667 625.667,57.1667 625,54.5C 623.297,56.421 621.297,56.421 619,54.5C 604.906,54.3912 590.239,54.7245 575,55.5C 572.923,54.9828 570.923,54.3161 569,53.5C 568.612,54.428 567.945,55.0946 567,55.5C 565.212,54.6995 563.545,54.3662 562,54.5C 561.333,57.1667 560.667,57.1667 560,54.5C 557.492,54.8166 554.659,54.8166 551.5,54.5C 548.259,56.4454 545.259,56.4454 542.5,54.5C 538.642,55.3072 534.642,55.3072 530.5,54.5C 529.808,55.0253 529.308,55.6919 529,56.5C 526.204,55.7887 523.37,55.122 520.5,54.5C 519.031,56.3751 517.198,56.3751 515,54.5C 512.132,56.4253 509.465,56.4253 507,54.5C 505.501,56.7562 503.834,56.7562 502,54.5C 500.109,54.7184 498.276,54.7184 496.5,54.5C 494.674,56.7808 492.674,56.7808 490.5,54.5C 486.765,54.6513 482.932,55.318 479,56.5C 467.29,55.722 455.79,55.3887 444.5,55.5C 444.5,56.5 444.5,57.5 444.5,58.5C 442.686,54.9375 441.02,51.2708 439.5,47.5C 439.768,45.901 439.434,44.5676 438.5,43.5C 437.737,40.8589 437.57,38.1922 438,35.5C 440.333,36.1667 442.667,36.8333 445,37.5C 445.689,36.6433 446.522,35.9767 447.5,35.5C 460.919,36.6661 474.085,36.6661 487,35.5C 488.333,38.1667 489.667,38.1667 491,35.5C 496.552,36.0908 501.552,36.0908 506,35.5C 506.333,36.1667 506.667,36.8333 507,37.5C 507.804,36.1955 508.971,35.5288 510.5,35.5C 516.322,35.7132 522.489,36.0465 529,36.5C 530.402,34.0266 531.902,34.0266 533.5,36.5C 537.85,36.0135 542.183,35.6802 546.5,35.5C 548.163,37.8007 549.997,37.8007 552,35.5C 552.667,36.8333 553.333,36.8333 554,35.5C 554.875,37.5127 556.209,37.5127 558,35.5C 566.861,36.0743 575.861,36.0743 585,35.5C 586.703,37.421 588.703,37.421 591,35.5C 593.4,37.5638 595.567,37.5638 597.5,35.5C 603.117,35.6002 609.283,35.6002 616,35.5C 618.611,36.3725 620.944,37.0391 623,37.5C 623.333,36.8333 623.667,36.1667 624,35.5C 630.15,35.5962 636.317,35.9296 642.5,36.5C 643.517,33.972 644.684,33.972 646,36.5C 647.399,36.4988 648.899,36.1654 650.5,35.5C 651.192,36.0253 651.692,36.6919 652,37.5C 653,36.1667 654,36.1667 655,37.5C 655.689,36.6433 656.522,35.9767 657.5,35.5C 677.683,36.045 699.016,36.045 721.5,35.5 Z"/></g>
<g><path style="opacity:1" fill="#f58671" d="M 210.5,37.5 C 199.015,42.3735 187.015,45.7069 174.5,47.5C 164.158,49.5018 153.824,51.5018 143.5,53.5C 119.504,53.4172 95.6708,53.4172 72,53.5C 71.0546,53.0946 70.3879,52.428 70,51.5C 68.4747,52.7201 66.6413,53.3868 64.5,53.5C 42.6365,53.3121 20.9698,53.3121 -0.5,53.5C -0.5,48.1667 -0.5,42.8333 -0.5,37.5C 3.99623,36.9187 8.32956,36.9187 12.5,37.5C 14.0293,37.4712 15.196,36.8045 16,35.5C 17.3333,38.1667 18.6667,38.1667 20,35.5C 21.5253,36.7201 23.3587,37.3868 25.5,37.5C 53.2173,36.943 81.0506,36.943 109,37.5C 109.626,35.0087 110.459,35.0087 111.5,37.5C 143.669,36.8558 176.669,36.8558 210.5,37.5 Z"/></g>
<g><path style="opacity:1" fill="#f6986d" d="M 174.5,47.5 C 174.369,48.2389 174.536,48.9056 175,49.5C 177.893,49.0469 180.893,49.0469 184,49.5C 185.441,48.7402 186.941,48.0736 188.5,47.5C 202.518,47.5179 218.018,47.5179 235,47.5C 235.333,48.1667 235.667,48.8333 236,49.5C 237.512,47.0426 238.846,47.0426 240,49.5C 241.309,47.1088 242.309,47.1088 243,49.5C 243.667,48.1667 244.333,48.1667 245,49.5C 245.667,48.8333 246.333,48.1667 247,47.5C 248.791,49.5127 250.125,49.5127 251,47.5C 253.47,49.7309 255.803,49.7309 258,47.5C 264.003,48.3347 269.836,48.3347 275.5,47.5C 276.833,48.1667 278.167,48.8333 279.5,49.5C 283.815,48.4821 287.982,47.8154 292,47.5C 294.791,49.3122 297.791,49.3122 301,47.5C 304.384,49.3818 307.55,49.3818 310.5,47.5C 312.06,48.6071 313.56,48.6071 315,47.5C 316.011,47.8919 316.511,48.5585 316.5,49.5C 317.192,48.9747 317.692,48.3081 318,47.5C 320.868,49.4253 323.535,49.4253 326,47.5C 327.333,47.5 328.667,47.5 330,47.5C 334.667,48.1667 339.333,48.8333 344,49.5C 345.309,47.1088 346.309,47.1088 347,49.5C 348.333,48.8333 349.667,48.1667 351,47.5C 353.271,49.4337 355.271,49.4337 357,47.5C 358.789,47.6225 360.622,47.6225 362.5,47.5C 364.595,49.5894 366.428,49.5894 368,47.5C 370.975,48.1903 374.141,48.1903 377.5,47.5C 379.683,49.0588 381.849,49.7255 384,49.5C 384.333,48.8333 384.667,48.1667 385,47.5C 387.112,49.9223 389.112,49.9223 391,47.5C 392.333,50.1667 393.667,50.1667 395,47.5C 400.181,48.5931 405.681,48.5931 411.5,47.5C 412.611,48.6113 413.945,49.278 415.5,49.5C 417.41,48.4519 419.244,48.4519 421,49.5C 423,48.8333 425,48.1667 427,47.5C 430.022,49.0053 433.022,49.6719 436,49.5C 437.302,48.9152 438.469,48.2485 439.5,47.5C 441.02,51.2708 442.686,54.9375 444.5,58.5C 445.338,58.8417 445.672,59.5084 445.5,60.5C 445.459,62.7453 444.625,63.4119 443,62.5C 442,63.1667 441,63.8333 440,64.5C 438.887,63.2889 437.72,63.2889 436.5,64.5C 435.522,64.0233 434.689,63.3567 434,62.5C 432.667,62.5 431.333,62.5 430,62.5C 429.667,63.1667 429.333,63.8333 429,64.5C 426.457,64.3651 423.79,63.6985 421,62.5C 417.635,64.8497 414.635,64.8497 412,62.5C 402.17,63.3518 392.504,64.0185 383,64.5C 381,61.8333 379,61.8333 377,64.5C 376.667,63.8333 376.333,63.1667 376,62.5C 375.311,63.3567 374.478,64.0233 373.5,64.5C 354.267,64.7259 334.934,64.3926 315.5,63.5C 313.813,63.7605 312.313,64.4272 311,65.5C 310.667,64.8333 310.333,64.1667 310,63.5C 308.732,63.6158 307.398,63.9491 306,64.5C 303.333,63.8333 300.667,63.1667 298,62.5C 297,63.1667 296,63.8333 295,64.5C 285.781,63.5352 276.448,63.5352 267,64.5C 266.667,63.8333 266.333,63.1667 266,62.5C 262.667,63.1667 259.333,63.8333 256,64.5C 252.77,63.8943 249.603,63.5609 246.5,63.5C 245.808,64.0253 245.308,64.6919 245,65.5C 243.82,64.3159 242.32,63.6493 240.5,63.5C 229.84,63.3751 219.34,63.7084 209,64.5C 208.026,62.1224 207.359,62.4557 207,65.5C 204.614,62.2205 201.947,62.2205 199,65.5C 198.667,64.8333 198.333,64.1667 198,63.5C 195.959,63.3573 193.792,63.6906 191.5,64.5C 190.252,63.9598 189.085,63.2931 188,62.5C 186.34,62.3241 184.674,62.9907 183,64.5C 181.887,63.2889 180.72,63.2889 179.5,64.5C 178.522,64.0233 177.689,63.3567 177,62.5C 175.667,62.5 174.333,62.5 173,62.5C 172.667,63.1667 172.333,63.8333 172,64.5C 169.457,64.3651 166.79,63.6985 164,62.5C 162.559,63.2598 161.059,63.9264 159.5,64.5C 148.823,63.8537 137.99,63.8537 127,64.5C 125.378,63.9011 123.878,63.2344 122.5,62.5C 129.418,59.3052 136.418,56.3052 143.5,53.5C 153.824,51.5018 164.158,49.5018 174.5,47.5 Z"/></g>
<g><path style="opacity:1" fill="#f57973" d="M 721.5,54.5 C 721.5,60.1667 721.5,65.8333 721.5,71.5C 720.85,71.1961 720.183,70.8627 719.5,70.5C 718.23,71.5622 717.063,72.5622 716,73.5C 714.196,69.9316 711.863,69.5983 709,72.5C 707.434,73.0606 706.101,72.3939 705,70.5C 701.667,70.5 698.333,70.5 695,70.5C 694.667,71.5 694.333,72.5 694,73.5C 691.661,70.8951 689.328,70.5618 687,72.5C 686.333,71.8333 685.667,71.1667 685,70.5C 682.789,70.6225 680.622,70.6225 678.5,70.5C 677.522,70.9767 676.689,71.6433 676,72.5C 673.667,71.1667 671.333,71.1667 669,72.5C 665.457,70.3079 661.457,70.3079 657,72.5C 655.333,71.8333 653.667,71.1667 652,70.5C 646,71.8333 640,71.8333 634,70.5C 632.333,71.1667 630.667,71.8333 629,72.5C 627.204,71.233 625.371,71.233 623.5,72.5C 623.167,71.8333 622.833,71.1667 622.5,70.5C 619.186,71.1308 615.686,71.1308 612,70.5C 611.333,71.1667 610.667,71.8333 610,72.5C 607.988,72.4754 605.988,72.4754 604,72.5C 602.739,72.2409 601.739,71.5742 601,70.5C 600.667,71.1667 600.333,71.8333 600,72.5C 599,71.1667 598,71.1667 597,72.5C 596.692,71.6919 596.192,71.0253 595.5,70.5C 594.452,71.3829 593.285,72.0496 592,72.5C 588.953,71.249 585.953,71.249 583,72.5C 582.692,71.6919 582.192,71.0253 581.5,70.5C 574.91,71.2472 568.91,71.2472 563.5,70.5C 562.808,71.0253 562.308,71.6919 562,72.5C 560.34,72.6759 558.674,72.0093 557,70.5C 555.691,72.8912 554.691,72.8912 554,70.5C 553.667,71.1667 553.333,71.8333 553,72.5C 552.612,71.572 551.945,70.9054 551,70.5C 549.85,71.4239 548.85,71.4239 548,70.5C 547.374,72.9913 546.541,72.9913 545.5,70.5C 542.448,71.3107 539.615,71.3107 537,70.5C 534.667,71.1667 532.333,71.8333 530,72.5C 528,69.8333 526,69.8333 524,72.5C 523.029,71.8016 521.863,71.8016 520.5,72.5C 518.018,70.5638 515.352,69.8972 512.5,70.5C 511.252,71.0402 510.085,71.7069 509,72.5C 507.806,71.5697 506.473,70.9031 505,70.5C 497.852,71.5103 490.852,72.1769 484,72.5C 483.055,72.0946 482.388,71.428 482,70.5C 481.259,71.6405 480.425,71.6405 479.5,70.5C 478.459,72.9913 477.626,72.9913 477,70.5C 476.333,73.1667 475.667,73.1667 475,70.5C 474.333,71.1667 473.667,71.8333 473,72.5C 469.091,71.7065 465.091,71.3732 461,71.5C 460.667,72.1667 460.333,72.8333 460,73.5C 458.933,71.7174 457.433,71.2174 455.5,72C 456.056,72.3826 456.389,72.8826 456.5,73.5C 454.629,73.1412 453.129,72.1412 452,70.5C 449.56,67.2722 447.394,63.9389 445.5,60.5C 445.672,59.5084 445.338,58.8417 444.5,58.5C 444.5,57.5 444.5,56.5 444.5,55.5C 455.79,55.3887 467.29,55.722 479,56.5C 482.932,55.318 486.765,54.6513 490.5,54.5C 492.674,56.7808 494.674,56.7808 496.5,54.5C 498.276,54.7184 500.109,54.7184 502,54.5C 503.834,56.7562 505.501,56.7562 507,54.5C 509.465,56.4253 512.132,56.4253 515,54.5C 517.198,56.3751 519.031,56.3751 520.5,54.5C 523.37,55.122 526.204,55.7887 529,56.5C 529.308,55.6919 529.808,55.0253 530.5,54.5C 534.642,55.3072 538.642,55.3072 542.5,54.5C 545.259,56.4454 548.259,56.4454 551.5,54.5C 554.659,54.8166 557.492,54.8166 560,54.5C 560.667,57.1667 561.333,57.1667 562,54.5C 563.545,54.3662 565.212,54.6995 567,55.5C 567.945,55.0946 568.612,54.428 569,53.5C 570.923,54.3161 572.923,54.9828 575,55.5C 590.239,54.7245 604.906,54.3912 619,54.5C 621.297,56.421 623.297,56.421 625,54.5C 625.667,57.1667 626.333,57.1667 627,54.5C 629.312,55.1312 631.812,55.1312 634.5,54.5C 635.89,56.2029 637.39,56.8696 639,56.5C 641.098,54.364 643.432,54.364 646,56.5C 646.308,55.6919 646.808,55.0253 647.5,54.5C 649.042,55.7468 650.542,55.7468 652,54.5C 653.333,57.1667 654.667,57.1667 656,54.5C 670.62,55.7384 684.787,55.7384 698.5,54.5C 699.192,55.0253 699.692,55.6919 700,56.5C 701.126,55.0564 702.626,54.3898 704.5,54.5C 710.656,55.4725 716.322,55.4725 721.5,54.5 Z"/></g>
<g><path style="opacity:1" fill="#f58c70" d="M 143.5,53.5 C 136.418,56.3052 129.418,59.3052 122.5,62.5C 118.289,64.5313 114.456,67.198 111,70.5C 89.5126,69.7609 69.1793,69.7609 50,70.5C 49,69.8333 48,69.1667 47,68.5C 42.0334,69.4563 36.8667,69.4563 31.5,68.5C 29.6841,71.0643 27.8508,71.0643 26,68.5C 25.3333,69.1667 24.6667,69.8333 24,70.5C 20.7659,69.9896 17.2659,69.9896 13.5,70.5C 11.2674,70.1355 9.43403,69.1355 8,67.5C 7.75083,68.624 7.25083,69.624 6.5,70.5C 4.37142,69.7429 2.03808,69.7429 -0.5,70.5C -0.5,64.8333 -0.5,59.1667 -0.5,53.5C 20.9698,53.3121 42.6365,53.3121 64.5,53.5C 66.6413,53.3868 68.4747,52.7201 70,51.5C 70.3879,52.428 71.0546,53.0946 72,53.5C 95.6708,53.4172 119.504,53.4172 143.5,53.5 Z"/></g>
<g><path style="opacity:1" fill="#f6926e" d="M 445.5,60.5 C 447.394,63.9389 449.56,67.2722 452,70.5C 453.129,72.1412 454.629,73.1412 456.5,73.5C 456.833,74.1667 457.167,74.8333 457.5,75.5C 455.444,76.2161 453.277,76.8828 451,77.5C 449.667,76.1667 448.333,76.1667 447,77.5C 445,74.8333 443,74.8333 441,77.5C 439.667,76.8333 438.333,76.1667 437,75.5C 433.667,76.1667 430.333,76.8333 427,77.5C 415.434,76.5263 403.768,76.5263 392,77.5C 390.209,75.4873 388.875,75.4873 388,77.5C 386.417,77.507 384.751,77.1737 383,76.5C 381.667,79.1667 380.333,79.1667 379,76.5C 376.812,77.4467 374.478,77.4467 372,76.5C 370.119,78.8253 368.452,78.8253 367,76.5C 355.543,76.57 344.043,76.57 332.5,76.5C 331.006,76.7092 329.839,77.3759 329,78.5C 327.82,77.3159 326.32,76.6493 324.5,76.5C 310.363,77.5196 295.863,77.5196 281,76.5C 279.739,76.7591 278.739,77.4258 278,78.5C 276.908,75.0142 275.075,74.6809 272.5,77.5C 266.906,77.3555 261.406,77.3555 256,77.5C 255.333,76.8333 254.667,76.1667 254,75.5C 252.333,76.1667 250.667,76.8333 249,77.5C 243.539,76.6391 238.206,76.6391 233,77.5C 228.168,75.6434 223.168,75.6434 218,77.5C 211.665,76.8803 204.998,76.547 198,76.5C 196.674,76.7549 195.674,77.4216 195,78.5C 194.261,77.4258 193.261,76.7591 192,76.5C 189.394,76.4785 186.727,76.8118 184,77.5C 182.667,76.8333 181.333,76.1667 180,75.5C 176.667,76.1667 173.333,76.8333 170,77.5C 148.572,76.728 127.905,76.3946 108,76.5C 105.013,80.1468 102.846,84.1468 101.5,88.5C 101.25,87.0779 100.417,86.0779 99,85.5C 65.4865,85.5204 32.3198,85.8537 -0.5,86.5C -0.5,81.1667 -0.5,75.8333 -0.5,70.5C 2.03808,69.7429 4.37142,69.7429 6.5,70.5C 7.25083,69.624 7.75083,68.624 8,67.5C 9.43403,69.1355 11.2674,70.1355 13.5,70.5C 17.2659,69.9896 20.7659,69.9896 24,70.5C 24.6667,69.8333 25.3333,69.1667 26,68.5C 27.8508,71.0643 29.6841,71.0643 31.5,68.5C 36.8667,69.4563 42.0334,69.4563 47,68.5C 48,69.1667 49,69.8333 50,70.5C 69.1793,69.7609 89.5126,69.7609 111,70.5C 114.456,67.198 118.289,64.5313 122.5,62.5C 123.878,63.2344 125.378,63.9011 127,64.5C 137.99,63.8537 148.823,63.8537 159.5,64.5C 161.059,63.9264 162.559,63.2598 164,62.5C 166.79,63.6985 169.457,64.3651 172,64.5C 172.333,63.8333 172.667,63.1667 173,62.5C 174.333,62.5 175.667,62.5 177,62.5C 177.689,63.3567 178.522,64.0233 179.5,64.5C 180.72,63.2889 181.887,63.2889 183,64.5C 184.674,62.9907 186.34,62.3241 188,62.5C 189.085,63.2931 190.252,63.9598 191.5,64.5C 193.792,63.6906 195.959,63.3573 198,63.5C 198.333,64.1667 198.667,64.8333 199,65.5C 201.947,62.2205 204.614,62.2205 207,65.5C 207.359,62.4557 208.026,62.1224 209,64.5C 219.34,63.7084 229.84,63.3751 240.5,63.5C 242.32,63.6493 243.82,64.3159 245,65.5C 245.308,64.6919 245.808,64.0253 246.5,63.5C 249.603,63.5609 252.77,63.8943 256,64.5C 259.333,63.8333 262.667,63.1667 266,62.5C 266.333,63.1667 266.667,63.8333 267,64.5C 276.448,63.5352 285.781,63.5352 295,64.5C 296,63.8333 297,63.1667 298,62.5C 300.667,63.1667 303.333,63.8333 306,64.5C 307.398,63.9491 308.732,63.6158 310,63.5C 310.333,64.1667 310.667,64.8333 311,65.5C 312.313,64.4272 313.813,63.7605 315.5,63.5C 334.934,64.3926 354.267,64.7259 373.5,64.5C 374.478,64.0233 375.311,63.3567 376,62.5C 376.333,63.1667 376.667,63.8333 377,64.5C 379,61.8333 381,61.8333 383,64.5C 392.504,64.0185 402.17,63.3518 412,62.5C 414.635,64.8497 417.635,64.8497 421,62.5C 423.79,63.6985 426.457,64.3651 429,64.5C 429.333,63.8333 429.667,63.1667 430,62.5C 431.333,62.5 432.667,62.5 434,62.5C 434.689,63.3567 435.522,64.0233 436.5,64.5C 437.72,63.2889 438.887,63.2889 440,64.5C 441,63.8333 442,63.1667 443,62.5C 444.625,63.4119 445.459,62.7453 445.5,60.5 Z"/></g>
<g><path style="opacity:1" fill="#f57375" d="M 721.5,71.5 C 721.5,76.8333 721.5,82.1667 721.5,87.5C 719.234,87.1412 717.401,87.8078 716,89.5C 715.667,88.8333 715.333,88.1667 715,87.5C 703.463,87.9425 691.963,87.9425 680.5,87.5C 679.483,90.028 678.316,90.028 677,87.5C 668.039,88.2441 658.872,88.2441 649.5,87.5C 647.945,87.722 646.611,88.3887 645.5,89.5C 644.522,89.0233 643.689,88.3567 643,87.5C 642.667,88.1667 642.333,88.8333 642,89.5C 640.687,88.4272 639.187,87.7605 637.5,87.5C 633.022,88.9087 628.522,88.5753 624,86.5C 623.667,87.1667 623.333,87.8333 623,88.5C 615.727,87.6882 608.061,87.3548 600,87.5C 598.019,87.6292 596.353,88.2958 595,89.5C 593.846,87.0426 592.512,87.0426 591,89.5C 590.667,88.8333 590.333,88.1667 590,87.5C 557.942,88.7174 525.609,88.7174 493,87.5C 492.055,87.9054 491.388,88.572 491,89.5C 490.333,88.8333 489.667,88.1667 489,87.5C 488.15,88.4239 487.15,88.4239 486,87.5C 484.699,87.6387 483.866,88.3054 483.5,89.5C 482.167,88.8333 480.833,88.1667 479.5,87.5C 471.874,84.0205 464.54,80.0205 457.5,75.5C 457.167,74.8333 456.833,74.1667 456.5,73.5C 456.389,72.8826 456.056,72.3826 455.5,72C 457.433,71.2174 458.933,71.7174 460,73.5C 460.333,72.8333 460.667,72.1667 461,71.5C 465.091,71.3732 469.091,71.7065 473,72.5C 473.667,71.8333 474.333,71.1667 475,70.5C 475.667,73.1667 476.333,73.1667 477,70.5C 477.626,72.9913 478.459,72.9913 479.5,70.5C 480.425,71.6405 481.259,71.6405 482,70.5C 482.388,71.428 483.055,72.0946 484,72.5C 490.852,72.1769 497.852,71.5103 505,70.5C 506.473,70.9031 507.806,71.5697 509,72.5C 510.085,71.7069 511.252,71.0402 512.5,70.5C 515.352,69.8972 518.018,70.5638 520.5,72.5C 521.863,71.8016 523.029,71.8016 524,72.5C 526,69.8333 528,69.8333 530,72.5C 532.333,71.8333 534.667,71.1667 537,70.5C 539.615,71.3107 542.448,71.3107 545.5,70.5C 546.541,72.9913 547.374,72.9913 548,70.5C 548.85,71.4239 549.85,71.4239 551,70.5C 551.945,70.9054 552.612,71.572 553,72.5C 553.333,71.8333 553.667,71.1667 554,70.5C 554.691,72.8912 555.691,72.8912 557,70.5C 558.674,72.0093 560.34,72.6759 562,72.5C 562.308,71.6919 562.808,71.0253 563.5,70.5C 568.91,71.2472 574.91,71.2472 581.5,70.5C 582.192,71.0253 582.692,71.6919 583,72.5C 585.953,71.249 588.953,71.249 592,72.5C 593.285,72.0496 594.452,71.3829 595.5,70.5C 596.192,71.0253 596.692,71.6919 597,72.5C 598,71.1667 599,71.1667 600,72.5C 600.333,71.8333 600.667,71.1667 601,70.5C 601.739,71.5742 602.739,72.2409 604,72.5C 605.988,72.4754 607.988,72.4754 610,72.5C 610.667,71.8333 611.333,71.1667 612,70.5C 615.686,71.1308 619.186,71.1308 622.5,70.5C 622.833,71.1667 623.167,71.8333 623.5,72.5C 625.371,71.233 627.204,71.233 629,72.5C 630.667,71.8333 632.333,71.1667 634,70.5C 640,71.8333 646,71.8333 652,70.5C 653.667,71.1667 655.333,71.8333 657,72.5C 661.457,70.3079 665.457,70.3079 669,72.5C 671.333,71.1667 673.667,71.1667 676,72.5C 676.689,71.6433 677.522,70.9767 678.5,70.5C 680.622,70.6225 682.789,70.6225 685,70.5C 685.667,71.1667 686.333,71.8333 687,72.5C 689.328,70.5618 691.661,70.8951 694,73.5C 694.333,72.5 694.667,71.5 695,70.5C 698.333,70.5 701.667,70.5 705,70.5C 706.101,72.3939 707.434,73.0606 709,72.5C 711.863,69.5983 714.196,69.9316 716,73.5C 717.063,72.5622 718.23,71.5622 719.5,70.5C 720.183,70.8627 720.85,71.1961 721.5,71.5 Z"/></g>
<g><path style="opacity:1" fill="#f58c6f" d="M 457.5,75.5 C 464.54,80.0205 471.874,84.0205 479.5,87.5C 479.423,88.7498 478.756,89.5831 477.5,90C 474.812,90.3924 472.145,90.8924 469.5,91.5C 465.903,91.102 462.57,91.102 459.5,91.5C 458.808,90.9747 458.308,90.3081 458,89.5C 456.657,90.2135 455.324,89.8802 454,88.5C 452.542,89.7468 451.042,89.7468 449.5,88.5C 447.477,89.5401 445.477,90.5401 443.5,91.5C 439.474,90.0307 435.308,89.0307 431,88.5C 430.333,91.1667 429.667,91.1667 429,88.5C 427.249,89.1737 425.583,89.507 424,89.5C 423.692,88.6919 423.192,88.0253 422.5,87.5C 420.21,89.967 418.043,89.967 416,87.5C 413.692,89.5515 411.692,91.2182 410,92.5C 409.683,90.6992 409.016,90.3659 408,91.5C 406.806,90.5697 405.473,89.9031 404,89.5C 399.951,90.1024 395.951,90.7691 392,91.5C 390.316,89.5406 388.316,89.5406 386,91.5C 384.209,89.4873 382.875,89.4873 382,91.5C 380.667,90.8333 379.333,90.1667 378,89.5C 374.333,90.8333 370.667,90.8333 367,89.5C 363.491,91.4327 360.158,91.4327 357,89.5C 352.599,89.7512 348.432,90.0845 344.5,90.5C 342.5,89.8333 340.5,89.1667 338.5,88.5C 335.597,88.6937 332.763,88.6937 330,88.5C 327.802,90.3751 325.969,90.3751 324.5,88.5C 318.584,89.584 312.418,89.584 306,88.5C 304.084,90.8062 301.584,92.1395 298.5,92.5C 298.511,91.5585 298.011,90.8919 297,90.5C 296.055,90.9054 295.388,91.572 295,92.5C 292.86,91.2718 291.193,89.6051 290,87.5C 289.161,88.6241 287.994,89.2908 286.5,89.5C 284.23,88.5735 282.063,88.2402 280,88.5C 278.293,89.9436 276.46,91.277 274.5,92.5C 273.808,91.9747 273.308,91.3081 273,90.5C 271.62,93.0578 270.12,93.0578 268.5,90.5C 267.5,91.8333 266.5,91.8333 265.5,90.5C 264.522,90.9767 263.689,91.6433 263,92.5C 257.526,88.5469 252.026,87.8803 246.5,90.5C 243.453,90.0322 240.619,89.0322 238,87.5C 236.209,89.5127 234.875,89.5127 234,87.5C 233.517,88.448 233.351,89.448 233.5,90.5C 229.894,88.6354 226.394,87.9687 223,88.5C 219.708,90.081 216.208,91.081 212.5,91.5C 208.903,91.102 205.57,91.102 202.5,91.5C 201.808,90.9747 201.308,90.3081 201,89.5C 199.657,90.2135 198.324,89.8802 197,88.5C 195.542,89.7468 194.042,89.7468 192.5,88.5C 190.477,89.5401 188.477,90.5401 186.5,91.5C 182.474,90.0307 178.308,89.0307 174,88.5C 173.333,91.1667 172.667,91.1667 172,88.5C 170.249,89.1737 168.583,89.507 167,89.5C 166.692,88.6919 166.192,88.0253 165.5,87.5C 163.21,89.967 161.043,89.967 159,87.5C 156.692,89.5515 154.692,91.2182 153,92.5C 152.667,91.8333 152.333,91.1667 152,90.5C 150.235,91.2393 148.235,91.2393 146,90.5C 145.085,91.3279 144.419,92.3279 144,93.5C 143.009,92.0611 141.676,91.0611 140,90.5C 137.868,91.7797 135.702,91.7797 133.5,90.5C 133.167,91.1667 132.833,91.8333 132.5,92.5C 131.808,91.9747 131.308,91.3081 131,90.5C 128.272,90.9862 125.605,90.3195 123,88.5C 121.667,91.1667 120.333,91.1667 119,88.5C 117.667,89.1667 116.333,89.8333 115,90.5C 113.204,89.233 111.371,89.233 109.5,90.5C 108.784,89.689 107.95,89.0223 107,88.5C 105.56,89.1476 104.06,89.4809 102.5,89.5C 101.8,93.7978 101.467,98.1311 101.5,102.5C 100.203,97.9335 100.203,93.2669 101.5,88.5C 102.846,84.1468 105.013,80.1468 108,76.5C 127.905,76.3946 148.572,76.728 170,77.5C 173.333,76.8333 176.667,76.1667 180,75.5C 181.333,76.1667 182.667,76.8333 184,77.5C 186.727,76.8118 189.394,76.4785 192,76.5C 193.261,76.7591 194.261,77.4258 195,78.5C 195.674,77.4216 196.674,76.7549 198,76.5C 204.998,76.547 211.665,76.8803 218,77.5C 223.168,75.6434 228.168,75.6434 233,77.5C 238.206,76.6391 243.539,76.6391 249,77.5C 250.667,76.8333 252.333,76.1667 254,75.5C 254.667,76.1667 255.333,76.8333 256,77.5C 261.406,77.3555 266.906,77.3555 272.5,77.5C 275.075,74.6809 276.908,75.0142 278,78.5C 278.739,77.4258 279.739,76.7591 281,76.5C 295.863,77.5196 310.363,77.5196 324.5,76.5C 326.32,76.6493 327.82,77.3159 329,78.5C 329.839,77.3759 331.006,76.7092 332.5,76.5C 344.043,76.57 355.543,76.57 367,76.5C 368.452,78.8253 370.119,78.8253 372,76.5C 374.478,77.4467 376.812,77.4467 379,76.5C 380.333,79.1667 381.667,79.1667 383,76.5C 384.751,77.1737 386.417,77.507 388,77.5C 388.875,75.4873 390.209,75.4873 392,77.5C 403.768,76.5263 415.434,76.5263 427,77.5C 430.333,76.8333 433.667,76.1667 437,75.5C 438.333,76.1667 439.667,76.8333 441,77.5C 443,74.8333 445,74.8333 447,77.5C 448.333,76.1667 449.667,76.1667 451,77.5C 453.277,76.8828 455.444,76.2161 457.5,75.5 Z"/></g>
<g><path style="opacity:1" fill="#f6996d" d="M 101.5,88.5 C 100.203,93.2669 100.203,97.9335 101.5,102.5C 101.5,103.5 101.5,104.5 101.5,105.5C 67.7051,104.936 33.7051,104.936 -0.5,105.5C -0.5,99.1667 -0.5,92.8333 -0.5,86.5C 32.3198,85.8537 65.4865,85.5204 99,85.5C 100.417,86.0779 101.25,87.0779 101.5,88.5 Z"/></g>
<g><path style="opacity:1" fill="#f56e75" d="M 721.5,87.5 C 721.5,88.8333 721.5,90.1667 721.5,91.5C 701.076,92.0195 681.076,94.6862 661.5,99.5C 659.035,99.767 656.701,100.434 654.5,101.5C 655.252,99.8997 656.252,98.3997 657.5,97C 656.256,96.5439 655.423,97.0439 655,98.5C 653.355,98.3068 651.521,98.1402 649.5,98C 649,97.5 648.5,97 648,96.5C 647.667,97.8333 647.333,99.1667 647,100.5C 644.929,97.5845 643.595,97.9178 643,101.5C 642.333,100.167 641.667,100.167 641,101.5C 639.956,100.377 639.29,99.0441 639,97.5C 635.886,101.149 633.552,100.483 632,95.5C 631.667,96.8333 631.333,98.1667 631,99.5C 630.667,99.1667 630.333,98.8333 630,98.5C 628.2,100.145 626.2,101.478 624,102.5C 624.263,101.049 624.096,99.7161 623.5,98.5C 621.941,99.0736 620.441,99.7402 619,100.5C 618.751,99.376 618.251,98.376 617.5,97.5C 617.089,98.2624 616.923,99.2624 617,100.5C 615.43,99.386 614.097,98.0526 613,96.5C 611.267,98.6015 609.267,98.9348 607,97.5C 605.173,98.1052 603.84,99.7719 603,102.5C 602.374,100.009 601.541,100.009 600.5,102.5C 600.36,101.431 600.36,100.264 600.5,99C 598.568,98.8621 596.734,99.3621 595,100.5C 593.47,99.364 592.137,98.364 591,97.5C 589.777,99.9853 588.277,100.152 586.5,98C 588.929,97.5488 589.096,96.7155 587,95.5C 586,97.1667 584.667,98.5 583,99.5C 582.914,95.5142 581.58,95.5142 579,99.5C 574.667,99.5 570.333,99.5 566,99.5C 565,98.5 564,97.5 563,96.5C 561.68,98.5828 560.346,98.2494 559,95.5C 556.836,99.9084 554.336,100.242 551.5,96.5C 550.5,97 549.5,97.5 548.5,98C 549.696,98.6543 549.696,99.1543 548.5,99.5C 547.402,95.6395 546.569,95.6395 546,99.5C 545.374,97.0087 544.541,97.0087 543.5,99.5C 543.089,98.7376 542.923,97.7376 543,96.5C 542.311,97.3567 541.478,98.0233 540.5,98.5C 538.259,97.3601 536.092,97.3601 534,98.5C 533.383,99.4491 533.549,100.282 534.5,101C 533.234,101.309 532.067,101.809 531,102.5C 530.383,101.551 530.549,100.718 531.5,100C 530.5,99.5 529.5,99 528.5,98.5C 528.704,99.5294 528.204,100.529 527,101.5C 526.667,100.5 526.333,99.5 526,98.5C 524.853,99.4581 523.853,99.1247 523,97.5C 520.276,98.6883 517.943,100.355 516,102.5C 515.417,100.998 514.584,99.6651 513.5,98.5C 512.808,99.0253 512.308,99.6919 512,100.5C 508.856,96.1589 508.022,96.4923 509.5,101.5C 500.829,97.4976 492.162,93.4976 483.5,89.5C 483.866,88.3054 484.699,87.6387 486,87.5C 487.15,88.4239 488.15,88.4239 489,87.5C 489.667,88.1667 490.333,88.8333 491,89.5C 491.388,88.572 492.055,87.9054 493,87.5C 525.609,88.7174 557.942,88.7174 590,87.5C 590.333,88.1667 590.667,88.8333 591,89.5C 592.512,87.0426 593.846,87.0426 595,89.5C 596.353,88.2958 598.019,87.6292 600,87.5C 608.061,87.3548 615.727,87.6882 623,88.5C 623.333,87.8333 623.667,87.1667 624,86.5C 628.522,88.5753 633.022,88.9087 637.5,87.5C 639.187,87.7605 640.687,88.4272 642,89.5C 642.333,88.8333 642.667,88.1667 643,87.5C 643.689,88.3567 644.522,89.0233 645.5,89.5C 646.611,88.3887 647.945,87.722 649.5,87.5C 658.872,88.2441 668.039,88.2441 677,87.5C 678.316,90.028 679.483,90.028 680.5,87.5C 691.963,87.9425 703.463,87.9425 715,87.5C 715.333,88.1667 715.667,88.8333 716,89.5C 717.401,87.8078 719.234,87.1412 721.5,87.5 Z"/></g>
<g><path style="opacity:1" fill="#f58671" d="M 479.5,87.5 C 480.833,88.1667 482.167,88.8333 483.5,89.5C 492.162,93.4976 500.829,97.4976 509.5,101.5C 510.167,101.5 510.5,101.833 510.5,102.5C 510.217,103.289 509.717,103.956 509,104.5C 507.43,103.642 505.763,102.975 504,102.5C 499.084,102.762 494.417,102.762 490,102.5C 488.667,103.167 487.333,103.833 486,104.5C 485.667,103.833 485.333,103.167 485,102.5C 474.516,102.758 463.683,102.758 452.5,102.5C 451.522,102.977 450.689,103.643 450,104.5C 449.667,103.833 449.333,103.167 449,102.5C 447.055,103.692 445.055,103.692 443,102.5C 441.166,104.756 439.499,104.756 438,102.5C 436.667,102.5 435.333,102.5 434,102.5C 433.333,105.167 432.667,105.167 432,102.5C 431.333,103.833 430.667,103.833 430,102.5C 429.667,103.167 429.333,103.833 429,104.5C 427.667,103.167 426.333,103.167 425,104.5C 424.692,103.692 424.192,103.025 423.5,102.5C 421.737,102.694 419.903,102.694 418,102.5C 417.333,103.167 416.667,103.833 416,104.5C 414.667,103.167 413.333,103.167 412,104.5C 411.333,103.833 410.667,103.167 410,102.5C 387.748,103.583 365.415,103.583 343,102.5C 340.923,103.017 338.923,103.684 337,104.5C 336.333,103.833 335.667,103.167 335,102.5C 332.149,103.244 329.483,103.244 327,102.5C 325.209,104.513 323.875,104.513 323,102.5C 318,103.167 313,103.833 308,104.5C 306.43,103.642 304.763,102.975 303,102.5C 292.595,103.762 282.261,103.762 272,102.5C 269.624,104.661 266.957,104.661 264,102.5C 263.667,103.167 263.333,103.833 263,104.5C 261.667,103.833 260.333,103.167 259,102.5C 258.667,103.167 258.333,103.833 258,104.5C 255.729,102.566 253.729,102.566 252,104.5C 250.43,103.642 248.763,102.975 247,102.5C 242.084,102.762 237.417,102.762 233,102.5C 231.667,103.167 230.333,103.833 229,104.5C 228.667,103.833 228.333,103.167 228,102.5C 217.133,102.811 206.3,102.811 195.5,102.5C 194.522,102.977 193.689,103.643 193,104.5C 192.667,103.833 192.333,103.167 192,102.5C 190.055,103.692 188.055,103.692 186,102.5C 184.166,104.756 182.499,104.756 181,102.5C 179.34,102.324 177.674,102.991 176,104.5C 174.209,102.487 172.875,102.487 172,104.5C 171.125,102.487 169.791,102.487 168,104.5C 167.692,103.692 167.192,103.025 166.5,102.5C 164.641,102.888 162.641,102.888 160.5,102.5C 159.808,103.025 159.308,103.692 159,104.5C 158.261,103.426 157.261,102.759 156,102.5C 138.126,103.396 120.292,103.396 102.5,102.5C 102.5,103.5 102.5,104.5 102.5,105.5C 102.167,105.5 101.833,105.5 101.5,105.5C 101.5,104.5 101.5,103.5 101.5,102.5C 101.467,98.1311 101.8,93.7978 102.5,89.5C 104.06,89.4809 105.56,89.1476 107,88.5C 107.95,89.0223 108.784,89.689 109.5,90.5C 111.371,89.233 113.204,89.233 115,90.5C 116.333,89.8333 117.667,89.1667 119,88.5C 120.333,91.1667 121.667,91.1667 123,88.5C 125.605,90.3195 128.272,90.9862 131,90.5C 131.308,91.3081 131.808,91.9747 132.5,92.5C 132.833,91.8333 133.167,91.1667 133.5,90.5C 135.702,91.7797 137.868,91.7797 140,90.5C 141.676,91.0611 143.009,92.0611 144,93.5C 144.419,92.3279 145.085,91.3279 146,90.5C 148.235,91.2393 150.235,91.2393 152,90.5C 152.333,91.1667 152.667,91.8333 153,92.5C 154.692,91.2182 156.692,89.5515 159,87.5C 161.043,89.967 163.21,89.967 165.5,87.5C 166.192,88.0253 166.692,88.6919 167,89.5C 168.583,89.507 170.249,89.1737 172,88.5C 172.667,91.1667 173.333,91.1667 174,88.5C 178.308,89.0307 182.474,90.0307 186.5,91.5C 188.477,90.5401 190.477,89.5401 192.5,88.5C 194.042,89.7468 195.542,89.7468 197,88.5C 198.324,89.8802 199.657,90.2135 201,89.5C 201.308,90.3081 201.808,90.9747 202.5,91.5C 205.57,91.102 208.903,91.102 212.5,91.5C 216.208,91.081 219.708,90.081 223,88.5C 226.394,87.9687 229.894,88.6354 233.5,90.5C 233.351,89.448 233.517,88.448 234,87.5C 234.875,89.5127 236.209,89.5127 238,87.5C 240.619,89.0322 243.453,90.0322 246.5,90.5C 252.026,87.8803 257.526,88.5469 263,92.5C 263.689,91.6433 264.522,90.9767 265.5,90.5C 266.5,91.8333 267.5,91.8333 268.5,90.5C 270.12,93.0578 271.62,93.0578 273,90.5C 273.308,91.3081 273.808,91.9747 274.5,92.5C 276.46,91.277 278.293,89.9436 280,88.5C 282.063,88.2402 284.23,88.5735 286.5,89.5C 287.994,89.2908 289.161,88.6241 290,87.5C 291.193,89.6051 292.86,91.2718 295,92.5C 295.388,91.572 296.055,90.9054 297,90.5C 298.011,90.8919 298.511,91.5585 298.5,92.5C 301.584,92.1395 304.084,90.8062 306,88.5C 312.418,89.584 318.584,89.584 324.5,88.5C 325.969,90.3751 327.802,90.3751 330,88.5C 332.763,88.6937 335.597,88.6937 338.5,88.5C 340.5,89.1667 342.5,89.8333 344.5,90.5C 348.432,90.0845 352.599,89.7512 357,89.5C 360.158,91.4327 363.491,91.4327 367,89.5C 370.667,90.8333 374.333,90.8333 378,89.5C 379.333,90.1667 380.667,90.8333 382,91.5C 382.875,89.4873 384.209,89.4873 386,91.5C 388.316,89.5406 390.316,89.5406 392,91.5C 395.951,90.7691 399.951,90.1024 404,89.5C 405.473,89.9031 406.806,90.5697 408,91.5C 409.016,90.3659 409.683,90.6992 410,92.5C 411.692,91.2182 413.692,89.5515 416,87.5C 418.043,89.967 420.21,89.967 422.5,87.5C 423.192,88.0253 423.692,88.6919 424,89.5C 425.583,89.507 427.249,89.1737 429,88.5C 429.667,91.1667 430.333,91.1667 431,88.5C 435.308,89.0307 439.474,90.0307 443.5,91.5C 445.477,90.5401 447.477,89.5401 449.5,88.5C 451.042,89.7468 452.542,89.7468 454,88.5C 455.324,89.8802 456.657,90.2135 458,89.5C 458.308,90.3081 458.808,90.9747 459.5,91.5C 462.57,91.102 465.903,91.102 469.5,91.5C 472.145,90.8924 474.812,90.3924 477.5,90C 478.756,89.5831 479.423,88.7498 479.5,87.5 Z"/></g>
<g><path style="opacity:1" fill="#f58d6f" d="M 721.5,91.5 C 721.5,94.5 721.5,97.5 721.5,100.5C 701.611,100.454 681.611,100.121 661.5,99.5C 681.076,94.6862 701.076,92.0195 721.5,91.5 Z"/></g>
<g><path style="opacity:1" fill="#f56b76" d="M 654.5,101.5 C 651.171,102.831 647.838,104.164 644.5,105.5C 644.631,104.761 644.464,104.094 644,103.5C 638.553,104.389 633.387,104.389 628.5,103.5C 627.252,104.04 626.085,104.707 625,105.5C 623.333,104.167 621.667,104.167 620,105.5C 617.53,103.269 615.197,103.269 613,105.5C 612.333,104.167 611.667,104.167 611,105.5C 610.309,103.109 609.309,103.109 608,105.5C 606.915,104.707 605.748,104.04 604.5,103.5C 601.554,103.019 598.721,103.686 596,105.5C 594.915,104.707 593.748,104.04 592.5,103.5C 586.216,104.733 580.049,104.733 574,103.5C 571.849,103.773 569.849,104.439 568,105.5C 565.54,104.112 562.873,103.446 560,103.5C 551.595,104.465 543.428,104.465 535.5,103.5C 534.459,105.991 533.626,105.991 533,103.5C 528.356,104.678 523.69,104.678 519,103.5C 518.283,104.044 517.783,104.711 517.5,105.5C 515.313,104.242 512.98,103.242 510.5,102.5C 510.5,101.833 510.167,101.5 509.5,101.5C 508.022,96.4923 508.856,96.1589 512,100.5C 512.308,99.6919 512.808,99.0253 513.5,98.5C 514.584,99.6651 515.417,100.998 516,102.5C 517.943,100.355 520.276,98.6883 523,97.5C 523.853,99.1247 524.853,99.4581 526,98.5C 526.333,99.5 526.667,100.5 527,101.5C 528.204,100.529 528.704,99.5294 528.5,98.5C 529.5,99 530.5,99.5 531.5,100C 530.549,100.718 530.383,101.551 531,102.5C 532.067,101.809 533.234,101.309 534.5,101C 533.549,100.282 533.383,99.4491 534,98.5C 536.092,97.3601 538.259,97.3601 540.5,98.5C 541.478,98.0233 542.311,97.3567 543,96.5C 542.923,97.7376 543.089,98.7376 543.5,99.5C 544.541,97.0087 545.374,97.0087 546,99.5C 546.569,95.6395 547.402,95.6395 548.5,99.5C 549.696,99.1543 549.696,98.6543 548.5,98C 549.5,97.5 550.5,97 551.5,96.5C 554.336,100.242 556.836,99.9084 559,95.5C 560.346,98.2494 561.68,98.5828 563,96.5C 564,97.5 565,98.5 566,99.5C 570.333,99.5 574.667,99.5 579,99.5C 581.58,95.5142 582.914,95.5142 583,99.5C 584.667,98.5 586,97.1667 587,95.5C 589.096,96.7155 588.929,97.5488 586.5,98C 588.277,100.152 589.777,99.9853 591,97.5C 592.137,98.364 593.47,99.364 595,100.5C 596.734,99.3621 598.568,98.8621 600.5,99C 600.36,100.264 600.36,101.431 600.5,102.5C 601.541,100.009 602.374,100.009 603,102.5C 603.84,99.7719 605.173,98.1052 607,97.5C 609.267,98.9348 611.267,98.6015 613,96.5C 614.097,98.0526 615.43,99.386 617,100.5C 616.923,99.2624 617.089,98.2624 617.5,97.5C 618.251,98.376 618.751,99.376 619,100.5C 620.441,99.7402 621.941,99.0736 623.5,98.5C 624.096,99.7161 624.263,101.049 624,102.5C 626.2,101.478 628.2,100.145 630,98.5C 630.333,98.8333 630.667,99.1667 631,99.5C 631.333,98.1667 631.667,96.8333 632,95.5C 633.552,100.483 635.886,101.149 639,97.5C 639.29,99.0441 639.956,100.377 641,101.5C 641.667,100.167 642.333,100.167 643,101.5C 643.595,97.9178 644.929,97.5845 647,100.5C 647.333,99.1667 647.667,97.8333 648,96.5C 648.5,97 649,97.5 649.5,98C 651.521,98.1402 653.355,98.3068 655,98.5C 655.423,97.0439 656.256,96.5439 657.5,97C 656.252,98.3997 655.252,99.8997 654.5,101.5 Z"/></g>
<g><path style="opacity:1" fill="#f6926e" d="M 661.5,99.5 C 681.611,100.121 701.611,100.454 721.5,100.5C 721.5,105.167 721.5,109.833 721.5,114.5C 718.478,115.388 715.478,115.721 712.5,115.5C 711.483,112.972 710.316,112.972 709,115.5C 706.271,114.475 703.271,114.475 700,115.5C 698,114.833 696,114.167 694,113.5C 693.333,114.167 692.667,114.833 692,115.5C 688,115.5 684,115.5 680,115.5C 678.691,113.109 677.691,113.109 677,115.5C 664.105,114.623 651.438,114.623 639,115.5C 636.913,114.603 634.746,113.936 632.5,113.5C 636.119,110.35 640.119,107.684 644.5,105.5C 647.838,104.164 651.171,102.831 654.5,101.5C 656.701,100.434 659.035,99.767 661.5,99.5 Z"/></g>
<g><path style="opacity:1" fill="#f58072" d="M 510.5,102.5 C 512.98,103.242 515.313,104.242 517.5,105.5C 522.738,108.07 527.072,111.736 530.5,116.5C 529.895,118.026 528.729,119.026 527,119.5C 522.388,118.575 517.721,118.575 513,119.5C 512.667,118.833 512.333,118.167 512,117.5C 510.434,116.939 509.101,117.606 508,119.5C 506.667,118.833 505.333,118.167 504,117.5C 501,118.167 498,118.833 495,119.5C 493.667,118.833 492.333,118.167 491,117.5C 490,118.833 489,118.833 488,117.5C 487.692,118.308 487.192,118.975 486.5,119.5C 485.5,118.167 484.5,118.167 483.5,119.5C 482.808,118.975 482.308,118.308 482,117.5C 479.539,118.218 477.039,118.885 474.5,119.5C 362.482,118.689 250.982,118.689 140,119.5C 135.333,118.833 130.667,118.167 126,117.5C 123.333,118.167 120.667,118.833 118,119.5C 115.205,118.217 112.372,118.217 109.5,119.5C 110.127,120.417 110.461,121.417 110.5,122.5C 109.5,122.167 108.833,121.5 108.5,120.5C 105.121,116.072 103.121,111.072 102.5,105.5C 102.5,104.5 102.5,103.5 102.5,102.5C 120.292,103.396 138.126,103.396 156,102.5C 157.261,102.759 158.261,103.426 159,104.5C 159.308,103.692 159.808,103.025 160.5,102.5C 162.641,102.888 164.641,102.888 166.5,102.5C 167.192,103.025 167.692,103.692 168,104.5C 169.791,102.487 171.125,102.487 172,104.5C 172.875,102.487 174.209,102.487 176,104.5C 177.674,102.991 179.34,102.324 181,102.5C 182.499,104.756 184.166,104.756 186,102.5C 188.055,103.692 190.055,103.692 192,102.5C 192.333,103.167 192.667,103.833 193,104.5C 193.689,103.643 194.522,102.977 195.5,102.5C 206.3,102.811 217.133,102.811 228,102.5C 228.333,103.167 228.667,103.833 229,104.5C 230.333,103.833 231.667,103.167 233,102.5C 237.417,102.762 242.084,102.762 247,102.5C 248.763,102.975 250.43,103.642 252,104.5C 253.729,102.566 255.729,102.566 258,104.5C 258.333,103.833 258.667,103.167 259,102.5C 260.333,103.167 261.667,103.833 263,104.5C 263.333,103.833 263.667,103.167 264,102.5C 266.957,104.661 269.624,104.661 272,102.5C 282.261,103.762 292.595,103.762 303,102.5C 304.763,102.975 306.43,103.642 308,104.5C 313,103.833 318,103.167 323,102.5C 323.875,104.513 325.209,104.513 327,102.5C 329.483,103.244 332.149,103.244 335,102.5C 335.667,103.167 336.333,103.833 337,104.5C 338.923,103.684 340.923,103.017 343,102.5C 365.415,103.583 387.748,103.583 410,102.5C 410.667,103.167 411.333,103.833 412,104.5C 413.333,103.167 414.667,103.167 416,104.5C 416.667,103.833 417.333,103.167 418,102.5C 419.903,102.694 421.737,102.694 423.5,102.5C 424.192,103.025 424.692,103.692 425,104.5C 426.333,103.167 427.667,103.167 429,104.5C 429.333,103.833 429.667,103.167 430,102.5C 430.667,103.833 431.333,103.833 432,102.5C 432.667,105.167 433.333,105.167 434,102.5C 435.333,102.5 436.667,102.5 438,102.5C 439.499,104.756 441.166,104.756 443,102.5C 445.055,103.692 447.055,103.692 449,102.5C 449.333,103.167 449.667,103.833 450,104.5C 450.689,103.643 451.522,102.977 452.5,102.5C 463.683,102.758 474.516,102.758 485,102.5C 485.333,103.167 485.667,103.833 486,104.5C 487.333,103.833 488.667,103.167 490,102.5C 494.417,102.762 499.084,102.762 504,102.5C 505.763,102.975 507.43,103.642 509,104.5C 509.717,103.956 510.217,103.289 510.5,102.5 Z"/></g>
<g><path style="opacity:1" fill="#f56777" d="M 644.5,105.5 C 640.119,107.684 636.119,110.35 632.5,113.5C 625.571,117.102 618.905,121.102 612.5,125.5C 611.426,123.784 609.759,122.784 607.5,122.5C 595.428,123.309 583.928,123.309 573,122.5C 572.125,124.513 570.791,124.513 569,122.5C 565.058,123.557 561.058,123.557 557,122.5C 554.843,125.078 553.677,125.078 553.5,122.5C 550.854,123.204 548.021,123.204 545,122.5C 544.374,124.991 543.541,124.991 542.5,122.5C 540.378,122.623 538.211,122.623 536,122.5C 534.812,123.563 534.312,124.897 534.5,126.5C 534.167,126.5 533.833,126.5 533.5,126.5C 533.663,124.143 533.497,121.81 533,119.5C 532.623,118.058 531.79,117.058 530.5,116.5C 527.072,111.736 522.738,108.07 517.5,105.5C 517.783,104.711 518.283,104.044 519,103.5C 523.69,104.678 528.356,104.678 533,103.5C 533.626,105.991 534.459,105.991 535.5,103.5C 543.428,104.465 551.595,104.465 560,103.5C 562.873,103.446 565.54,104.112 568,105.5C 569.849,104.439 571.849,103.773 574,103.5C 580.049,104.733 586.216,104.733 592.5,103.5C 593.748,104.04 594.915,104.707 596,105.5C 598.721,103.686 601.554,103.019 604.5,103.5C 605.748,104.04 606.915,104.707 608,105.5C 609.309,103.109 610.309,103.109 611,105.5C 611.667,104.167 612.333,104.167 613,105.5C 615.197,103.269 617.53,103.269 620,105.5C 621.667,104.167 623.333,104.167 625,105.5C 626.085,104.707 627.252,104.04 628.5,103.5C 633.387,104.389 638.553,104.389 644,103.5C 644.464,104.094 644.631,104.761 644.5,105.5 Z"/></g>
<g><path style="opacity:1" fill="#f69f6c" d="M 101.5,105.5 C 101.833,105.5 102.167,105.5 102.5,105.5C 103.121,111.072 105.121,116.072 108.5,120.5C 71.8032,120.191 35.4698,120.524 -0.5,121.5C -0.5,116.167 -0.5,110.833 -0.5,105.5C 33.7051,104.936 67.7051,104.936 101.5,105.5 Z"/></g>
<g><path style="opacity:1" fill="#f6976d" d="M 632.5,113.5 C 634.746,113.936 636.913,114.603 639,115.5C 651.438,114.623 664.105,114.623 677,115.5C 677.691,113.109 678.691,113.109 680,115.5C 684,115.5 688,115.5 692,115.5C 692.667,114.833 693.333,114.167 694,113.5C 696,114.167 698,114.833 700,115.5C 703.271,114.475 706.271,114.475 709,115.5C 710.316,112.972 711.483,112.972 712.5,115.5C 715.478,115.721 718.478,115.388 721.5,114.5C 721.5,118.5 721.5,122.5 721.5,126.5C 685.167,126.5 648.833,126.5 612.5,126.5C 612.5,126.167 612.5,125.833 612.5,125.5C 618.905,121.102 625.571,117.102 632.5,113.5 Z"/></g>
<g><path style="opacity:1" fill="#f57a73" d="M 530.5,116.5 C 531.79,117.058 532.623,118.058 533,119.5C 533.497,121.81 533.663,124.143 533.5,126.5C 393.167,126.5 252.833,126.5 112.5,126.5C 111.833,125.167 111.167,123.833 110.5,122.5C 110.461,121.417 110.127,120.417 109.5,119.5C 112.372,118.217 115.205,118.217 118,119.5C 120.667,118.833 123.333,118.167 126,117.5C 130.667,118.167 135.333,118.833 140,119.5C 250.982,118.689 362.482,118.689 474.5,119.5C 477.039,118.885 479.539,118.218 482,117.5C 482.308,118.308 482.808,118.975 483.5,119.5C 484.5,118.167 485.5,118.167 486.5,119.5C 487.192,118.975 487.692,118.308 488,117.5C 489,118.833 490,118.833 491,117.5C 492.333,118.167 493.667,118.833 495,119.5C 498,118.833 501,118.167 504,117.5C 505.333,118.167 506.667,118.833 508,119.5C 509.101,117.606 510.434,116.939 512,117.5C 512.333,118.167 512.667,118.833 513,119.5C 517.721,118.575 522.388,118.575 527,119.5C 528.729,119.026 529.895,118.026 530.5,116.5 Z"/></g>
<g><path style="opacity:1" fill="#f6a36b" d="M 108.5,120.5 C 108.833,121.5 109.5,122.167 110.5,122.5C 111.167,123.833 111.833,125.167 112.5,126.5C 74.8333,126.5 37.1667,126.5 -0.5,126.5C -0.5,124.833 -0.5,123.167 -0.5,121.5C 35.4698,120.524 71.8032,120.191 108.5,120.5 Z"/></g>
<g><path style="opacity:1" fill="#f56278" d="M 612.5,125.5 C 612.5,125.833 612.5,126.167 612.5,126.5C 586.5,126.5 560.5,126.5 534.5,126.5C 534.312,124.897 534.812,123.563 536,122.5C 538.211,122.623 540.378,122.623 542.5,122.5C 543.541,124.991 544.374,124.991 545,122.5C 548.021,123.204 550.854,123.204 553.5,122.5C 553.677,125.078 554.843,125.078 557,122.5C 561.058,123.557 565.058,123.557 569,122.5C 570.791,124.513 572.125,124.513 573,122.5C 583.928,123.309 595.428,123.309 607.5,122.5C 609.759,122.784 611.426,123.784 612.5,125.5 Z"/></g>
</svg>
