<svg width="24" height="24" viewBox="0 0 24 24" fill="none" xmlns="http://www.w3.org/2000/svg">
<path d="M11.3 8.2999L9.225 6.1999C9.025 5.9999 8.925 5.76657 8.925 5.4999C8.925 5.23324 9.025 4.9999 9.225 4.7999L11.303 2.6999C11.501 2.4999 11.7363 2.3999 12.009 2.3999C12.2823 2.3999 12.521 2.4999 12.725 2.6999L14.8 4.7999C15 4.9999 15.1 5.23324 15.1 5.4999C15.1 5.76657 15 5.9999 14.8 6.1999L12.722 8.2999C12.524 8.4999 12.2887 8.5999 12.016 8.5999C11.7427 8.5999 11.504 8.4999 11.3 8.2999ZM2 19.9999C1.71667 19.9999 1.479 19.9039 1.287 19.7119C1.095 19.5199 0.999337 19.2826 1 18.9999V15.9999C1 15.4332 1.196 14.9582 1.588 14.5749C1.98 14.1916 2.45067 13.9999 3 13.9999H6.275C6.60834 13.9999 6.925 14.0832 7.225 14.2499C7.525 14.4166 7.76667 14.6416 7.95 14.9249C8.43334 15.5749 9.02934 16.0832 9.738 16.4499C10.4467 16.8166 11.2007 16.9999 12 16.9999C12.8167 16.9999 13.5793 16.8166 14.288 16.4499C14.9967 16.0832 15.584 15.5749 16.05 14.9249C16.2667 14.6416 16.521 14.4166 16.813 14.2499C17.105 14.0832 17.409 13.9999 17.725 13.9999H21C21.5667 13.9999 22.0417 14.1916 22.425 14.5749C22.8083 14.9582 23 15.4332 23 15.9999V18.9999C23 19.2832 22.904 19.5209 22.712 19.7129C22.52 19.9049 22.2827 20.0006 22 19.9999H17C16.7167 19.9999 16.479 19.9039 16.287 19.7119C16.095 19.5199 15.9993 19.2826 16 18.9999V17.7249C15.4167 18.1416 14.7873 18.4582 14.112 18.6749C13.4367 18.8916 12.7327 18.9999 12 18.9999C11.2833 18.9999 10.5833 18.8872 9.9 18.6619C9.21667 18.4366 8.58334 18.1159 8 17.6999V18.9999C8 19.2832 7.904 19.5209 7.712 19.7129C7.52 19.9049 7.28267 20.0006 7 19.9999H2ZM4 12.9999C3.16667 12.9999 2.45834 12.7082 1.875 12.1249C1.29167 11.5416 1 10.8332 1 9.9999C1 9.1499 1.29167 8.43724 1.875 7.8619C2.45834 7.28657 3.16667 6.99924 4 6.9999C4.85 6.9999 5.56267 7.28757 6.138 7.8629C6.71334 8.43824 7.00067 9.15057 7 9.9999C7 10.8332 6.71234 11.5416 6.137 12.1249C5.56167 12.7082 4.84934 12.9999 4 12.9999ZM20 12.9999C19.1667 12.9999 18.4583 12.7082 17.875 12.1249C17.2917 11.5416 17 10.8332 17 9.9999C17 9.1499 17.2917 8.43724 17.875 7.8619C18.4583 7.28657 19.1667 6.99924 20 6.9999C20.85 6.9999 21.5627 7.28757 22.138 7.8629C22.7133 8.43824 23.0007 9.15057 23 9.9999C23 10.8332 22.7123 11.5416 22.137 12.1249C21.5617 12.7082 20.8493 12.9999 20 12.9999Z" fill="#F55C7A"/>
</svg>
