<svg width="24" height="24" viewBox="0 0 24 24" fill="none" xmlns="http://www.w3.org/2000/svg">
<path d="M6 19V20C6 20.2833 5.904 20.521 5.712 20.713C5.52 20.905 5.28267 21.0007 5 21H4C3.71667 21 3.479 20.904 3.287 20.712C3.095 20.52 2.99934 20.2827 3 20V12L5.1 6C5.2 5.7 5.379 5.45833 5.637 5.275C5.895 5.09167 6.18267 5 6.5 5H17.5C17.8167 5 18.1043 5.09167 18.363 5.275C18.6217 5.45833 18.8007 5.7 18.9 6L21 12V20C21 20.2833 20.9043 20.521 20.713 20.713C20.5217 20.905 20.284 21.0007 20 21H19C18.7167 21 18.479 20.904 18.287 20.712C18.095 20.52 17.9993 20.2827 18 20V19H6ZM5.8 10H18.2L17.15 7H6.85L5.8 10ZM7.5 16C7.91667 16 8.271 15.854 8.563 15.562C8.855 15.27 9.00067 14.916 9 14.5C9 14.0833 8.854 13.729 8.562 13.437C8.27 13.145 7.916 12.9993 7.5 13C7.08334 13 6.729 13.146 6.437 13.438C6.145 13.73 5.99934 14.084 6 14.5C6 14.9167 6.146 15.271 6.438 15.563C6.73 15.855 7.084 16.0007 7.5 16ZM16.5 16C16.9167 16 17.271 15.854 17.563 15.562C17.855 15.27 18.0007 14.916 18 14.5C18 14.0833 17.854 13.729 17.562 13.437C17.27 13.145 16.916 12.9993 16.5 13C16.0833 13 15.729 13.146 15.437 13.438C15.145 13.73 14.9993 14.084 15 14.5C15 14.9167 15.146 15.271 15.438 15.563C15.73 15.855 16.084 16.0007 16.5 16ZM5 17H19V12H5V17Z" fill="#F55C7A"/>
</svg>
