<svg width="126" height="126" viewBox="0 0 126 126" fill="none" xmlns="http://www.w3.org/2000/svg">
<path d="M102.455 109.773L69.5228 76.8407C66.9092 78.9316 63.9035 80.5869 60.5057 81.8066C57.108 83.0263 53.4925 83.6362 49.6592 83.6362C40.1629 83.6362 32.1269 80.3465 25.551 73.7671C18.9751 67.1877 15.6854 59.1516 15.6819 49.6589C15.6819 40.1627 18.9716 32.1266 25.551 25.5507C32.1304 18.9748 40.1664 15.6851 49.6592 15.6816C59.1554 15.6816 67.1914 18.9713 73.7673 25.5507C80.3433 32.1301 83.6329 40.1662 83.6364 49.6589C83.6364 53.4922 83.0266 57.1078 81.8069 60.5055C80.5872 63.9032 78.9319 66.9089 76.841 69.5226L109.773 102.454L102.455 109.773ZM49.6592 73.1816C56.1932 73.1816 61.7481 70.8938 66.3237 66.3182C70.8993 61.7426 73.1854 56.1895 73.1819 49.6589C73.1819 43.1248 70.8941 37.57 66.3185 32.9944C61.7429 28.4188 56.1898 26.1327 49.6592 26.1362C43.1251 26.1362 37.5702 28.424 32.9946 32.9996C28.419 37.5752 26.1329 43.1283 26.1364 49.6589C26.1364 56.193 28.4242 61.7479 32.9998 66.3235C37.5754 70.8991 43.1286 73.1851 49.6592 73.1816Z" fill="white"/>
</svg>
