<svg width="24" height="24" viewBox="0 0 24 24" fill="none" xmlns="http://www.w3.org/2000/svg">
<path d="M2 6V1H7V3H4V6H2ZM20 6V3H17V1H22V6H20ZM2 23V18H4V21H7V23H2ZM17 23V21H20V18H22V23H17ZM7 18H17V6H7V18ZM7 20C6.45 20 5.979 19.804 5.587 19.412C5.195 19.02 4.99933 18.5493 5 18V6C5 5.45 5.196 4.979 5.588 4.587C5.98 4.195 6.45067 3.99933 7 4H17C17.55 4 18.021 4.196 18.413 4.588C18.805 4.98 19.0007 5.45067 19 6V18C19 18.55 18.804 19.021 18.412 19.413C18.02 19.805 17.5493 20.0007 17 20H7ZM9 10H15V8H9V10ZM9 13H15V11H9V13ZM9 16H15V14H9V16Z" fill="#F55C7A"/>
</svg>
