<svg width="24" height="24" viewBox="0 0 24 24" fill="none" xmlns="http://www.w3.org/2000/svg">
<path d="M7 14C6.45 14 5.979 13.804 5.587 13.412C5.195 13.02 4.99933 12.5493 5 12C5 11.45 5.196 10.979 5.588 10.587C5.98 10.195 6.45067 9.99933 7 10C7.55 10 8.021 10.196 8.413 10.588C8.805 10.98 9.00067 11.4507 9 12C9 12.55 8.804 13.021 8.412 13.413C8.02 13.805 7.54933 14.0007 7 14ZM7 18C5.33333 18 3.91667 17.4167 2.75 16.25C1.58333 15.0833 1 13.6667 1 12C1 10.3333 1.58333 8.91667 2.75 7.75C3.91667 6.58333 5.33333 6 7 6C8.11667 6 9.12933 6.275 10.038 6.825C10.9467 7.375 11.6673 8.1 12.2 9H20.575C20.7083 9 20.8377 9.025 20.963 9.075C21.0883 9.125 21.2007 9.2 21.3 9.3L23.3 11.3C23.4 11.4 23.4707 11.5083 23.512 11.625C23.5533 11.7417 23.5743 11.8667 23.575 12C23.575 12.1333 23.554 12.2583 23.512 12.375C23.47 12.4917 23.3993 12.6 23.3 12.7L20.125 15.875C20.0417 15.9583 19.9417 16.025 19.825 16.075C19.7083 16.125 19.5917 16.1583 19.475 16.175C19.3583 16.1917 19.2417 16.1833 19.125 16.15C19.0083 16.1167 18.9 16.0583 18.8 15.975L17.5 15L16.075 16.075C15.9917 16.1417 15.9 16.1917 15.8 16.225C15.7 16.2583 15.6 16.275 15.5 16.275C15.4 16.275 15.2957 16.2583 15.187 16.225C15.0783 16.1917 14.9827 16.1417 14.9 16.075L13.375 15H12.2C11.6667 15.9 10.9457 16.625 10.037 17.175C9.12833 17.725 8.116 18 7 18ZM7 16C7.93333 16 8.75433 15.7167 9.463 15.15C10.1717 14.5833 10.6423 13.8667 10.875 13H14L15.45 14.025L17.5 12.5L19.275 13.875L21.15 12L20.15 11H10.875C10.6417 10.1333 10.1707 9.41667 9.462 8.85C8.75333 8.28333 7.93267 8 7 8C5.9 8 4.95833 8.39167 4.175 9.175C3.39167 9.95833 3 10.9 3 12C3 13.1 3.39167 14.0417 4.175 14.825C4.95833 15.6083 5.9 16 7 16Z" fill="#F55C7A"/>
</svg>
