<svg width="24" height="24" viewBox="0 0 24 24" fill="none" xmlns="http://www.w3.org/2000/svg">
<path d="M10.95 15.55L16.6 9.9L15.175 8.475L10.95 12.7L8.85 10.6L7.425 12.025L10.95 15.55ZM12 22C9.68333 21.4167 7.771 20.0873 6.263 18.012C4.755 15.9367 4.00067 13.6327 4 11.1V5L12 2L20 5V11.1C20 13.6333 19.2457 15.9377 17.737 18.013C16.2283 20.0883 14.316 21.4173 12 22ZM12 19.9C13.7333 19.35 15.1667 18.25 16.3 16.6C17.4333 14.95 18 13.1167 18 11.1V6.375L12 4.125L6 6.375V11.1C6 13.1167 6.56667 14.95 7.7 16.6C8.83333 18.25 10.2667 19.35 12 19.9Z" fill="#F55C7A"/>
</svg>
