<svg width="126" height="126" viewBox="0 0 126 126" fill="none" xmlns="http://www.w3.org/2000/svg">
<path d="M91.0279 54.4366C94.091 51.3735 94.091 46.4494 94.091 36.5907C94.091 26.7321 94.091 21.808 91.0279 18.7448M91.0279 54.4366C87.9647 57.4998 83.0406 57.4998 73.1819 57.4998H52.2729C42.4142 57.4998 37.4901 57.4998 34.427 54.4366M91.0279 18.7448C87.9647 15.6816 83.0406 15.6816 73.1819 15.6816H52.2729C42.4142 15.6816 37.4901 15.6816 34.427 18.7448M34.427 18.7448C31.3638 21.808 31.3638 26.7321 31.3638 36.5907C31.3638 46.4494 31.3638 51.3735 34.427 54.4366M67.9547 36.5907C67.9547 37.9771 67.4039 39.3067 66.4236 40.287C65.4433 41.2673 64.1138 41.818 62.7274 41.818C61.341 41.818 60.0115 41.2673 59.0312 40.287C58.0509 39.3067 57.5001 37.9771 57.5001 36.5907C57.5001 35.2044 58.0509 33.8748 59.0312 32.8945C60.0115 31.9142 61.341 31.3635 62.7274 31.3635C64.1138 31.3635 65.4433 31.9142 66.4236 32.8945C67.4039 33.8748 67.9547 35.2044 67.9547 36.5907Z" stroke="white" stroke-width="7.5"/>
<path d="M94.091 31.3635C89.9319 31.3635 85.9432 29.7113 83.0023 26.7704C80.0614 23.8294 78.4092 19.8407 78.4092 15.6816M94.091 41.818C89.9319 41.818 85.9432 43.4702 83.0023 46.4111C80.0614 49.352 78.4092 53.3407 78.4092 57.4998M31.3637 31.3635C35.5228 31.3635 39.5115 29.7113 42.4524 26.7704C45.3934 23.8294 47.0455 19.8407 47.0455 15.6816M31.3637 41.818C35.5228 41.818 39.5115 43.4702 42.4524 46.4111C45.3934 49.352 47.0455 53.3407 47.0455 57.4998M20.9092 111.801H32.7228C38.0024 111.801 43.3499 112.355 48.4883 113.411C57.6621 115.295 67.1013 115.504 76.3496 114.028M71.4883 96.7932C72.1155 96.72 72.7167 96.6364 73.2917 96.5475C78.0537 95.7896 82.0526 93.2387 85.7117 90.4735L95.1626 83.3382C96.8486 82.1118 98.8799 81.4512 100.965 81.4512C103.05 81.4512 105.081 82.1118 106.767 83.3382C109.762 85.6016 110.682 89.3287 108.785 92.371C106.574 95.915 103.458 100.447 100.468 103.218M71.4883 96.7932C71.2967 96.8154 71.1051 96.8363 70.9133 96.856M71.4883 96.7932C72.3249 96.567 73.0921 96.1358 73.7203 95.5387C74.508 94.8572 75.1512 94.0249 75.612 93.0909C76.0728 92.1568 76.3418 91.1399 76.4032 90.1002C76.4646 89.0604 76.3171 88.0189 75.9695 87.0371C75.6218 86.0553 75.081 85.1531 74.379 84.3837C73.6978 83.6275 72.9044 82.9804 72.0267 82.4653C57.406 73.741 34.6517 80.3848 20.9092 90.1337M71.4883 96.7932C71.2994 96.8344 71.1066 96.8554 70.9133 96.856M70.9133 96.856C67.7608 97.1728 64.5848 97.1798 61.431 96.8769" stroke="white" stroke-width="7.5" stroke-linecap="round"/>
</svg>
