<svg width="1441" height="684" viewBox="0 0 1441 684" fill="none" xmlns="http://www.w3.org/2000/svg">
<g clip-path="url(#clip0_401_3928)">
<rect width="1442" height="684" fill="#F68E70"/>
<path fill-rule="evenodd" clip-rule="evenodd" d="M240.403 -126.358C367.574 -117.202 417.313 15.7536 494.806 106.513C568.859 193.243 682.549 267.311 669.186 375.832C654.593 494.343 552.247 593.721 429.204 639.273C313.327 682.171 179.112 658.354 74.9732 595.814C-13.9023 542.44 -29.2647 441.587 -54.8961 348.548C-81.4558 252.14 -124.994 152.527 -71.049 65.7712C-6.52386 -37.9995 108.196 -135.877 240.403 -126.358Z" fill="url(#paint0_linear_401_3928)"/>
<path fill-rule="evenodd" clip-rule="evenodd" d="M-144.969 406.784C-131.735 263.758 133.032 188.358 206.492 82.15C315.503 -75.4577 424.036 -90.4864 580.891 -75.4577C752.186 -59.0453 895.826 56.0607 961.666 194.444C1023.67 324.768 989.246 475.716 898.851 592.839C821.705 692.795 675.933 710.073 541.456 738.9C402.108 768.771 258.129 817.738 132.733 757.067C-22.6546 718.961 -158.727 555.474 -144.969 406.784Z" fill="url(#paint1_linear_401_3928)"/>
<path fill-rule="evenodd" clip-rule="evenodd" d="M1201.72 764.273C1044.42 753.909 982.892 603.406 887.037 500.668C795.436 402.491 654.806 318.648 671.336 195.805C689.386 61.6524 815.984 -50.8417 968.184 -102.405C1111.52 -150.965 1277.54 -124.005 1406.35 -53.2104C1516.29 7.20764 1535.29 121.371 1567 226.689C1599.85 335.821 1653.71 448.581 1586.98 546.787C1507.16 664.253 1365.26 775.049 1201.72 764.273Z" fill="url(#paint2_linear_401_3928)"/>
</g>
<defs>
<linearGradient id="paint0_linear_401_3928" x1="286.745" y1="-127" x2="286.745" y2="661" gradientUnits="userSpaceOnUse">
<stop stop-color="#F55C7A"/>
<stop offset="1" stop-color="#F6BC66"/>
</linearGradient>
<linearGradient id="paint1_linear_401_3928" x1="-159.73" y1="367.975" x2="979.237" y2="367.975" gradientUnits="userSpaceOnUse">
<stop stop-color="#F55C7A"/>
<stop offset="1" stop-color="#F6BC66"/>
</linearGradient>
<linearGradient id="paint2_linear_401_3928" x1="1144.4" y1="765" x2="1144.4" y2="-127" gradientUnits="userSpaceOnUse">
<stop stop-color="#F55C7A"/>
<stop offset="1" stop-color="#F6BC66"/>
</linearGradient>
<clipPath id="clip0_401_3928">
<rect width="1442" height="684" fill="white"/>
</clipPath>
</defs>
</svg>
