<svg width="126" height="126" viewBox="0 0 126 126" fill="none" xmlns="http://www.w3.org/2000/svg">
<path d="M31.3637 99.318V102.062C31.3637 104.24 30.6232 106.07 29.1421 107.551C27.6611 109.032 25.788 109.773 23.5228 109.773C21.3448 109.773 19.4926 109.009 17.9662 107.483C16.4399 105.957 15.6784 104.106 15.6819 101.932V62.7271L26.6592 31.3635C27.1819 29.7953 28.1176 28.5321 29.4662 27.5737C30.8149 26.6154 32.3186 26.1362 33.9774 26.1362H91.4774C93.1327 26.1362 94.6364 26.6154 95.9885 27.5737C97.3406 28.5321 98.2763 29.7953 98.7955 31.3635L109.773 62.7271V102.062C109.773 104.24 109.032 106.07 107.551 107.551C106.07 109.032 104.197 109.773 101.932 109.773C99.7539 109.773 97.9034 109.009 96.3805 107.483C94.8577 105.957 94.0945 104.106 94.091 101.932V99.318H31.3637ZM30.3183 52.2726H95.1365L89.6478 36.5908H35.8069L30.3183 52.2726ZM39.2046 83.6362C41.3827 83.6362 43.2349 82.873 44.7612 81.3467C46.2876 79.8203 47.049 77.9699 47.0455 75.7953C47.0455 73.6173 46.2824 71.7651 44.756 70.2387C43.2296 68.7124 41.3792 67.9509 39.2046 67.9544C37.0266 67.9544 35.1744 68.7176 33.648 70.244C32.1217 71.7703 31.3602 73.6208 31.3637 75.7953C31.3637 77.9734 32.1269 79.8255 33.6533 81.3519C35.1796 82.8783 37.0301 83.6397 39.2046 83.6362ZM86.2501 83.6362C88.4281 83.6362 90.2803 82.873 91.8067 81.3467C93.333 79.8203 94.0945 77.9699 94.091 75.7953C94.091 73.6173 93.3278 71.7651 91.8014 70.2387C90.2751 68.7124 88.4246 67.9509 86.2501 67.9544C84.0721 67.9544 82.2199 68.7176 80.6935 70.244C79.1671 71.7703 78.4057 73.6208 78.4092 75.7953C78.4092 77.9734 79.1724 79.8255 80.6987 81.3519C82.2251 82.8783 84.0755 83.6397 86.2501 83.6362ZM26.1364 88.8635H99.3183V62.7271H26.1364V88.8635Z" fill="white"/>
</svg>
