<svg width="1441" height="684" viewBox="0 0 1441 684" fill="none" xmlns="http://www.w3.org/2000/svg">
<g clip-path="url(#clip0_401_3928)">
<rect width="1442" height="684" fill="#1625AA"/>
<path fill-rule="evenodd" clip-rule="evenodd" d="M240.403 -126.358C367.574 -117.202 417.313 15.7536 494.806 106.513C568.859 193.243 682.549 267.311 669.186 375.832C654.593 494.343 552.247 593.721 429.204 639.273C313.327 682.171 179.112 658.354 74.9732 595.814C-13.9023 542.44 -29.2647 441.587 -54.8961 348.548C-81.4558 252.14 -124.994 152.527 -71.049 65.7712C-6.52386 -37.9995 108.196 -135.877 240.403 -126.358Z" fill="url(#paint0_linear_401_3928)"/>
<path fill-rule="evenodd" clip-rule="evenodd" d="M-144.969 406.784C-131.735 263.758 133.032 188.358 206.492 82.15C315.503 -75.4577 424.037 -90.4864 580.891 -75.4577C752.186 -59.0454 895.826 56.0608 961.666 194.444C1023.67 324.768 989.246 475.716 898.851 592.839C821.705 692.795 675.933 710.073 541.456 738.9C402.108 768.771 258.129 817.738 132.733 757.067C-22.6546 718.961 -158.727 555.474 -144.969 406.784Z" fill="url(#paint1_linear_401_3928)"/>
<path fill-rule="evenodd" clip-rule="evenodd" d="M1225.99 785.273C1068.69 774.909 1007.16 624.406 911.309 521.668C819.708 423.491 679.078 339.648 695.607 216.805C713.658 82.6524 840.256 -29.8417 992.456 -81.405C1135.79 -129.965 1301.81 -103.005 1430.63 -32.2104C1540.56 28.2076 1559.56 142.371 1591.27 247.689C1624.12 356.821 1677.98 469.581 1611.25 567.787C1531.43 685.253 1389.53 796.049 1225.99 785.273Z" fill="url(#paint2_linear_401_3928)"/>
</g>
<defs>
<linearGradient id="paint0_linear_401_3928" x1="286.745" y1="-127" x2="286.745" y2="661" gradientUnits="userSpaceOnUse">
<stop stop-color="#F55C7A"/>
<stop offset="1" stop-color="#1625AA"/>
</linearGradient>
<linearGradient id="paint1_linear_401_3928" x1="-159.73" y1="367.975" x2="979.237" y2="367.975" gradientUnits="userSpaceOnUse">
<stop stop-color="#F55C7A"/>
<stop offset="1" stop-color="#1625AA"/>
</linearGradient>
<linearGradient id="paint2_linear_401_3928" x1="1168.67" y1="786" x2="1168.67" y2="-106" gradientUnits="userSpaceOnUse">
<stop stop-color="#F55C7A"/>
<stop offset="1" stop-color="#1625AA"/>
</linearGradient>
<clipPath id="clip0_401_3928">
<rect width="1442" height="684" fill="white"/>
</clipPath>
</defs>
</svg>
