<svg width="231" height="230" viewBox="0 0 231 230" fill="none" xmlns="http://www.w3.org/2000/svg">
<circle cx="115.071" cy="115" r="111" stroke="white" stroke-width="8"/>
<path d="M143.371 106.71C146.434 103.647 146.434 98.7228 146.434 88.8642C146.434 79.0055 146.434 74.0814 143.371 71.0183M143.371 106.71C140.308 109.773 135.384 109.773 125.525 109.773H104.616C94.7575 109.773 89.8334 109.773 86.7702 106.71M143.371 71.0183C140.308 67.9551 135.384 67.9551 125.525 67.9551H104.616C94.7575 67.9551 89.8334 67.9551 86.7702 71.0183M86.7702 71.0183C83.707 74.0814 83.707 79.0055 83.707 88.8642C83.707 98.7228 83.707 103.647 86.7702 106.71M120.298 88.8642C120.298 90.2505 119.747 91.5801 118.767 92.5604C117.787 93.5407 116.457 94.0914 115.071 94.0914C113.684 94.0914 112.355 93.5407 111.374 92.5604C110.394 91.5801 109.843 90.2505 109.843 88.8642C109.843 87.4778 110.394 86.1482 111.374 85.1679C112.355 84.1876 113.684 83.6369 115.071 83.6369C116.457 83.6369 117.787 84.1876 118.767 85.1679C119.747 86.1482 120.298 87.4778 120.298 88.8642Z" stroke="white" stroke-width="7.5"/>
<path d="M146.434 83.6369C142.275 83.6369 138.286 81.9847 135.346 79.0438C132.405 76.1029 130.752 72.1142 130.752 67.9551M146.434 94.0914C142.275 94.0914 138.286 95.7436 135.346 98.6845C132.405 101.625 130.752 105.614 130.752 109.773M83.707 83.6369C87.8661 83.6369 91.8548 81.9847 94.7957 79.0438C97.7366 76.1029 99.3888 72.1142 99.3888 67.9551M83.707 94.0914C87.8661 94.0914 91.8548 95.7436 94.7957 98.6845C97.7366 101.625 99.3888 105.614 99.3888 109.773M73.2524 164.074H85.0661C90.3456 164.074 95.6931 164.628 100.832 165.684C110.005 167.569 119.445 167.778 128.693 166.301M123.832 149.067C124.459 148.993 125.06 148.91 125.635 148.821C130.397 148.063 134.396 145.512 138.055 142.747L147.506 135.612C149.192 134.385 151.223 133.725 153.308 133.725C155.393 133.725 157.424 134.385 159.11 135.612C162.106 137.875 163.026 141.602 161.128 144.644C158.917 148.188 155.802 152.721 152.812 155.491M123.832 149.067C123.64 149.089 123.448 149.11 123.257 149.129M123.832 149.067C124.668 148.84 125.435 148.409 126.064 147.812C126.851 147.131 127.494 146.298 127.955 145.364C128.416 144.43 128.685 143.413 128.746 142.374C128.808 141.334 128.66 140.292 128.313 139.311C127.965 138.329 127.424 137.427 126.722 136.657C126.041 135.901 125.248 135.254 124.37 134.739C109.749 126.014 86.9949 132.658 73.2524 142.407M123.832 149.067C123.643 149.108 123.45 149.129 123.257 149.129M123.257 149.129C120.104 149.446 116.928 149.453 113.774 149.15" stroke="white" stroke-width="7.5" stroke-linecap="round"/>
</svg>
