<svg width="126" height="126" viewBox="0 0 126 126" fill="none" xmlns="http://www.w3.org/2000/svg">
<g clip-path="url(#clip0_360_28858)">
<path d="M36.5909 73.1819C33.7159 73.1819 31.2539 72.1574 29.2048 70.1083C27.1557 68.0592 26.1329 65.5989 26.1364 62.7274C26.1364 59.8524 27.1609 57.3904 29.21 55.3413C31.2591 53.2922 33.7194 52.2694 36.5909 52.2729C39.4659 52.2729 41.928 53.2974 43.9771 55.3465C46.0262 57.3956 47.049 59.8559 47.0455 62.7274C47.0455 65.6024 46.0209 68.0644 43.9718 70.1135C41.9227 72.1626 39.4624 73.1854 36.5909 73.1819ZM36.5909 94.091C27.8788 94.091 20.4735 91.0418 14.375 84.9433C8.27654 78.8448 5.22729 71.4395 5.22729 62.7274C5.22729 54.0153 8.27654 46.61 14.375 40.5115C20.4735 34.413 27.8788 31.3638 36.5909 31.3638C42.4281 31.3638 47.7215 32.8013 52.4714 35.6763C57.2212 38.5513 60.9884 42.341 63.7727 47.0456H109.773L125.455 62.7274L101.932 86.2501L91.4773 78.4092L81.0227 86.2501L69.9148 78.4092H63.7727C60.9849 83.1138 57.216 86.9035 52.4662 89.7785C47.7163 92.6535 42.4246 94.091 36.5909 94.091ZM36.5909 83.6365C41.4697 83.6365 45.7613 82.1554 49.4657 79.1933C53.1701 76.2312 55.6304 72.485 56.8466 67.9547H73.1818L80.7614 73.3126L91.4773 65.341L100.756 72.5285L110.557 62.7274L105.33 57.5001H56.8466C55.6269 52.9698 53.1649 49.2236 49.4605 46.2615C45.7561 43.2994 41.4662 41.8183 36.5909 41.8183C30.8409 41.8183 25.9186 43.8657 21.8239 47.9604C17.7292 52.0551 15.6818 56.9774 15.6818 62.7274C15.6818 68.4774 17.7292 73.3997 21.8239 77.4944C25.9186 81.5891 30.8409 83.6365 36.5909 83.6365Z" fill="white"/>
</g>
<defs>
<clipPath id="clip0_360_28858">
<rect width="125.455" height="125.455" fill="white"/>
</clipPath>
</defs>
</svg>
