<svg width="231" height="230" viewBox="0 0 231 230" fill="none" xmlns="http://www.w3.org/2000/svg">
<circle cx="115.071" cy="115" r="111" stroke="white" stroke-width="8"/>
<g clip-path="url(#clip0_100_1758)">
<path d="M88.9342 125.455C86.0592 125.455 83.5971 124.43 81.5481 122.381C79.499 120.332 78.4762 117.872 78.4796 115C78.4796 112.125 79.5042 109.663 81.5533 107.614C83.6024 105.565 86.0627 104.542 88.9342 104.546C91.8092 104.546 94.2712 105.57 96.3203 107.619C98.3694 109.669 99.3922 112.129 99.3887 115C99.3887 117.875 98.3642 120.337 96.3151 122.386C94.266 124.436 91.8057 125.458 88.9342 125.455ZM88.9342 146.364C80.2221 146.364 72.8168 143.315 66.7183 137.216C60.6198 131.118 57.5706 123.712 57.5706 115C57.5706 106.288 60.6198 98.8829 66.7183 92.7844C72.8168 86.686 80.2221 83.6367 88.9342 83.6367C94.7713 83.6367 100.065 85.0742 104.815 87.9492C109.564 90.8242 113.332 94.614 116.116 99.3185H162.116L177.798 115L154.275 138.523L143.821 130.682L133.366 138.523L122.258 130.682H116.116C113.328 135.387 109.559 139.176 104.809 142.051C100.06 144.926 94.7678 146.364 88.9342 146.364ZM88.9342 135.909C93.813 135.909 98.1046 134.428 101.809 131.466C105.513 128.504 107.974 124.758 109.19 120.228H125.525L133.105 125.586L143.821 117.614L153.099 124.801L162.9 115L157.673 109.773H109.19C107.97 105.243 105.508 101.497 101.804 98.5344C98.0993 95.5723 93.8095 94.0913 88.9342 94.0913C83.1842 94.0913 78.2618 96.1386 74.1671 100.233C70.0725 104.328 68.0251 109.25 68.0251 115C68.0251 120.75 70.0725 125.673 74.1671 129.767C78.2618 133.862 83.1842 135.909 88.9342 135.909Z" fill="white"/>
</g>
<defs>
<clipPath id="clip0_100_1758">
<rect width="125.455" height="125.455" fill="white" transform="translate(52.3433 52.2734)"/>
</clipPath>
</defs>
</svg>
