<svg width="40" height="39" viewBox="0 0 40 39" fill="none" xmlns="http://www.w3.org/2000/svg">
<path d="M32.1967 34.125L21.9592 23.8875C21.1467 24.5375 20.2123 25.0521 19.1561 25.4312C18.0998 25.8104 16.9758 26 15.7842 26C12.8321 26 10.3339 24.9773 8.28968 22.932C6.24543 20.8867 5.22276 18.3885 5.22168 15.4375C5.22168 12.4854 6.24435 9.98725 8.28968 7.943C10.335 5.89875 12.8332 4.87608 15.7842 4.875C18.7363 4.875 21.2344 5.89767 23.2787 7.943C25.3229 9.98833 26.3456 12.4865 26.3467 15.4375C26.3467 16.6292 26.1571 17.7531 25.7779 18.8094C25.3988 19.8656 24.8842 20.8 24.2342 21.6125L34.4717 31.85L32.1967 34.125ZM15.7842 22.75C17.8154 22.75 19.5423 22.0388 20.9647 20.6164C22.3871 19.194 23.0978 17.4677 23.0967 15.4375C23.0967 13.4062 22.3855 11.6794 20.9631 10.257C19.5406 8.83458 17.8143 8.12392 15.7842 8.125C13.7529 8.125 12.0261 8.83621 10.6037 10.2586C9.18126 11.681 8.4706 13.4073 8.47168 15.4375C8.47168 17.4688 9.18289 19.1956 10.6053 20.618C12.0277 22.0404 13.754 22.7511 15.7842 22.75Z" fill="#A9A9A9"/>
</svg>
