<svg width="164" height="163" viewBox="0 0 164 163" fill="none" xmlns="http://www.w3.org/2000/svg">
<path d="M47.8335 149.416C44.0752 149.416 40.8567 148.085 38.178 145.423C35.4993 142.761 34.1623 139.564 34.1668 135.833C34.1668 132.098 35.5062 128.899 38.1848 126.236C40.8635 123.574 44.0797 122.245 47.8335 122.25C51.5918 122.25 54.8103 123.581 57.489 126.243C60.1677 128.906 61.5047 132.102 61.5002 135.833C61.5002 139.568 60.1608 142.767 57.4822 145.43C54.8035 148.092 51.5873 149.421 47.8335 149.416ZM116.167 149.416C112.408 149.416 109.19 148.085 106.511 145.423C103.833 142.761 102.496 139.564 102.5 135.833C102.5 132.098 103.839 128.899 106.518 126.236C109.197 123.574 112.413 122.245 116.167 122.25C119.925 122.25 123.144 123.581 125.822 126.243C128.501 128.906 129.838 132.102 129.833 135.833C129.833 139.568 128.494 142.767 125.815 145.43C123.137 148.092 119.921 149.421 116.167 149.416ZM47.8335 115.458C42.7085 115.458 38.8363 113.221 36.2168 108.748C33.5974 104.274 33.4835 99.8327 35.8752 95.4226L45.1002 78.783L20.5002 27.1664H13.496C11.5599 27.1664 9.96544 26.5144 8.71266 25.2104C7.45988 23.9064 6.8335 22.2945 6.8335 20.3747C6.8335 18.4504 7.4895 16.8362 8.8015 15.5322C10.1135 14.2282 11.7353 13.5785 13.6668 13.583H24.771C26.0238 13.583 27.2196 13.9226 28.3585 14.6018C29.4974 15.2809 30.3515 16.2431 30.921 17.4882L35.5335 27.1664H136.325C139.4 27.1664 141.507 28.2983 142.646 30.5622C143.785 32.8261 143.728 35.2032 142.475 37.6935L118.217 81.1601C116.964 83.424 115.313 85.1785 113.263 86.4237C111.213 87.6688 108.878 88.2914 106.258 88.2914H55.3502L47.8335 101.875H123.171C125.107 101.875 126.702 102.527 127.954 103.831C129.207 105.135 129.833 106.747 129.833 108.666C129.833 110.591 129.177 112.205 127.865 113.509C126.553 114.813 124.932 115.463 123 115.458H47.8335Z" fill="black"/>
</svg>
