<svg width="169" height="167" viewBox="0 0 169 167" fill="none" xmlns="http://www.w3.org/2000/svg">
<g clip-path="url(#clip0_637_29710)">
<path fill-rule="evenodd" clip-rule="evenodd" d="M84.4999 13.917C123.391 13.917 154.917 45.0695 154.917 83.5003C154.917 121.931 123.391 153.084 84.4999 153.084C45.6088 153.084 14.0833 121.931 14.0833 83.5003C14.0833 45.0695 45.6088 13.917 84.4999 13.917ZM29.6101 96.0949C32.0744 106.549 37.5411 116.077 45.3533 123.536C53.1654 130.994 62.9908 136.064 73.6487 138.137C72.2897 119.872 66.2127 108.912 58.5373 102.851C51.1858 97.0412 41.2148 94.7937 29.6101 96.088V96.0949ZM110.463 102.844C102.787 108.919 96.7102 119.872 95.3511 138.137C106.01 136.063 115.836 130.992 123.648 123.533C131.46 116.073 136.927 106.543 139.39 96.088C127.785 94.7937 117.814 97.0412 110.463 102.851V102.844ZM84.4999 27.8337C71.3755 27.8354 58.6632 32.3637 48.5563 40.6373C38.4495 48.9109 31.5818 60.4109 29.1383 73.1533L28.8355 74.8789L44.3976 71.8034C48.4959 70.9962 52.3899 68.86 56.7417 65.9584L60.1005 63.6482C65.7127 59.7098 74.029 55.667 84.4999 55.667C94.2738 55.667 102.167 59.1879 107.737 62.8619L112.258 65.9584C116.061 68.4982 119.525 70.4465 123.074 71.4415L124.602 71.8034L140.164 74.8789C138.082 61.7689 131.329 49.825 121.123 41.1995C110.917 32.5739 97.9294 27.834 84.4999 27.8337Z" fill="black"/>
</g>
<defs>
<clipPath id="clip0_637_29710">
<rect width="169" height="167" fill="white"/>
</clipPath>
</defs>
</svg>
