<svg width="50" height="49" xmlns="http://www.w3.org/2000/svg" xmlns:xlink="http://www.w3.org/1999/xlink" xml:space="preserve" overflow="hidden"><defs><clipPath id="clip0"><rect x="354" y="542" width="50" height="49"/></clipPath></defs><g clip-path="url(#clip0)" transform="translate(-354 -542)"><path d="M15.8229 15.8229 10.2083 15.8229 10.2083 12.25 15.8229 12.25 15.8229 15.8229ZM23.4792 12.25 23.4792 15.8229 17.8646 15.8229 17.8646 12.25 23.4792 12.25ZM31.1354 12.25 31.1354 15.8229 25.5208 15.8229 25.5208 12.25 31.1354 12.25ZM38.7917 12.25 38.7917 15.8229 33.1771 15.8229 33.1771 12.25 38.7917 12.25ZM38.7917 21.4375 33.1771 21.4375 33.1771 17.8646 38.7917 17.8646 38.7917 21.4375ZM38.7917 25.776 33.1771 26.2865 33.1771 23.4792 38.7917 23.4792 38.7917 25.776ZM15.8229 23.4792 15.8229 27.8177 10.2083 28.3281 10.2083 23.4792 15.8229 23.4792ZM15.8229 21.4375 10.2083 21.4375 10.2083 17.8646 15.8229 17.8646 15.8229 21.4375ZM23.4792 21.4375 17.8646 21.4375 17.8646 17.8646 23.4792 17.8646 23.4792 21.4375ZM25.5208 21.4375 25.5208 17.8646 31.1354 17.8646 31.1354 21.4375 25.5208 21.4375ZM23.4792 27.1542 17.8646 27.6646 17.8646 23.4792 23.4792 23.4792 23.4792 27.1542ZM25.5208 23.4792 31.1354 23.4792 31.1354 26.4396 25.5208 26.95 25.5208 23.4792ZM41.8542 28.5833 41.8542 9.1875 10.2083 9.1875 10.2083 8.67708C10.2083 6.125 8.16667 4.08333 5.61458 4.08333 4.74688 4.08333 4.08333 4.74688 4.08333 5.61458 4.08333 6.48229 4.74688 7.14583 5.61458 7.14583 6.48229 7.14583 7.14583 7.80938 7.14583 8.67708L7.14583 34.1979C7.14583 36.75 9.1875 38.7917 11.7396 38.7917L13.2708 38.7917 35.7292 38.7917 40.3229 38.7917C41.1906 38.7917 41.8542 38.1281 41.8542 37.2604 41.8542 36.3927 41.1906 35.7292 40.3229 35.7292L11.7396 35.7292C10.8719 35.7292 10.2083 35.0656 10.2083 34.1979L10.2083 31.3906 41.8542 28.5833Z" fill="#FFFFFF" transform="matrix(1.02041 0 0 1 354 542)"/><path d="M16.3333 41.8542C16.3333 43.5455 14.9622 44.9167 13.2708 44.9167 11.5795 44.9167 10.2083 43.5455 10.2083 41.8542 10.2083 40.1628 11.5795 38.7917 13.2708 38.7917 14.9622 38.7917 16.3333 40.1628 16.3333 41.8542Z" fill="#FFFFFF" transform="matrix(1.02041 0 0 1 354 542)"/><path d="M38.7917 41.8542C38.7917 43.5455 37.4205 44.9167 35.7292 44.9167 34.0378 44.9167 32.6667 43.5455 32.6667 41.8542 32.6667 40.1628 34.0378 38.7917 35.7292 38.7917 37.4205 38.7917 38.7917 40.1628 38.7917 41.8542Z" fill="#FFFFFF" transform="matrix(1.02041 0 0 1 354 542)"/></g></svg>