<svg width="49" height="49" xmlns="http://www.w3.org/2000/svg" xmlns:xlink="http://www.w3.org/1999/xlink" xml:space="preserve" overflow="hidden"><defs><clipPath id="clip0"><rect x="674" y="544" width="49" height="49"/></clipPath></defs><g clip-path="url(#clip0)" transform="translate(-674 -544)"><path d="M698.503 549.104C687.791 549.104 679.107 557.788 679.107 568.5 679.107 579.212 687.791 587.896 698.503 587.896 709.215 587.896 717.899 579.212 717.899 568.5 717.899 557.788 709.215 549.104 698.503 549.104ZM700.639 583.659 701.821 575.391C699.727 576.414 697.279 576.414 695.185 575.391L696.366 583.659C687.998 582.486 682.166 574.752 683.339 566.384 683.436 565.69 683.581 565.003 683.772 564.329L690.871 568.988C690.861 568.826 690.847 568.665 690.847 568.5 690.848 566.299 691.799 564.206 693.456 562.757L685.556 560.34C690.053 553.189 699.495 551.038 706.645 555.535 708.587 556.756 710.229 558.398 711.45 560.34L703.55 562.757C705.207 564.206 706.158 566.299 706.159 568.5 706.159 568.665 706.145 568.826 706.135 568.988L713.234 564.329C715.541 572.458 710.823 580.918 702.694 583.226 702.02 583.417 701.333 583.562 700.639 583.659Z" fill="#FFFFFF"/><path d="M698.503 562.885C695.402 562.885 692.888 565.399 692.888 568.5 692.888 571.601 695.402 574.115 698.503 574.115 701.604 574.115 704.118 571.601 704.118 568.5 704.114 565.401 701.603 562.889 698.503 562.885ZM698.503 571.052C697.094 571.052 695.951 569.909 695.951 568.5 695.951 567.091 697.094 565.948 698.503 565.948 699.913 565.948 701.055 567.091 701.055 568.5 701.053 569.909 699.912 571.05 698.503 571.052Z" fill="#FFFFFF"/></g></svg>