<svg width="49" height="48" viewBox="0 0 49 48" fill="none" xmlns="http://www.w3.org/2000/svg">
<path fill-rule="evenodd" clip-rule="evenodd" d="M24.4205 42C34.3615 42 42.4205 33.941 42.4205 24C42.4205 14.059 34.3615 6 24.4205 6C14.4795 6 6.42053 14.059 6.42053 24C6.42053 33.941 14.4795 42 24.4205 42ZM24.4205 44C35.4665 44 44.4205 35.046 44.4205 24C44.4205 12.954 35.4665 4 24.4205 4C13.3745 4 4.42053 12.954 4.42053 24C4.42053 35.046 13.3745 44 24.4205 44Z" fill="#111439"/>
<path d="M12.4205 35.6298C12.4205 34.5968 13.1925 33.7238 14.2205 33.6098C21.9355 32.7558 26.9405 32.8328 34.6385 33.6288C35.0229 33.6691 35.3873 33.8206 35.687 34.0646C35.9868 34.3086 36.209 34.6347 36.3265 35.0029C36.444 35.3711 36.4517 35.7656 36.3488 36.1382C36.2458 36.5107 36.0365 36.8452 35.7465 37.1008C26.6615 45.0198 21.4695 44.9108 13.0605 37.1088C12.6505 36.7288 12.4205 36.1878 12.4205 35.6298Z" fill="#111439"/>
<path fill-rule="evenodd" clip-rule="evenodd" d="M34.5355 34.6233C26.8985 33.8333 21.9655 33.7593 14.3295 34.6043C14.0782 34.6336 13.8465 34.7545 13.6787 34.944C13.511 35.1335 13.4191 35.3782 13.4205 35.6313C13.4205 35.9173 13.5395 36.1883 13.7405 36.3763C17.9085 40.2423 21.0665 41.9893 24.1535 42.0003C27.2515 42.0113 30.5795 40.2783 35.0895 36.3483C35.2328 36.2207 35.336 36.0543 35.3864 35.8693C35.4369 35.6842 35.4325 35.4885 35.3739 35.3059C35.3152 35.1233 35.2047 34.9616 35.0559 34.8406C34.9071 34.7196 34.7263 34.6435 34.5355 34.6233ZM14.1105 32.6163C21.9065 31.7533 26.9845 31.8313 34.7425 32.6343C35.3208 32.6946 35.869 32.9223 36.3199 33.2894C36.7708 33.6565 37.1049 34.1471 37.2813 34.7011C37.4576 35.2552 37.4686 35.8487 37.3129 36.4089C37.1572 36.9691 36.8415 37.4717 36.4045 37.8553C31.8295 41.8433 28.0195 44.0153 24.1475 44.0003C20.2645 43.9863 16.6225 41.7773 12.3815 37.8423C12.0779 37.5594 11.8358 37.217 11.6705 36.8364C11.5051 36.4558 11.42 36.0452 11.4205 35.6303C11.4191 34.8847 11.6927 34.1648 12.1891 33.6085C12.6855 33.0521 13.3696 32.6995 14.1105 32.6163Z" fill="#111439"/>
<path d="M32.4205 20C32.4205 22.1217 31.5777 24.1566 30.0774 25.6569C28.5771 27.1571 26.5423 28 24.4205 28C22.2988 28 20.264 27.1571 18.7637 25.6569C17.2634 24.1566 16.4205 22.1217 16.4205 20C16.4205 17.8783 17.2634 15.8434 18.7637 14.3431C20.264 12.8429 22.2988 12 24.4205 12C26.5423 12 28.5771 12.8429 30.0774 14.3431C31.5777 15.8434 32.4205 17.8783 32.4205 20Z" fill="#111439"/>
<path fill-rule="evenodd" clip-rule="evenodd" d="M24.4205 26C26.0118 26 27.538 25.3679 28.6632 24.2426C29.7884 23.1174 30.4205 21.5913 30.4205 20C30.4205 18.4087 29.7884 16.8826 28.6632 15.7574C27.538 14.6321 26.0118 14 24.4205 14C22.8292 14 21.3031 14.6321 20.1779 15.7574C19.0527 16.8826 18.4205 18.4087 18.4205 20C18.4205 21.5913 19.0527 23.1174 20.1779 24.2426C21.3031 25.3679 22.8292 26 24.4205 26ZM24.4205 28C26.5423 28 28.5771 27.1571 30.0774 25.6569C31.5777 24.1566 32.4205 22.1217 32.4205 20C32.4205 17.8783 31.5777 15.8434 30.0774 14.3431C28.5771 12.8429 26.5423 12 24.4205 12C22.2988 12 20.264 12.8429 18.7637 14.3431C17.2634 15.8434 16.4205 17.8783 16.4205 20C16.4205 22.1217 17.2634 24.1566 18.7637 25.6569C20.264 27.1571 22.2988 28 24.4205 28Z" fill="#111439"/>
</svg>
