<svg width="40" height="40" viewBox="0 0 40 40" fill="none" xmlns="http://www.w3.org/2000/svg">
<path fill-rule="evenodd" clip-rule="evenodd" d="M20 38C29.941 38 38 29.941 38 20C38 10.059 29.941 2 20 2C10.059 2 2 10.059 2 20C2 29.941 10.059 38 20 38ZM20 40C31.046 40 40 31.046 40 20C40 8.954 31.046 0 20 0C8.954 0 0 8.954 0 20C0 31.046 8.954 40 20 40Z" fill="#333333"/>
<path d="M8 31.63C8 30.597 8.772 29.724 9.8 29.61C17.515 28.756 22.52 28.833 30.218 29.629C30.6024 29.6694 30.9667 29.8208 31.2665 30.0648C31.5663 30.3089 31.7885 30.6349 31.906 31.0031C32.0235 31.3714 32.0312 31.7658 31.9282 32.1384C31.8252 32.5109 31.616 32.8454 31.326 33.101C22.241 41.02 17.049 40.911 8.64 33.109C8.23 32.729 8 32.188 8 31.63Z" fill="#333333"/>
<path fill-rule="evenodd" clip-rule="evenodd" d="M30.115 30.623C22.478 29.833 17.545 29.759 9.90901 30.604C9.65765 30.6333 9.42593 30.7543 9.25821 30.9438C9.09049 31.1333 8.99855 31.378 9.00001 31.631C9.00001 31.917 9.11901 32.188 9.32001 32.376C13.488 36.242 16.646 37.989 19.733 38C22.831 38.011 26.159 36.278 30.669 32.348C30.8123 32.2205 30.9154 32.0541 30.9659 31.869C31.0164 31.684 31.012 31.4883 30.9533 31.3056C30.8946 31.123 30.7842 30.9614 30.6354 30.8404C30.4865 30.7194 30.3058 30.6432 30.115 30.623ZM9.69001 28.616C17.486 27.753 22.564 27.831 30.322 28.634C30.9003 28.6944 31.4485 28.9221 31.8994 29.2892C32.3503 29.6563 32.6844 30.1469 32.8607 30.7009C33.0371 31.255 33.0481 31.8484 32.8924 32.4086C32.7367 32.9688 32.421 33.4715 31.984 33.855C27.409 37.843 23.599 40.015 19.727 40C15.844 39.986 12.202 37.777 7.96101 33.842C7.65736 33.5592 7.4153 33.2168 7.24995 32.8362C7.0846 32.4556 6.99951 32.045 7.00001 31.63C6.99855 30.8845 7.27221 30.1646 7.76857 29.6082C8.26493 29.0519 8.94909 28.6992 9.69001 28.616Z" fill="#333333"/>
<path d="M28 16C28 18.1217 27.1571 20.1566 25.6569 21.6569C24.1566 23.1571 22.1217 24 20 24C17.8783 24 15.8434 23.1571 14.3431 21.6569C12.8429 20.1566 12 18.1217 12 16C12 13.8783 12.8429 11.8434 14.3431 10.3431C15.8434 8.84285 17.8783 8 20 8C22.1217 8 24.1566 8.84285 25.6569 10.3431C27.1571 11.8434 28 13.8783 28 16Z" fill="#333333"/>
<path fill-rule="evenodd" clip-rule="evenodd" d="M20 22C21.5913 22 23.1174 21.3679 24.2426 20.2426C25.3679 19.1174 26 17.5913 26 16C26 14.4087 25.3679 12.8826 24.2426 11.7574C23.1174 10.6321 21.5913 10 20 10C18.4087 10 16.8826 10.6321 15.7574 11.7574C14.6321 12.8826 14 14.4087 14 16C14 17.5913 14.6321 19.1174 15.7574 20.2426C16.8826 21.3679 18.4087 22 20 22ZM20 24C22.1217 24 24.1566 23.1571 25.6569 21.6569C27.1571 20.1566 28 18.1217 28 16C28 13.8783 27.1571 11.8434 25.6569 10.3431C24.1566 8.84285 22.1217 8 20 8C17.8783 8 15.8434 8.84285 14.3431 10.3431C12.8429 11.8434 12 13.8783 12 16C12 18.1217 12.8429 20.1566 14.3431 21.6569C15.8434 23.1571 17.8783 24 20 24Z" fill="#333333"/>
</svg>
