<svg width="24" height="24" viewBox="0 0 24 24" fill="none" xmlns="http://www.w3.org/2000/svg">
<path fill-rule="evenodd" clip-rule="evenodd" d="M20.25 9V17.25H8.25V2.25H13.5V6.375C13.5 7.824 14.676 9 16.125 9H20.25ZM15.75 2.4315L20.0685 6.75H16.125C16.0255 6.75 15.9302 6.71049 15.8598 6.64017C15.7895 6.56984 15.75 6.47446 15.75 6.375V2.4315ZM7.5 0C7.10218 0 6.72064 0.158035 6.43934 0.43934C6.15804 0.720644 6 1.10218 6 1.5V4.5H3.375C2.34 4.5 1.5 5.34 1.5 6.375V22.125C1.5 23.16 2.34 24 3.375 24H15.75C16.785 24 17.625 23.16 17.625 22.125V19.62C17.6251 19.5799 17.6231 19.5399 17.619 19.5H21C21.3978 19.5 21.7794 19.342 22.0607 19.0607C22.342 18.7794 22.5 18.3978 22.5 18V6.621C22.4999 6.22321 22.3418 5.84174 22.0605 5.5605L16.9395 0.4395C16.6583 0.158176 16.2768 8.49561e-05 15.879 0H7.5ZM6 18V6.75H3.75V21.75H15.375V19.62C15.375 19.5795 15.3765 19.539 15.381 19.5H7.5C7.10218 19.5 6.72064 19.342 6.43934 19.0607C6.15804 18.7794 6 18.3978 6 18Z" fill="#333333"/>
</svg>
