<svg width="23" height="20" viewBox="0 0 23 20" fill="none" xmlns="http://www.w3.org/2000/svg">
<path d="M-2.48291 -5.37939H21.5171V14.5585H-2.48291V-5.37939Z" fill="white" fill-opacity="0.01"/>
<path d="M6.43457 14.4667C7.81528 14.4667 8.93457 13.5369 8.93457 12.3899C8.93457 11.2428 7.81528 10.313 6.43457 10.313C5.05386 10.313 3.93457 11.2428 3.93457 12.3899C3.93457 13.5369 5.05386 14.4667 6.43457 14.4667Z" stroke="#111439" stroke-width="1.5" stroke-linecap="round" stroke-linejoin="round"/>
<path d="M16.4346 14.4667C17.8153 14.4667 18.9346 13.5369 18.9346 12.3899C18.9346 11.2428 17.8153 10.313 16.4346 10.313C15.0539 10.313 13.9346 11.2428 13.9346 12.3899C13.9346 13.5369 15.0539 14.4667 16.4346 14.4667Z" stroke="#111439" stroke-width="1.5" stroke-linecap="round" stroke-linejoin="round"/>
<path d="M11.4346 6.15959C12.8153 6.15959 13.9346 5.22975 13.9346 4.08273C13.9346 2.9357 12.8153 2.00586 11.4346 2.00586C10.0539 2.00586 8.93457 2.9357 8.93457 4.08273C8.93457 5.22975 10.0539 6.15959 11.4346 6.15959Z" stroke="#111439" stroke-width="1.5" stroke-linecap="round" stroke-linejoin="round"/>
<path d="M11.4346 18.6205C11.4346 16.3265 9.19597 14.4668 6.43457 14.4668C3.67315 14.4668 1.43457 16.3265 1.43457 18.6205" stroke="#111439" stroke-width="1.5" stroke-linecap="round" stroke-linejoin="round"/>
<path d="M21.4346 18.6205C21.4346 16.3265 19.196 14.4668 16.4346 14.4668C13.6732 14.4668 11.4346 16.3265 11.4346 18.6205" stroke="#111439" stroke-width="1.5" stroke-linecap="round" stroke-linejoin="round"/>
<path d="M16.4346 10.3129C16.4346 8.01889 14.196 6.15918 11.4346 6.15918C8.67317 6.15918 6.43457 8.01889 6.43457 10.3129" stroke="#111439" stroke-width="1.5" stroke-linecap="round" stroke-linejoin="round"/>
</svg>
