<svg width="231" height="230" viewBox="0 0 231 230" fill="none" xmlns="http://www.w3.org/2000/svg">
<circle cx="115.071" cy="115" r="111" stroke="white" stroke-width="8"/>
<path d="M83.707 151.592V154.336C83.707 156.514 82.9664 158.344 81.4854 159.825C80.0043 161.306 78.1312 162.047 75.8661 162.047C73.688 162.047 71.8358 161.283 70.3095 159.757C68.7831 158.231 68.0217 156.38 68.0252 154.206V115.001L79.0024 83.6374C79.5252 82.0692 80.4608 80.806 81.8095 79.8477C83.1581 78.8893 84.6618 78.4102 86.3206 78.4102H143.821C145.476 78.4102 146.98 78.8893 148.332 79.8477C149.684 80.806 150.62 82.0692 151.139 83.6374L162.116 115.001V154.336C162.116 156.514 161.376 158.344 159.894 159.825C158.413 161.306 156.54 162.047 154.275 162.047C152.097 162.047 150.247 161.283 148.724 159.757C147.201 158.231 146.438 156.38 146.434 154.206V151.592H83.707ZM82.6615 104.547H147.48L141.991 88.8647H88.1502L82.6615 104.547ZM91.5479 135.91C93.7259 135.91 95.5781 135.147 97.1045 133.621C98.6308 132.094 99.3923 130.244 99.3888 128.069C99.3888 125.891 98.6256 124.039 97.0993 122.513C95.5729 120.986 93.7224 120.225 91.5479 120.228C89.3699 120.228 87.5177 120.992 85.9913 122.518C84.4649 124.044 83.7035 125.895 83.707 128.069C83.707 130.247 84.4702 132.099 85.9965 133.626C87.5229 135.152 89.3733 135.914 91.5479 135.91ZM138.593 135.91C140.771 135.91 142.624 135.147 144.15 133.621C145.676 132.094 146.438 130.244 146.434 128.069C146.434 125.891 145.671 124.039 144.145 122.513C142.618 120.986 140.768 120.225 138.593 120.228C136.415 120.228 134.563 120.992 133.037 122.518C131.51 124.044 130.749 125.895 130.752 128.069C130.752 130.247 131.516 132.099 133.042 133.626C134.568 135.152 136.419 135.914 138.593 135.91ZM78.4797 141.137H151.662V115.001H78.4797V141.137Z" fill="white"/>
</svg>
