<svg width="231" height="230" viewBox="0 0 231 230" fill="none" xmlns="http://www.w3.org/2000/svg">
<circle cx="115.071" cy="115" r="111" stroke="white" stroke-width="8"/>
<path d="M154.798 162.046L121.866 129.114C119.252 131.205 116.247 132.86 112.849 134.08C109.451 135.3 105.836 135.91 102.002 135.91C92.5062 135.91 84.4701 132.62 77.8942 126.041C71.3183 119.461 68.0286 111.425 68.0251 101.932C68.0251 92.4361 71.3148 84.4001 77.8942 77.8242C84.4736 71.2483 92.5097 67.9586 102.002 67.9551C111.499 67.9551 119.535 71.2448 126.111 77.8242C132.687 84.4036 135.976 92.4396 135.98 101.932C135.98 105.766 135.37 109.381 134.15 112.779C132.93 116.177 131.275 119.182 129.184 121.796L162.116 154.728L154.798 162.046ZM102.002 125.455C108.537 125.455 114.091 123.167 118.667 118.592C123.243 114.016 125.529 108.463 125.525 101.932C125.525 95.3983 123.237 89.8434 118.662 85.2678C114.086 80.6922 108.533 78.4061 102.002 78.4096C95.4683 78.4096 89.9135 80.6974 85.3379 85.273C80.7623 89.8486 78.4762 95.4017 78.4797 101.932C78.4797 108.466 80.7675 114.021 85.3431 118.597C89.9187 123.173 95.4718 125.459 102.002 125.455Z" fill="white"/>
</svg>
