<svg width="142" height="30" viewBox="0 0 142 30" fill="none" xmlns="http://www.w3.org/2000/svg">
<path d="M18.0956 8.62172C17.9276 8.45452 17.6157 8.22761 17.1598 7.94098C16.7279 7.65436 16.1881 7.37967 15.5403 7.11693C14.9164 6.85419 14.2326 6.62728 13.4888 6.43619C12.745 6.22122 11.9892 6.11374 11.2214 6.11374C9.87771 6.11374 8.85798 6.36454 8.16216 6.86613C7.49033 7.36773 7.15441 8.07235 7.15441 8.98C7.15441 9.67268 7.37036 10.2221 7.80225 10.6281C8.23414 11.0342 8.88197 11.3805 9.74575 11.6671C10.6095 11.9538 11.6892 12.2643 12.9849 12.5987C14.6645 13.0047 16.1161 13.5063 17.3398 14.1034C18.5875 14.6767 19.5352 15.441 20.1831 16.3965C20.8549 17.328 21.1908 18.57 21.1908 20.1226C21.1908 21.4841 20.9389 22.6545 20.435 23.6338C19.9311 24.5892 19.2353 25.3655 18.3475 25.9626C17.4598 26.5598 16.452 27.0016 15.3243 27.2883C14.1966 27.551 12.9969 27.6824 11.7252 27.6824C10.4536 27.6824 9.18189 27.551 7.91022 27.2883C6.63855 27.0255 5.41486 26.6553 4.23917 26.1776C3.06347 25.676 1.98375 25.0789 1 24.3862L3.19543 20.1226C3.41138 20.3376 3.79528 20.6242 4.34714 20.9825C4.899 21.3169 5.57082 21.6632 6.36262 22.0215C7.15441 22.3559 8.01819 22.6425 8.95395 22.8814C9.88971 23.1202 10.8375 23.2397 11.7972 23.2397C13.1409 23.2397 14.1606 23.0128 14.8564 22.5589C15.5523 22.1051 15.9002 21.4602 15.9002 20.6242C15.9002 19.8599 15.6242 19.2627 15.0724 18.8328C14.5205 18.4028 13.7527 18.0326 12.769 17.7221C11.7852 17.3877 10.6215 17.0294 9.27787 16.6473C7.67028 16.1934 6.32663 15.6918 5.24691 15.1425C4.16718 14.5692 3.36339 13.8527 2.83553 12.9928C2.30766 12.1329 2.04373 11.058 2.04373 9.76823C2.04373 8.02458 2.45163 6.56757 3.26742 5.39717C4.1072 4.2029 5.23491 3.30719 6.65054 2.71005C8.06618 2.08903 9.63777 1.77852 11.3653 1.77852C12.565 1.77852 13.6927 1.90989 14.7485 2.17263C15.8282 2.43537 16.8359 2.78171 17.7717 3.21165C18.7074 3.64159 19.5472 4.10736 20.291 4.60895L18.0956 8.62172Z" fill="white"/>
<path d="M33.1273 2.02932H37.7342L40.6494 10.449L43.6007 2.02932H48.1715L43.7806 13.6019L47.0198 21.699L54.2539 1.95766H59.6525L49.4311 27.3957H45.1483L40.6494 16.7189L36.1866 27.3957H31.9037L21.7183 1.95766H27.0449L34.315 21.699L37.4822 13.6019L33.1273 2.02932Z" fill="white"/>
<path d="M79.6946 1.95766L86.6048 21.5199L93.443 1.95766H98.6617L88.9802 27.3957H84.1934L74.4759 1.95766H79.6946Z" fill="white"/>
<path d="M119.133 23.0605V27.3957H101.389V1.95766H118.809V6.29288H106.356V12.4195H117.117V16.4323H106.356V23.0605H119.133Z" fill="white"/>
<path d="M123.005 27.3957V1.95766H127.971V23.0605H141V27.3957H123.005Z" fill="white"/>
<path d="M70.99 26.9272L66.3782 28.4684L61.3925 26.9272L64.7047 9.70285L63.1375 2.35982L66.3782 1L70.99 2.35982L68.6841 14.2356L70.99 26.9272Z" fill="white"/>
<path d="M61.3925 26.9272L66.3782 26.1113M61.3925 26.9272L66.3782 28.4684L70.99 26.9272M61.3925 26.9272L64.7047 9.70285M66.3782 26.1113L70.99 26.9272M66.3782 26.1113L68.6841 14.2356M70.99 26.9272L68.6841 14.2356M66.3782 1L70.99 2.35982L68.6841 14.2356M66.3782 1L64.7047 9.70285M66.3782 1L63.1375 2.35982L64.7047 9.70285M18.0956 8.62172C17.9276 8.45452 17.6157 8.22761 17.1598 7.94098C16.7279 7.65436 16.1881 7.37967 15.5403 7.11693C14.9164 6.85419 14.2326 6.62728 13.4888 6.43619C12.745 6.22122 11.9892 6.11374 11.2214 6.11374C9.87771 6.11374 8.85798 6.36454 8.16216 6.86613C7.49033 7.36773 7.15441 8.07235 7.15441 8.98C7.15441 9.67268 7.37036 10.2221 7.80225 10.6281C8.23414 11.0342 8.88197 11.3805 9.74575 11.6671C10.6095 11.9538 11.6892 12.2643 12.9849 12.5987C14.6645 13.0047 16.1161 13.5063 17.3398 14.1034C18.5875 14.6767 19.5352 15.441 20.1831 16.3965C20.8549 17.328 21.1908 18.57 21.1908 20.1226C21.1908 21.4841 20.9389 22.6545 20.435 23.6338C19.9311 24.5892 19.2353 25.3655 18.3475 25.9626C17.4598 26.5598 16.452 27.0016 15.3243 27.2883C14.1966 27.551 12.9969 27.6824 11.7252 27.6824C10.4536 27.6824 9.18189 27.551 7.91022 27.2883C6.63855 27.0255 5.41486 26.6553 4.23917 26.1776C3.06347 25.676 1.98375 25.0789 1 24.3862L3.19543 20.1226C3.41138 20.3376 3.79528 20.6242 4.34714 20.9825C4.899 21.3169 5.57082 21.6632 6.36262 22.0215C7.15441 22.3559 8.01819 22.6425 8.95395 22.8814C9.88971 23.1202 10.8375 23.2397 11.7972 23.2397C13.1409 23.2397 14.1606 23.0128 14.8564 22.5589C15.5523 22.1051 15.9002 21.4602 15.9002 20.6242C15.9002 19.8599 15.6242 19.2627 15.0724 18.8328C14.5205 18.4028 13.7527 18.0326 12.769 17.7221C11.7852 17.3877 10.6215 17.0294 9.27787 16.6473C7.67028 16.1934 6.32663 15.6918 5.24691 15.1425C4.16718 14.5692 3.36339 13.8527 2.83553 12.9928C2.30766 12.1329 2.04373 11.058 2.04373 9.76823C2.04373 8.02458 2.45163 6.56757 3.26742 5.39717C4.1072 4.2029 5.23491 3.30719 6.65054 2.71005C8.06618 2.08903 9.63777 1.77852 11.3653 1.77852C12.565 1.77852 13.6927 1.90989 14.7485 2.17263C15.8282 2.43537 16.8359 2.78171 17.7717 3.21165C18.7074 3.64159 19.5472 4.10736 20.291 4.60895L18.0956 8.62172ZM33.1273 2.02932H37.7342L40.6494 10.449L43.6006 2.02932H48.1715L43.7806 13.6019L47.0198 21.699L54.2539 1.95766H59.6525L49.4312 27.3957H45.1483L40.6494 16.7189L36.1866 27.3957H31.9037L21.7183 1.95766H27.0449L34.315 21.699L37.4822 13.6019L33.1273 2.02932ZM79.6946 1.95766L86.6048 21.5199L93.443 1.95766H98.6617L88.9802 27.3957H84.1934L74.4759 1.95766H79.6946ZM119.133 23.0605V27.3957H101.389V1.95766H118.809V6.29288H106.356V12.4195H117.117V16.4323H106.356V23.0605H119.133ZM123.005 27.3957V1.95766H127.971V23.0605H141V27.3957H123.005Z" stroke="#1F1F1F" stroke-width="1.02486"/>
</svg>
