<svg width="226" height="67" viewBox="0 0 226 67" fill="none" xmlns="http://www.w3.org/2000/svg">
<path d="M28.5069 24.016C28.2399 23.749 27.7439 23.3866 27.0191 22.9288C26.3325 22.471 25.4742 22.0323 24.4442 21.6127C23.4523 21.1931 22.3651 20.8307 21.1826 20.5255C20 20.1822 18.7983 20.0105 17.5776 20.0105C15.4413 20.0105 13.8201 20.4111 12.7138 21.2122C11.6457 22.0133 11.1116 23.1386 11.1116 24.5882C11.1116 25.6945 11.4549 26.5719 12.1416 27.2204C12.8282 27.8689 13.8582 28.4221 15.2315 28.8798C16.6048 29.3376 18.3215 29.8335 20.3815 30.3676C23.0518 31.0161 25.3597 31.8172 27.3052 32.7709C29.2889 33.6864 30.7957 34.9071 31.8257 36.433C32.8939 37.9208 33.4279 39.9045 33.4279 42.3841C33.4279 44.5585 33.0274 46.4277 32.2263 47.9918C31.4252 49.5177 30.3189 50.7575 28.9074 51.7111C27.496 52.6648 25.8938 53.3706 24.1008 53.8283C22.3079 54.248 20.4005 54.4578 18.3787 54.4578C16.3569 54.4578 14.3351 54.248 12.3132 53.8283C10.2914 53.4087 8.34589 52.8174 6.47666 52.0545C4.60743 51.2534 2.89079 50.2997 1.32674 49.1934L4.81724 42.3841C5.16057 42.7274 5.77093 43.1852 6.64833 43.7574C7.52572 44.2914 8.59385 44.8446 9.85272 45.4168C11.1116 45.9509 12.4849 46.4086 13.9727 46.7901C15.4604 47.1716 16.9672 47.3623 18.4931 47.3623C20.6294 47.3623 22.2507 46.9999 23.357 46.2751C24.4632 45.5503 25.0164 44.5203 25.0164 43.1852C25.0164 41.9644 24.5777 41.0108 23.7003 40.3241C22.8229 39.6374 21.6022 39.0462 20.0381 38.5502C18.4741 38.0162 16.6239 37.444 14.4877 36.8336C11.9318 36.1088 9.7955 35.3077 8.07886 34.4303C6.36222 33.5148 5.08428 32.3703 4.24503 30.997C3.40578 29.6237 2.98616 27.9071 2.98616 25.8471C2.98616 23.0623 3.63467 20.7353 4.93169 18.8661C6.26685 16.9587 8.05979 15.5282 10.3105 14.5745C12.5612 13.5827 15.0599 13.0867 17.8065 13.0867C19.7139 13.0867 21.5068 13.2965 23.1853 13.7162C24.9019 14.1358 26.5041 14.6889 27.9919 15.3756C29.4796 16.0622 30.8148 16.8061 31.9974 17.6072L28.5069 24.016ZM52.4057 13.4873H59.7301L64.365 26.9343L69.0572 13.4873H76.3243L69.3433 31.9698L74.4932 44.9018L85.9947 13.3728H94.5779L78.327 54H71.5177L64.365 36.948L57.2696 54H50.4602L34.2666 13.3728H42.7353L54.294 44.9018L59.3295 31.9698L52.4057 13.4873ZM126.443 13.3728L137.429 44.6157L148.301 13.3728H156.598L141.206 54H133.595L118.145 13.3728H126.443ZM189.145 47.0762V54H160.935V13.3728H188.63V20.2966H168.831V30.0815H185.94V36.4903H168.831V47.0762H189.145ZM195.301 54V13.3728H203.197V47.0762H223.912V54H195.301Z" fill="black"/>
<path d="M28.5069 24.016L27.425 25.0979L28.8719 26.5447L29.8505 24.7478L28.5069 24.016ZM27.0191 22.9288L26.1704 24.2018L26.1862 24.2123L26.2021 24.2224L27.0191 22.9288ZM24.4442 21.6127L23.848 23.0218L23.8574 23.0258L23.8669 23.0296L24.4442 21.6127ZM21.1826 20.5255L20.756 21.9948L20.778 22.0012L20.8002 22.007L21.1826 20.5255ZM12.7138 21.2122L11.8164 19.973L11.806 19.9805L11.7958 19.9882L12.7138 21.2122ZM15.2315 28.8798L14.7477 30.3313L14.7477 30.3313L15.2315 28.8798ZM20.3815 30.3676L19.9975 31.8486L20.0089 31.8516L20.0204 31.8544L20.3815 30.3676ZM27.3052 32.7709L26.6318 34.1447L26.6478 34.1526L26.6641 34.1601L27.3052 32.7709ZM31.8257 36.433L30.5576 37.289L30.57 37.3074L30.5829 37.3254L31.8257 36.433ZM32.2263 47.9918L33.5809 48.703L33.5845 48.6961L33.588 48.6892L32.2263 47.9918ZM24.1008 53.8283L24.4495 55.3181L24.4645 55.3146L24.4793 55.3108L24.1008 53.8283ZM6.47666 52.0545L5.87397 53.4608L5.88618 53.466L5.89848 53.471L6.47666 52.0545ZM1.32674 49.1934L-0.0347989 48.4955L-0.640086 49.6763L0.44322 50.4425L1.32674 49.1934ZM4.81724 42.3841L5.89912 41.3022L4.41386 39.8169L3.4557 41.6861L4.81724 42.3841ZM6.64833 43.7574L5.81254 45.0389L5.83248 45.0519L5.85281 45.0643L6.64833 43.7574ZM9.85272 45.4168L9.2196 46.8097L9.23729 46.8177L9.25518 46.8253L9.85272 45.4168ZM13.9727 46.7901L13.5926 48.2722H13.5926L13.9727 46.7901ZM23.357 46.2751L22.5185 44.9953H22.5185L23.357 46.2751ZM20.0381 38.5502L19.5437 39.9981L19.5596 40.0036L19.5757 40.0087L20.0381 38.5502ZM14.4877 36.8336L14.908 35.3625L14.9051 35.3616L14.4877 36.8336ZM8.07886 34.4303L7.35886 35.7803L7.37065 35.7866L7.38254 35.7927L8.07886 34.4303ZM4.24503 30.997L2.93951 31.7948H2.93951L4.24503 30.997ZM4.93169 18.8661L3.67825 17.9887L3.67466 17.9939L4.93169 18.8661ZM10.3105 14.5745L10.9074 15.9832L10.9175 15.979L10.9275 15.9746L10.3105 14.5745ZM23.1853 13.7162L22.8142 15.2005L22.822 15.2024L23.1853 13.7162ZM27.9919 15.3756L28.6331 13.9864H28.6331L27.9919 15.3756ZM31.9974 17.6072L33.341 18.339L34.0053 17.1194L32.8555 16.3405L31.9974 17.6072ZM29.5888 22.9341C29.1909 22.5363 28.5671 22.0969 27.8361 21.6352L26.2021 24.2224C26.9207 24.6763 27.2888 24.9616 27.425 25.0979L29.5888 22.9341ZM27.8678 21.6558C27.0721 21.1253 26.116 20.6417 25.0214 20.1958L23.8669 23.0296C24.8323 23.4229 25.5928 23.8168 26.1704 24.2018L27.8678 21.6558ZM25.0403 20.2036C23.9706 19.7511 22.8109 19.3656 21.5649 19.044L20.8002 22.007C21.9193 22.2958 22.9341 22.6351 23.848 23.0218L25.0403 20.2036ZM21.6091 19.0562C20.2892 18.673 18.9439 18.4805 17.5776 18.4805V21.5405C18.6527 21.5405 19.7108 21.6914 20.756 21.9948L21.6091 19.0562ZM17.5776 18.4805C15.2883 18.4805 13.2937 18.9032 11.8164 19.973L13.6112 22.4514C14.3465 21.9189 15.5944 21.5405 17.5776 21.5405V18.4805ZM11.7958 19.9882C10.3057 21.1057 9.58159 22.7049 9.58159 24.5882H12.6416C12.6416 23.5724 12.9856 22.9208 13.6318 22.4362L11.7958 19.9882ZM9.58159 24.5882C9.58159 26.037 10.0456 27.3454 11.091 28.3327L13.1921 26.1081C12.8642 25.7984 12.6416 25.352 12.6416 24.5882H9.58159ZM11.091 28.3327C12.0028 29.1938 13.2648 29.837 14.7477 30.3313L15.7154 27.4283C14.4517 27.0071 13.6537 26.544 13.1921 26.1081L11.091 28.3327ZM14.7477 30.3313C16.1653 30.8038 17.9179 31.3095 19.9975 31.8486L20.7654 28.8865C18.725 28.3576 17.0444 27.8713 15.7154 27.4283L14.7477 30.3313ZM20.0204 31.8544C22.6101 32.4833 24.8084 33.2509 26.6318 34.1447L27.9787 31.3971C25.911 30.3835 23.4935 29.5489 20.7425 28.8808L20.0204 31.8544ZM26.6641 34.1601C28.4418 34.9805 29.711 36.0349 30.5576 37.289L33.0939 35.577C31.8805 33.7794 30.136 32.3923 27.9464 31.3817L26.6641 34.1601ZM30.5829 37.3254C31.4084 38.4752 31.8979 40.1133 31.8979 42.3841H34.9579C34.9579 39.6957 34.3793 37.3664 33.0686 35.5407L30.5829 37.3254ZM31.8979 42.3841C31.8979 44.3725 31.5319 45.9913 30.8645 47.2943L33.588 48.6892C34.5229 46.8641 34.9579 44.7445 34.9579 42.3841H31.8979ZM30.8716 47.2806C30.1866 48.5854 29.2503 49.633 28.0509 50.4434L29.764 52.9789C31.3875 51.882 32.6638 50.4499 33.5809 48.703L30.8716 47.2806ZM28.0509 50.4434C26.7973 51.2904 25.3595 51.9279 23.7223 52.3459L24.4793 55.3108C26.4281 54.8132 28.1946 54.0393 29.764 52.9789L28.0509 50.4434ZM23.7522 52.3386C22.0841 52.729 20.2945 52.9278 18.3787 52.9278V55.9878C20.5066 55.9878 22.5317 55.7669 24.4495 55.3181L23.7522 52.3386ZM18.3787 52.9278C16.4636 52.9278 14.5459 52.7291 12.6242 52.3303L12.0023 55.3264C14.1242 55.7668 16.2502 55.9878 18.3787 55.9878V52.9278ZM12.6242 52.3303C10.6916 51.9292 8.83572 51.3648 7.05484 50.6379L5.89848 53.471C7.85607 54.27 9.89119 54.8883 12.0023 55.3264L12.6242 52.3303ZM7.07936 50.6482C5.30296 49.8869 3.68128 48.9848 2.21026 47.9443L0.44322 50.4425C2.1003 51.6146 3.9119 52.6199 5.87397 53.4608L7.07936 50.6482ZM2.68828 49.8913L6.17878 43.082L3.4557 41.6861L-0.0347989 48.4955L2.68828 49.8913ZM3.73537 43.4659C4.19877 43.9293 4.92395 44.4594 5.81254 45.0389L7.48412 42.4758C6.61791 41.9109 6.12237 41.5254 5.89912 41.3022L3.73537 43.4659ZM5.85281 45.0643C6.79692 45.639 7.92266 46.2201 9.2196 46.8097L10.4858 44.0239C9.26504 43.469 8.25452 42.9439 7.44385 42.4505L5.85281 45.0643ZM9.25518 46.8253C10.5926 47.3927 12.0395 47.8739 13.5926 48.2722L14.3527 45.3081C12.9303 44.9433 11.6306 44.509 10.4503 44.0083L9.25518 46.8253ZM13.5926 48.2722C15.2037 48.6853 16.8382 48.8923 18.4931 48.8923V45.8323C17.0963 45.8323 15.7171 45.6579 14.3527 45.3081L13.5926 48.2722ZM18.4931 48.8923C20.7607 48.8923 22.7299 48.5151 24.1954 47.5549L22.5185 44.9953C21.7714 45.4848 20.4981 45.8323 18.4931 45.8323V48.8923ZM24.1954 47.5549C25.7382 46.5441 26.5464 45.0303 26.5464 43.1852H23.4864C23.4864 44.0104 23.1883 44.5565 22.5185 44.9953L24.1954 47.5549ZM26.5464 43.1852C26.5464 41.5455 25.93 40.1262 24.6432 39.1192L22.7573 41.529C23.2254 41.8953 23.4864 42.3834 23.4864 43.1852H26.5464ZM24.6432 39.1192C23.5712 38.2802 22.164 37.6192 20.5006 37.0918L19.5757 40.0087C21.0403 40.4731 22.0746 40.9947 22.7573 41.529L24.6432 39.1192ZM20.5325 37.1023C18.9373 36.5576 17.0613 35.9777 14.908 35.3625L14.0673 38.3047C16.1866 38.9102 18.0108 39.4747 19.5437 39.9981L20.5325 37.1023ZM14.9051 35.3616C12.4122 34.6547 10.3764 33.8863 8.77518 33.0679L7.38254 35.7927C9.21462 36.7291 11.4513 37.5629 14.0702 38.3056L14.9051 35.3616ZM8.79886 33.0803C7.27284 32.2664 6.22034 31.2952 5.55055 30.1992L2.93951 31.7948C3.94822 33.4454 5.4516 34.7631 7.35886 35.7803L8.79886 33.0803ZM5.55055 30.1992C4.89392 29.1247 4.51616 27.7032 4.51616 25.8471H1.45616C1.45616 28.1109 1.91765 30.1227 2.93951 31.7948L5.55055 30.1992ZM4.51616 25.8471C4.51616 23.3034 5.10589 21.2989 6.18872 19.7383L3.67466 17.9939C2.16345 20.1718 1.45616 22.8213 1.45616 25.8471H4.51616ZM6.18511 19.7435C7.34723 18.0833 8.90724 16.8308 10.9074 15.9832L9.71357 13.1657C7.21233 14.2256 5.18647 15.8341 3.67826 17.9887L6.18511 19.7435ZM10.9275 15.9746C12.9622 15.0779 15.2474 14.6167 17.8065 14.6167V11.5567C14.8723 11.5567 12.1602 12.0874 9.69351 13.1744L10.9275 15.9746ZM17.8065 14.6167C19.6014 14.6167 21.2688 14.8141 22.8142 15.2005L23.5564 12.2318C21.7449 11.779 19.8263 11.5567 17.8065 11.5567V14.6167ZM22.822 15.2024C24.4505 15.6005 25.9589 16.1224 27.3507 16.7648L28.6331 13.9864C27.0494 13.2555 25.3534 12.6711 23.5486 12.2299L22.822 15.2024ZM27.3507 16.7648C28.7737 17.4215 30.0347 18.1257 31.1393 18.8739L32.8555 16.3405C31.5949 15.4865 30.1856 14.703 28.6331 13.9864L27.3507 16.7648ZM30.6537 16.8754L27.1632 23.2842L29.8505 24.7478L33.341 18.339L30.6537 16.8754ZM52.4057 13.4873V11.9573H50.1987L50.973 14.024L52.4057 13.4873ZM59.7301 13.4873L61.1766 12.9887L60.821 11.9573H59.7301V13.4873ZM64.365 26.9343L62.9185 27.4329L64.3561 31.6037L65.8096 27.4384L64.365 26.9343ZM69.0572 13.4873V11.9573H67.9706L67.6126 12.9832L69.0572 13.4873ZM76.3243 13.4873L77.7556 14.0279L78.5377 11.9573H76.3243V13.4873ZM69.3433 31.9698L67.912 31.4292L67.7022 31.9844L67.9218 32.5358L69.3433 31.9698ZM74.4932 44.9018L73.0717 45.4679L74.5558 49.1946L75.9305 45.4261L74.4932 44.9018ZM85.9947 13.3728V11.8428H84.9242L84.5573 12.8485L85.9947 13.3728ZM94.5779 13.3728L95.9984 13.9411L96.8377 11.8428H94.5779V13.3728ZM78.327 54V55.53H79.3629L79.7476 54.5682L78.327 54ZM71.5177 54L70.1068 54.5918L70.5003 55.53H71.5177V54ZM64.365 36.948L65.7759 36.3562L64.3593 32.9791L62.9524 36.3602L64.365 36.948ZM57.2696 54V55.53H58.2901L58.6821 54.5878L57.2696 54ZM50.4602 54L49.039 54.5665L49.423 55.53H50.4602V54ZM34.2666 13.3728V11.8428H32.0097L32.8453 13.9393L34.2666 13.3728ZM42.7353 13.3728L44.1718 12.8462L43.804 11.8428H42.7353V13.3728ZM54.294 44.9018L52.8575 45.4284L54.2509 49.2292L55.7198 45.457L54.294 44.9018ZM59.3295 31.9698L60.7553 32.5249L60.9673 31.9803L60.7623 31.433L59.3295 31.9698ZM52.4057 15.0173H59.7301V11.9573H52.4057V15.0173ZM58.2836 13.9859L62.9185 27.4329L65.8115 26.4357L61.1766 12.9887L58.2836 13.9859ZM65.8096 27.4384L70.5017 13.9914L67.6126 12.9832L62.9204 26.4302L65.8096 27.4384ZM69.0572 15.0173H76.3243V11.9573H69.0572V15.0173ZM74.893 12.9467L67.912 31.4292L70.7746 32.5104L77.7556 14.0279L74.893 12.9467ZM67.9218 32.5358L73.0717 45.4679L75.9146 44.3357L70.7647 31.4037L67.9218 32.5358ZM75.9305 45.4261L87.432 13.8972L84.5573 12.8485L73.0558 44.3775L75.9305 45.4261ZM85.9947 14.9028H94.5779V11.8428H85.9947V14.9028ZM93.1573 12.8046L76.9064 53.4318L79.7476 54.5682L95.9984 13.9411L93.1573 12.8046ZM78.327 52.47H71.5177V55.53H78.327V52.47ZM72.9286 53.4082L65.7759 36.3562L62.9541 37.5399L70.1068 54.5918L72.9286 53.4082ZM62.9524 36.3602L55.857 53.4122L58.6821 54.5878L65.7776 37.5358L62.9524 36.3602ZM57.2696 52.47H50.4602V55.53H57.2696V52.47ZM51.8815 53.4335L35.6878 12.8063L32.8453 13.9393L49.039 54.5665L51.8815 53.4335ZM34.2666 14.9028H42.7353V11.8428H34.2666V14.9028ZM41.2988 13.8995L52.8575 45.4284L55.7306 44.3752L44.1718 12.8462L41.2988 13.8995ZM55.7198 45.457L60.7553 32.5249L57.9038 31.4146L52.8683 44.3467L55.7198 45.457ZM60.7623 31.433L53.8385 12.9506L50.973 14.024L57.8968 32.5065L60.7623 31.433ZM126.443 13.3728L127.886 12.8653L127.526 11.8428H126.443V13.3728ZM137.429 44.6157L135.986 45.1233L137.437 49.2493L138.874 45.1185L137.429 44.6157ZM148.301 13.3728V11.8428H147.214L146.856 12.87L148.301 13.3728ZM156.598 13.3728L158.029 13.9149L158.814 11.8428H156.598V13.3728ZM141.206 54V55.53H142.262L142.636 54.5421L141.206 54ZM133.595 54L132.165 54.5438L132.54 55.53H133.595V54ZM118.145 13.3728V11.8428H115.927L116.715 13.9167L118.145 13.3728ZM124.999 13.8804L135.986 45.1233L138.872 44.1081L127.886 12.8653L124.999 13.8804ZM138.874 45.1185L149.746 13.8757L146.856 12.87L135.984 44.1129L138.874 45.1185ZM148.301 14.9028H156.598V11.8428H148.301V14.9028ZM155.167 12.8308L139.775 53.4579L142.636 54.5421L158.029 13.9149L155.167 12.8308ZM141.206 52.47H133.595V55.53H141.206V52.47ZM135.025 53.4562L119.576 12.829L116.715 13.9167L132.165 54.5438L135.025 53.4562ZM118.145 14.9028H126.443V11.8428H118.145V14.9028ZM189.145 47.0762H190.675V45.5462H189.145V47.0762ZM189.145 54V55.53H190.675V54H189.145ZM160.935 54H159.405V55.53H160.935V54ZM160.935 13.3728V11.8428H159.405V13.3728H160.935ZM188.63 13.3728H190.16V11.8428H188.63V13.3728ZM188.63 20.2966V21.8266H190.16V20.2966H188.63ZM168.831 20.2966V18.7666H167.301V20.2966H168.831ZM168.831 30.0815H167.301V31.6115H168.831V30.0815ZM185.94 30.0815H187.47V28.5515H185.94V30.0815ZM185.94 36.4903V38.0203H187.47V36.4903H185.94ZM168.831 36.4903V34.9603H167.301V36.4903H168.831ZM168.831 47.0762H167.301V48.6062H168.831V47.0762ZM187.615 47.0762V54H190.675V47.0762H187.615ZM189.145 52.47H160.935V55.53H189.145V52.47ZM162.465 54V13.3728H159.405V54H162.465ZM160.935 14.9028H188.63V11.8428H160.935V14.9028ZM187.1 13.3728V20.2966H190.16V13.3728H187.1ZM188.63 18.7666H168.831V21.8266H188.63V18.7666ZM167.301 20.2966V30.0815H170.361V20.2966H167.301ZM168.831 31.6115H185.94V28.5515H168.831V31.6115ZM184.41 30.0815V36.4903H187.47V30.0815H184.41ZM185.94 34.9603H168.831V38.0203H185.94V34.9603ZM167.301 36.4903V47.0762H170.361V36.4903H167.301ZM168.831 48.6062H189.145V45.5462H168.831V48.6062ZM195.301 54H193.771V55.53H195.301V54ZM195.301 13.3728V11.8428H193.771V13.3728H195.301ZM203.197 13.3728H204.727V11.8428H203.197V13.3728ZM203.197 47.0762H201.667V48.6062H203.197V47.0762ZM223.912 47.0762H225.442V45.5462H223.912V47.0762ZM223.912 54V55.53H225.442V54H223.912ZM196.831 54V13.3728H193.771V54H196.831ZM195.301 14.9028H203.197V11.8428H195.301V14.9028ZM201.667 13.3728V47.0762H204.727V13.3728H201.667ZM203.197 48.6062H223.912V45.5462H203.197V48.6062ZM222.382 47.0762V54H225.442V47.0762H222.382ZM223.912 52.47H195.301V55.53H223.912V52.47Z" fill="white"/>
<path d="M112.603 52.8517L105.271 55.3131L97.3442 52.8517L102.61 25.3427L100.119 13.6151L105.271 11.4434L112.603 13.6151L108.937 32.5819L112.603 52.8517Z" fill="black"/>
<path d="M97.3442 52.8517L105.271 51.5487M97.3442 52.8517L105.271 55.3131L112.603 52.8517M97.3442 52.8517L102.61 25.3427M105.271 51.5487L112.603 52.8517M105.271 51.5487L108.937 32.5819M112.603 52.8517L108.937 32.5819M105.271 11.4434L112.603 13.6151L108.937 32.5819M105.271 11.4434L102.61 25.3427M105.271 11.4434L100.119 13.6151L102.61 25.3427" stroke="white" stroke-width="1.5259"/>
</svg>
