<svg width="602" height="717" viewBox="0 0 602 717" fill="none" xmlns="http://www.w3.org/2000/svg">
<path fill-rule="evenodd" clip-rule="evenodd" d="M-66.1885 -89.4821C7.33011 -160.802 106.928 -194.225 197.117 -201.181C288.596 -208.237 374.128 -187.118 421.688 -127.113C468.441 -68.1259 481.157 21.1705 442.004 107.784C407.208 184.76 309.152 216.32 239.824 275.209C169.33 335.088 120.466 441.151 38.5607 450.478C-43.6004 459.834 -66.9108 371.595 -104.51 314.42C-137.319 264.532 -167.739 214.202 -161.319 146.535C-153.698 66.2082 -135.018 -22.7109 -66.1885 -89.4821Z" fill="url(#paint0_linear_554_2964)"/>
<path fill-rule="evenodd" clip-rule="evenodd" d="M896.337 618.482C822.818 689.802 723.221 723.225 633.031 730.181C541.553 737.237 456.021 716.118 408.46 656.113C361.707 597.126 348.992 507.829 388.144 421.216C422.941 344.24 520.996 312.68 590.325 253.791C660.818 193.912 709.683 87.8495 791.588 78.5224C873.749 69.1662 897.059 157.405 934.659 214.58C967.467 264.468 997.887 314.798 991.467 382.465C983.846 462.792 965.167 551.711 896.337 618.482Z" fill="url(#paint1_linear_554_2964)"/>
<path fill-rule="evenodd" clip-rule="evenodd" d="M256.793 292.617C344.332 298.078 416.001 356.488 474.357 421.967C528.783 483.036 582.118 559.339 565.97 639.531C550.984 713.952 458.49 734.099 401.423 784.162C351.353 828.087 321.812 896.31 256.793 910.765C178.477 928.176 87.1634 922.604 29.4712 866.853C-28.7132 810.626 -20.6101 720.378 -23.8849 639.531C-27.3752 553.363 -43.9653 460.06 10.2778 393.016C68.2928 321.31 164.736 286.874 256.793 292.617Z" fill="url(#paint2_linear_554_2964)"/>
<path fill-rule="evenodd" clip-rule="evenodd" d="M504.926 -154.558C587.939 -163.161 617.194 -44.1283 673.214 17.7338C724.15 73.9824 800.198 111.284 813.339 186.021C828.317 271.214 813.682 373.509 745.015 426.11C678.961 476.709 587.886 428.668 504.926 422.273C433.071 416.734 356.746 435.134 299.203 391.744C234.97 343.309 175.712 264.882 191.613 186.021C206.91 110.156 315.848 106.297 368.245 49.3401C425.834 -13.2608 420.318 -145.789 504.926 -154.558Z" fill="url(#paint3_linear_554_2964)"/>
<defs>
<linearGradient id="paint0_linear_554_2964" x1="-31.9482" y1="-119.399" x2="290.097" y2="264.399" gradientUnits="userSpaceOnUse">
<stop stop-color="#0B17A6"/>
<stop offset="1" stop-color="#8149AA"/>
</linearGradient>
<linearGradient id="paint1_linear_554_2964" x1="862.097" y1="648.399" x2="540.052" y2="264.601" gradientUnits="userSpaceOnUse">
<stop stop-color="#0B17A6"/>
<stop offset="1" stop-color="#8149AA"/>
</linearGradient>
<linearGradient id="paint2_linear_554_2964" x1="269.951" y1="292" x2="269.951" y2="919.528" gradientUnits="userSpaceOnUse">
<stop stop-color="#0B17A6"/>
<stop offset="1" stop-color="#8149AA"/>
</linearGradient>
<linearGradient id="paint3_linear_554_2964" x1="503.839" y1="-155" x2="503.839" y2="449.027" gradientUnits="userSpaceOnUse">
<stop stop-color="#0B17A6"/>
<stop offset="1" stop-color="#8149AA"/>
</linearGradient>
</defs>
</svg>
