<svg width="44" height="41" viewBox="0 0 44 41" fill="none" xmlns="http://www.w3.org/2000/svg">
<path d="M38.3871 35.875V11.5312L26.085 0H11.0491C9.59904 0 8.20833 0.539954 7.18296 1.50108C6.15759 2.4622 5.58154 3.76577 5.58154 5.125V35.875C5.58154 37.2342 6.15759 38.5378 7.18296 39.4989C8.20833 40.46 9.59904 41 11.0491 41H32.9195C34.3696 41 35.7603 40.46 36.7857 39.4989C37.811 38.5378 38.3871 37.2342 38.3871 35.875ZM26.085 7.6875C26.085 8.70693 26.517 9.6846 27.2861 10.4054C28.0551 11.1263 29.0981 11.5312 30.1857 11.5312H35.6533V35.875C35.6533 36.5546 35.3653 37.2064 34.8526 37.687C34.3399 38.1675 33.6445 38.4375 32.9195 38.4375H11.0491C10.3241 38.4375 9.62873 38.1675 9.11605 37.687C8.60336 37.2064 8.31534 36.5546 8.31534 35.875V5.125C8.31534 4.44538 8.60336 3.7936 9.11605 3.31304C9.62873 2.83248 10.3241 2.5625 11.0491 2.5625H26.085V7.6875Z" fill="#111439"/>
<path d="M12.6975 36.0979C12.1646 35.8981 11.7354 35.5123 11.5001 35.0216C10.967 34.0274 11.1447 33.0331 11.7188 32.1977C12.2601 31.4111 13.1568 30.7422 14.171 30.1811C15.4557 29.4981 16.8137 28.9441 18.2225 28.5282C19.3165 26.6848 20.2862 24.7788 21.1258 22.8216C20.6238 21.7524 20.2302 20.6414 19.9502 19.5031C19.7151 18.4781 19.6249 17.4634 19.8245 16.5921C20.0295 15.685 20.5735 14.8701 21.6015 14.4832C22.1263 14.2859 22.695 14.1757 23.2472 14.2859C23.525 14.3413 23.7861 14.454 24.0117 14.6158C24.2372 14.7775 24.4215 14.9843 24.5512 15.2212C24.7918 15.6414 24.8793 16.1334 24.8984 16.5998C24.9175 17.0816 24.8656 17.6146 24.7699 18.1732C24.5403 19.4801 24.0318 21.0791 23.3483 22.7703C24.1026 24.2822 24.9992 25.7281 26.0275 27.0907C27.2443 27.0006 28.4681 27.0436 29.6743 27.2188C30.6694 27.3879 31.6809 27.7185 32.2988 28.4104C32.6268 28.7794 32.8264 29.2304 32.8455 29.7377C32.8647 30.2297 32.7171 30.7166 32.4683 31.1804C32.2528 31.6102 31.9187 31.9783 31.5005 32.2464C31.0872 32.4992 30.5992 32.6229 30.1063 32.6001C29.2014 32.5642 28.3184 32.0978 27.5557 31.5315C26.6282 30.8127 25.7925 29.9958 25.0652 29.0971C23.2164 29.2938 21.3897 29.6419 19.6058 30.1375C18.7889 31.4955 17.8563 32.7895 16.8173 34.0069C16.019 34.9037 15.1524 35.6879 14.2831 36.0236C13.7836 36.2354 13.217 36.2619 12.6975 36.0979ZM16.4674 31.2266C16.0136 31.4213 15.5926 31.6263 15.2126 31.8364C14.3159 32.3336 13.7336 32.8179 13.4438 33.2381C13.1868 33.6097 13.1814 33.8787 13.3345 34.1632C13.3618 34.2196 13.3891 34.2554 13.4055 34.2759C13.4382 34.2678 13.4701 34.2575 13.5012 34.2452C13.8757 34.1017 14.4717 33.643 15.2372 32.7794C15.6725 32.2798 16.083 31.7616 16.4674 31.2266ZM20.9508 27.8184C21.8637 27.6187 22.7848 27.4537 23.7119 27.3239C23.2142 26.6098 22.749 25.8763 22.3177 25.1252C21.8889 26.0339 21.4331 26.9311 20.9508 27.8159V27.8184ZM27.6377 28.9716C28.0477 29.3892 28.4469 29.7403 28.8269 30.0222C29.483 30.5091 29.9395 30.6705 30.1883 30.6782C30.2549 30.6863 30.3225 30.6728 30.3797 30.6397C30.4934 30.5556 30.5819 30.4452 30.6366 30.3194C30.7338 30.1633 30.7892 29.9875 30.7979 29.8069C30.7964 29.7467 30.771 29.6892 30.7269 29.6455C30.5847 29.4866 30.1801 29.256 29.3107 29.1099C28.7578 29.0232 28.1983 28.9778 27.6377 28.9741V28.9716ZM22.1974 19.9874C22.4275 19.2918 22.6101 18.5831 22.7442 17.8657C22.8289 17.3839 22.8617 16.9867 22.8481 16.6741C22.8488 16.5016 22.8193 16.3302 22.7606 16.1667C22.6238 16.1826 22.4903 16.2171 22.3642 16.2692C22.1263 16.3589 21.9322 16.5409 21.8284 16.9944C21.719 17.4864 21.7463 18.1962 21.9541 19.1008C22.0197 19.3852 22.1017 19.6825 22.2002 19.9874H22.1974Z" fill="#111439"/>
</svg>
