<svg width="1416" height="342" viewBox="0 0 1416 342" fill="none" xmlns="http://www.w3.org/2000/svg">
<path fill-rule="evenodd" clip-rule="evenodd" d="M456.308 -110.493C537.93 -115.184 609.152 -86.3743 675.686 -63.3132C742.251 -40.2411 810.008 -15.2824 837.706 21.7024C865.842 59.2727 866.995 103.399 826.717 138.357C788.959 171.13 690.41 171.817 634.544 198.036C561.875 232.139 556.709 303.914 456.308 312.19C360.444 320.092 286.221 268.474 226.96 231.632C179.219 201.95 192.568 160.803 158.567 127.082C115.815 84.681 -26.1876 55.4972 4.23505 10.7359C34.654 -34.0201 186.297 -17.0852 272.211 -40.124C342.466 -58.9638 376.312 -105.895 456.308 -110.493Z" fill="url(#paint0_linear_333_3129)"/>
<path fill-rule="evenodd" clip-rule="evenodd" d="M1273.27 -36.5473C1340.07 -40.7353 1398.35 -15.0155 1452.8 5.57209C1507.28 26.1696 1562.73 48.4514 1585.39 81.4694C1608.42 115.01 1609.36 154.403 1576.4 185.612C1545.5 214.87 1464.85 215.484 1419.13 238.89C1359.66 269.335 1355.44 333.412 1273.27 340.801C1194.82 347.855 1134.08 301.774 1085.58 268.882C1046.51 242.385 1057.44 205.651 1029.61 175.546C994.627 137.693 1004.72 129.73 1029.61 89.7697C1054.51 49.8141 1052.31 46.8419 1122.61 26.2742C1180.11 9.45501 1207.81 -32.4427 1273.27 -36.5473Z" fill="url(#paint1_linear_333_3129)"/>
<path fill-rule="evenodd" clip-rule="evenodd" d="M1161.48 235.493C1094.73 240.184 1036.49 211.374 982.086 188.313C927.652 165.241 872.245 140.282 849.595 103.298C826.587 65.7273 825.644 21.6012 858.581 -13.3573C889.458 -46.1297 970.045 -46.8174 1015.73 -73.0356C1075.15 -107.139 1079.38 -178.914 1161.48 -187.19C1239.87 -195.092 1300.57 -143.474 1349.03 -106.632C1388.07 -76.9503 1377.15 -35.803 1404.95 -2.08176C1439.91 40.319 1556.04 69.5028 1531.16 114.264C1506.28 159.02 1382.28 142.085 1312.02 165.124C1254.57 183.964 1226.9 230.895 1161.48 235.493Z" fill="url(#paint2_linear_333_3129)"/>
<path fill-rule="evenodd" clip-rule="evenodd" d="M736.657 310.591C669.875 314.375 611.603 291.137 557.166 272.536C502.703 253.926 447.266 233.794 424.604 203.962C401.584 173.657 400.641 138.065 433.595 109.867C464.488 83.4331 545.119 82.8784 590.828 61.7307C650.284 34.2228 654.511 -23.6714 736.657 -30.3466C815.092 -36.7203 875.819 4.91452 924.305 34.6321C963.366 58.5731 952.445 91.7626 980.263 118.962C1015.24 153.163 1131.43 176.703 1106.53 212.807C1081.65 248.908 957.575 235.248 887.282 253.831C829.8 269.027 802.109 306.882 736.657 310.591Z" fill="url(#paint3_linear_333_3129)"/>
<defs>
<linearGradient id="paint0_linear_333_3129" x1="429" y1="-111" x2="429" y2="313" gradientUnits="userSpaceOnUse">
<stop stop-color="#F55C7A"/>
<stop offset="1" stop-color="#F6BC66"/>
</linearGradient>
<linearGradient id="paint1_linear_333_3129" x1="1250.92" y1="-37" x2="1250.92" y2="341.524" gradientUnits="userSpaceOnUse">
<stop stop-color="#F55C7A"/>
<stop offset="1" stop-color="#F6BC66"/>
</linearGradient>
<linearGradient id="paint2_linear_333_3129" x1="1183.81" y1="236" x2="1183.81" y2="-188" gradientUnits="userSpaceOnUse">
<stop stop-color="#F55C7A"/>
<stop offset="1" stop-color="#F6BC66"/>
</linearGradient>
<linearGradient id="paint3_linear_333_3129" x1="759" y1="311" x2="759" y2="-31" gradientUnits="userSpaceOnUse">
<stop stop-color="#F55C7A"/>
<stop offset="1" stop-color="#F6BC66"/>
</linearGradient>
</defs>
</svg>
