<svg width="22" height="24" viewBox="0 0 22 24" fill="none" xmlns="http://www.w3.org/2000/svg">
<path fill-rule="evenodd" clip-rule="evenodd" d="M19.25 9V17.25H7.25V2.25H12.5V6.375C12.5 7.824 13.676 9 15.125 9H19.25ZM14.75 2.4315L19.0685 6.75H15.125C15.0255 6.75 14.9302 6.71049 14.8598 6.64017C14.7895 6.56984 14.75 6.47446 14.75 6.375V2.4315ZM6.5 0C6.10218 0 5.72064 0.158035 5.43934 0.43934C5.15804 0.720644 5 1.10218 5 1.5V4.5H2.375C1.34 4.5 0.5 5.34 0.5 6.375V22.125C0.5 23.16 1.34 24 2.375 24H14.75C15.785 24 16.625 23.16 16.625 22.125V19.62C16.6251 19.5799 16.6231 19.5399 16.619 19.5H20C20.3978 19.5 20.7794 19.342 21.0607 19.0607C21.342 18.7794 21.5 18.3978 21.5 18V6.621C21.4999 6.22321 21.3418 5.84174 21.0605 5.5605L15.9395 0.4395C15.6583 0.158176 15.2768 8.49561e-05 14.879 0H6.5ZM5 18V6.75H2.75V21.75H14.375V19.62C14.375 19.5795 14.3765 19.539 14.381 19.5H6.5C6.10218 19.5 5.72064 19.342 5.43934 19.0607C5.15804 18.7794 5 18.3978 5 18Z" fill="#333333"/>
</svg>
