<svg width="100" height="100" viewBox="0 0 100 100" fill="none" xmlns="http://www.w3.org/2000/svg">
<path fill-rule="evenodd" clip-rule="evenodd" d="M50 95C74.8525 95 95 74.8525 95 50C95 25.1475 74.8525 5 50 5C25.1475 5 5 25.1475 5 50C5 74.8525 25.1475 95 50 95ZM50 100C77.615 100 100 77.615 100 50C100 22.385 77.615 0 50 0C22.385 0 0 22.385 0 50C0 77.615 22.385 100 50 100Z" fill="white"/>
<path d="M20 79.0749C20 76.4924 21.93 74.3099 24.5 74.0249C43.7875 71.8899 56.3 72.0824 75.545 74.0724C76.506 74.1733 77.4169 74.5519 78.1663 75.162C78.9156 75.772 79.4712 76.5871 79.7649 77.5077C80.0587 78.4283 80.078 79.4145 79.8206 80.3459C79.5631 81.2772 79.0399 82.1135 78.315 82.7524C55.6025 102.55 42.6225 102.277 21.6 82.7724C20.575 81.8224 20 80.4699 20 79.0749Z" fill="white"/>
<path fill-rule="evenodd" clip-rule="evenodd" d="M75.2875 76.5574C56.195 74.5824 43.8625 74.3974 24.7725 76.5099C24.1441 76.5832 23.5648 76.8856 23.1455 77.3593C22.7262 77.8331 22.4964 78.4448 22.5 79.0774C22.5 79.7924 22.7975 80.4699 23.3 80.9399C33.72 90.6049 41.615 94.9724 49.3325 94.9999C57.0775 95.0274 65.3975 90.6949 76.6725 80.8699C77.0307 80.5511 77.2886 80.1351 77.4148 79.6725C77.5409 79.2099 77.53 78.7205 77.3833 78.264C77.2366 77.8075 76.9604 77.4034 76.5884 77.1009C76.2163 76.7983 75.7644 76.6079 75.2875 76.5574ZM24.225 71.5399C43.715 69.3824 56.41 69.5774 75.805 71.5849C77.2508 71.7358 78.6212 72.305 79.7484 73.2228C80.8757 74.1405 81.7109 75.367 82.1518 76.7521C82.5927 78.1373 82.6202 79.6209 82.231 81.0214C81.8417 82.4219 81.0525 83.6785 79.96 84.6374C68.5225 94.6074 58.9975 100.037 49.3175 99.9999C39.61 99.9649 30.505 94.4424 19.9025 84.6049C19.1434 83.8979 18.5382 83.0418 18.1249 82.0904C17.7115 81.1389 17.4988 80.1123 17.5 79.0749C17.4964 77.211 18.1805 75.4113 19.4214 74.0204C20.6623 72.6296 22.3727 71.748 24.225 71.5399Z" fill="white"/>
<path d="M70 40C70 45.3043 67.8929 50.3914 64.1421 54.1421C60.3914 57.8929 55.3043 60 50 60C44.6957 60 39.6086 57.8929 35.8579 54.1421C32.1071 50.3914 30 45.3043 30 40C30 34.6957 32.1071 29.6086 35.8579 25.8579C39.6086 22.1071 44.6957 20 50 20C55.3043 20 60.3914 22.1071 64.1421 25.8579C67.8929 29.6086 70 34.6957 70 40Z" fill="white"/>
<path fill-rule="evenodd" clip-rule="evenodd" d="M50 55C53.9782 55 57.7936 53.4197 60.6066 50.6066C63.4197 47.7936 65 43.9782 65 40C65 36.0218 63.4197 32.2064 60.6066 29.3934C57.7936 26.5804 53.9782 25 50 25C46.0218 25 42.2064 26.5804 39.3934 29.3934C36.5804 32.2064 35 36.0218 35 40C35 43.9782 36.5804 47.7936 39.3934 50.6066C42.2064 53.4197 46.0218 55 50 55ZM50 60C55.3043 60 60.3914 57.8929 64.1421 54.1421C67.8929 50.3914 70 45.3043 70 40C70 34.6957 67.8929 29.6086 64.1421 25.8579C60.3914 22.1071 55.3043 20 50 20C44.6957 20 39.6086 22.1071 35.8579 25.8579C32.1071 29.6086 30 34.6957 30 40C30 45.3043 32.1071 50.3914 35.8579 54.1421C39.6086 57.8929 44.6957 60 50 60Z" fill="white"/>
</svg>
