<svg width="25" height="24" viewBox="0 0 25 24" fill="none" xmlns="http://www.w3.org/2000/svg">
<path d="M12.4205 21.0004L10.9705 19.7004C9.2872 18.1837 7.89553 16.8754 6.79553 15.7754C5.69553 14.6754 4.82053 13.6877 4.17053 12.8124C3.52053 11.9377 3.06653 11.1337 2.80853 10.4004C2.55053 9.66706 2.4212 8.91706 2.42053 8.15039C2.42053 6.58372 2.94553 5.27539 3.99553 4.22539C5.04553 3.17539 6.35387 2.65039 7.92053 2.65039C8.7872 2.65039 9.6122 2.83372 10.3955 3.20039C11.1789 3.56706 11.8539 4.08372 12.4205 4.75039C12.9872 4.08372 13.6622 3.56706 14.4455 3.20039C15.2289 2.83372 16.0539 2.65039 16.9205 2.65039C18.4872 2.65039 19.7955 3.17539 20.8455 4.22539C21.8955 5.27539 22.4205 6.58372 22.4205 8.15039C22.4205 8.91706 22.2912 9.66706 22.0325 10.4004C21.7739 11.1337 21.3199 11.9377 20.6705 12.8124C20.0205 13.6877 19.1455 14.6754 18.0455 15.7754C16.9455 16.8754 15.5539 18.1837 13.8705 19.7004L12.4205 21.0004ZM12.4205 18.3004C14.0205 16.8671 15.3372 15.6377 16.3705 14.6124C17.4039 13.5871 18.2205 12.6957 18.8205 11.9384C19.4205 11.1797 19.8372 10.5044 20.0705 9.91239C20.3039 9.32039 20.4205 8.73306 20.4205 8.15039C20.4205 7.15039 20.0872 6.31706 19.4205 5.65039C18.7539 4.98372 17.9205 4.65039 16.9205 4.65039C16.1372 4.65039 15.4122 4.87106 14.7455 5.31239C14.0789 5.75372 13.6205 6.31639 13.3705 7.00039H11.4705C11.2205 6.31706 10.7622 5.75439 10.0955 5.31239C9.42887 4.87039 8.70387 4.64972 7.92053 4.65039C6.92053 4.65039 6.0872 4.98372 5.42053 5.65039C4.75387 6.31706 4.42053 7.15039 4.42053 8.15039C4.42053 8.73372 4.5372 9.32139 4.77053 9.91339C5.00387 10.5054 5.42053 11.1804 6.02053 11.9384C6.62053 12.6964 7.4372 13.5881 8.47053 14.6134C9.50387 15.6387 10.8205 16.8677 12.4205 18.3004Z" fill="black"/>
</svg>
