<svg width="96" height="96" xmlns="http://www.w3.org/2000/svg" xmlns:xlink="http://www.w3.org/1999/xlink" xml:space="preserve" overflow="hidden"><defs><clipPath id="clip0"><rect x="522" y="170" width="96" height="96"/></clipPath></defs><g clip-path="url(#clip0)" transform="translate(-522 -170)"><path d="M570 214C565 214 561 210 561 205 561 200 565 196 570 196 575 196 579 200 579 205 579 210 575 214 570 214ZM570 184C563.1 184 556.6 187.4 552.7 193.2 548.8 198.9 548 206.2 550.5 212.7L560 233.7 568.2 250.9C568.5 251.6 569.2 252 570 252 570.8 252 571.5 251.6 571.8 250.9L580 233.7 589.5 212.7C592 206.2 591.2 198.9 587.3 193.2 583.4 187.4 576.9 184 570 184Z" fill="#FFFFFF"/></g></svg>