<svg width="96" height="96" xmlns="http://www.w3.org/2000/svg" xmlns:xlink="http://www.w3.org/1999/xlink" xml:space="preserve" overflow="hidden"><defs><clipPath id="clip0"><rect x="261" y="126" width="96" height="96"/></clipPath></defs><g clip-path="url(#clip0)" transform="translate(-261 -126)"><path d="M293 188C293 192.418 289.418 196 285 196 280.582 196 277 192.418 277 188 277 183.582 280.582 180 285 180 289.418 180 293 183.582 293 188Z" fill="#FFFFFF"/><path d="M341 188C341 192.418 337.418 196 333 196 328.582 196 325 192.418 325 188 325 183.582 328.582 180 333 180 337.418 180 341 183.582 341 188Z" fill="#FFFFFF"/><path d="M300 168 300 156 313.7 156C314.8 156 315.8 156.4 316.5 157.2L327.3 168 300 168ZM296 168 270.7 168 281.5 157.2C282.3 156.4 283.3 156 284.3 156L296 156 296 168ZM343 168 334.7 168C333.6 168 332.6 167.6 331.9 166.8L319.3 154.3C317.8 152.8 315.8 152 313.6 152L284.3 152C282.2 152 280.1 152.8 278.6 154.3L266.2 166.8C265.4 167.6 265 168.6 265 169.7L265 180C265 184.4 268.6 188 273 188L274 188C274 181.9 278.9 177 285 177 291.1 177 296 181.9 296 188L322 188C322 181.9 326.9 177 333 177 339.1 177 344 181.9 344 188L349 188C351.2 188 353 186.2 353 184L353 178C353 172.5 348.5 168 343 168Z" fill="#FFFFFF"/></g></svg>