<svg width="96" height="96" xmlns="http://www.w3.org/2000/svg" xmlns:xlink="http://www.w3.org/1999/xlink" xml:space="preserve" overflow="hidden"><defs><clipPath id="clip0"><rect x="200" y="292" width="96" height="96"/></clipPath></defs><g clip-path="url(#clip0)" transform="translate(-200 -292)"><path d="M250 322 246 322C243.8 322 242 320.2 242 318L242 310C242 307.8 243.8 306 246 306L250 306C252.2 306 254 307.8 254 310L254 318C254 320.2 252.2 322 250 322Z" fill="#FFFFFF"/><path d="M280 342 256 342 256 338 280 338 280 342ZM280 354 256 354 256 350 280 350 280 354ZM280 366 256 366 256 362 280 362 280 366ZM248 366 216 366 216 358C216 356.8 216.6 355.6 217.6 354.8 219.8 353.2 222.6 351.8 225.4 351 227.6 350.4 229.8 350 232 350 234.4 350 236.6 350.4 238.6 351 241.4 351.8 244.2 353 246.4 354.8 247.4 355.6 248 356.8 248 358L248 366ZM232 332C236.4 332 240 335.6 240 340 240 344.4 236.4 348 232 348 227.6 348 224 344.4 224 340 224 335.6 227.6 332 232 332ZM284 318 258 318C258 322.4 254.4 326 250 326L246 326C241.6 326 238 322.4 238 318L212 318C209.8 318 208 319.8 208 322L208 370C208 372.2 209.8 374 212 374L284 374C286.2 374 288 372.2 288 370L288 322C288 319.8 286.2 318 284 318Z" fill="#FFFFFF"/></g></svg>