<svg width="96" height="96" xmlns="http://www.w3.org/2000/svg" xmlns:xlink="http://www.w3.org/1999/xlink" xml:space="preserve" overflow="hidden"><defs><clipPath id="clip0"><rect x="592" y="312" width="96" height="96"/></clipPath></defs><g clip-path="url(#clip0)" transform="translate(-592 -312)"><path d="M648 362.5C648 364.7 646.2 366.5 644 366.5L640 366.5C637.8 366.5 636 364.7 636 362.5L636 360.5 602 360.5 602 388.5C602 390.7 603.8 392.5 606 392.5L678 392.5C680.2 392.5 682 390.7 682 388.5L682 360.5 648 360.5 648 362.5Z" fill="#FFFFFF"/><path d="M678 336.5 658 336.5 658 330C658 326.1 654.9 323 651 323L633 323C629.1 323 626 326.1 626 330L626 336.5 606 336.5C603.8 336.5 602 338.3 602 340.5L602 356.5 636 356.5 636 354.5 648 354.5 648 356.5 682 356.5 682 340.5C682 338.3 680.2 336.5 678 336.5M632 336.5 632 330C632 329.4 632.4 329 633 329L651 329C651.6 329 652 329.4 652 330L652 336.5 632 336.5Z" fill="#FFFFFF"/></g></svg>