<svg width="58" height="58" viewBox="0 0 58 58" fill="none" xmlns="http://www.w3.org/2000/svg">
<path d="M27.0103 41.0234H31.7681V31.032L35.5743 34.8383L38.9048 31.5078L29.3892 21.9922L19.8735 31.5078L23.204 34.8383L27.0103 31.032V41.0234ZM10.3579 48.1602C9.04952 48.1602 7.92905 47.6939 6.99652 46.7614C6.06399 45.8288 5.59852 44.7092 5.6001 43.4023V14.8555C5.6001 13.5471 6.06637 12.4266 6.9989 11.4941C7.93143 10.5615 9.0511 10.0961 10.3579 10.0977H24.6314L29.3892 14.8555H48.4204C49.7288 14.8555 50.8493 15.3217 51.7818 16.2543C52.7143 17.1868 53.1798 18.3065 53.1782 19.6133V43.4023C53.1782 44.7107 52.712 45.8312 51.7794 46.7637C50.8469 47.6963 49.7272 48.1617 48.4204 48.1602H10.3579ZM10.3579 14.8555V43.4023H48.4204V19.6133H27.4266L22.6688 14.8555H10.3579Z" fill="black"/>
</svg>
