<svg width="25" height="24" viewBox="0 0 25 24" fill="none" xmlns="http://www.w3.org/2000/svg">
<path d="M4.42053 20C3.87053 20 3.39953 19.804 3.00753 19.412C2.61553 19.02 2.41987 18.5493 2.42053 18V6C2.42053 5.45 2.61653 4.979 3.00853 4.587C3.40053 4.195 3.8712 3.99934 4.42053 4H10.4205L12.4205 6H20.4205C20.9705 6 21.4415 6.196 21.8335 6.588C22.2255 6.98 22.4212 7.45067 22.4205 8V18C22.4205 18.55 22.2245 19.021 21.8325 19.413C21.4405 19.805 20.9699 20.0007 20.4205 20H4.42053ZM4.42053 6V18H20.4205V8H11.5955L9.59553 6H4.42053Z" fill="#111439"/>
</svg>
