<svg width="1528" height="1033" viewBox="0 0 1528 1033" fill="none" xmlns="http://www.w3.org/2000/svg">
<g filter="url(#filter0_i_8_668)">
<path d="M1074.72 709.756C1013.02 638.595 941.942 573.849 846.184 562.944C734.385 550.213 609.985 565.647 537.804 648.614C464.269 733.138 469.615 829.949 500.233 936.092C545.5 1002 549 1000.5 606 1029C645.5 1036.5 742.735 1032.35 833.304 990.692C924.209 948.877 1169.23 1054.85 1190.7 960.277C1212.03 866.336 1138.79 783.644 1074.72 709.756Z" fill="url(#paint0_linear_8_668)"/>
</g>
<g filter="url(#filter1_i_8_668)">
<path fill-rule="evenodd" clip-rule="evenodd" d="M1333.77 105.042C1387.17 116.218 1426.81 182.573 1461.22 255.501C1496.95 331.225 1537.79 415.971 1525.9 512.247C1513.92 609.166 1456.94 657.605 1406.25 700.459C1355.74 743.155 1300.69 783.359 1248.71 746.563C1193.07 707.177 1156.84 614.515 1140.84 512.569C1123.77 403.789 1120.78 279.464 1161.79 192.84C1202.05 107.812 1271.42 91.9947 1333.77 105.042Z" fill="url(#paint1_linear_8_668)"/>
</g>
<g filter="url(#filter2_i_8_668)">
<path fill-rule="evenodd" clip-rule="evenodd" d="M337.783 1.68158C442.265 -9.66965 549.983 37.217 611.553 119.049C670.349 197.193 650.749 298.431 632.363 393.201C612.528 495.446 605.287 622.431 505.877 663.758C407.869 704.502 313.159 613.792 219.258 564.939C134.467 520.825 22.8961 492.611 2.84129 402.046C-17.0694 312.131 72.0979 242.812 132.056 171.143C191.586 99.9854 243.322 11.9443 337.783 1.68158Z" fill="url(#paint2_linear_8_668)"/>
</g>
<defs>
<filter id="filter0_i_8_668" x="479" y="559" width="715.473" height="477.037" filterUnits="userSpaceOnUse" color-interpolation-filters="sRGB">
<feFlood flood-opacity="0" result="BackgroundImageFix"/>
<feBlend mode="normal" in="SourceGraphic" in2="BackgroundImageFix" result="shape"/>
<feColorMatrix in="SourceAlpha" type="matrix" values="0 0 0 0 0 0 0 0 0 0 0 0 0 0 0 0 0 0 127 0" result="hardAlpha"/>
<feOffset dy="4"/>
<feGaussianBlur stdDeviation="2"/>
<feComposite in2="hardAlpha" operator="arithmetic" k2="-1" k3="1"/>
<feColorMatrix type="matrix" values="0 0 0 0 0 0 0 0 0 0 0 0 0 0 0 0 0 0 0.25 0"/>
<feBlend mode="normal" in2="shape" result="effect1_innerShadow_8_668"/>
</filter>
<filter id="filter1_i_8_668" x="1129" y="101" width="399" height="664" filterUnits="userSpaceOnUse" color-interpolation-filters="sRGB">
<feFlood flood-opacity="0" result="BackgroundImageFix"/>
<feBlend mode="normal" in="SourceGraphic" in2="BackgroundImageFix" result="shape"/>
<feColorMatrix in="SourceAlpha" type="matrix" values="0 0 0 0 0 0 0 0 0 0 0 0 0 0 0 0 0 0 127 0" result="hardAlpha"/>
<feOffset dy="4"/>
<feGaussianBlur stdDeviation="2"/>
<feComposite in2="hardAlpha" operator="arithmetic" k2="-1" k3="1"/>
<feColorMatrix type="matrix" values="0 0 0 0 0 0 0 0 0 0 0 0 0 0 0 0 0 0 0.25 0"/>
<feBlend mode="normal" in2="shape" result="effect1_innerShadow_8_668"/>
</filter>
<filter id="filter2_i_8_668" x="0" y="0" width="650.903" height="678" filterUnits="userSpaceOnUse" color-interpolation-filters="sRGB">
<feFlood flood-opacity="0" result="BackgroundImageFix"/>
<feBlend mode="normal" in="SourceGraphic" in2="BackgroundImageFix" result="shape"/>
<feColorMatrix in="SourceAlpha" type="matrix" values="0 0 0 0 0 0 0 0 0 0 0 0 0 0 0 0 0 0 127 0" result="hardAlpha"/>
<feOffset dy="4"/>
<feGaussianBlur stdDeviation="2"/>
<feComposite in2="hardAlpha" operator="arithmetic" k2="-1" k3="1"/>
<feColorMatrix type="matrix" values="0 0 0 0 0 0 0 0 0 0 0 0 0 0 0 0 0 0 0.25 0"/>
<feBlend mode="normal" in2="shape" result="effect1_innerShadow_8_668"/>
</filter>
<linearGradient id="paint0_linear_8_668" x1="836.736" y1="559" x2="836.736" y2="1032.04" gradientUnits="userSpaceOnUse">
<stop stop-color="#F55C7A"/>
<stop offset="1" stop-color="#2A3BCE"/>
</linearGradient>
<linearGradient id="paint1_linear_8_668" x1="1328.5" y1="101" x2="1328.5" y2="761" gradientUnits="userSpaceOnUse">
<stop stop-color="#F55C7A"/>
<stop offset="1" stop-color="#2A3BCE"/>
</linearGradient>
<linearGradient id="paint2_linear_8_668" x1="325.452" y1="2.94375e-05" x2="325.452" y2="674" gradientUnits="userSpaceOnUse">
<stop stop-color="#F55C7A"/>
<stop offset="1" stop-color="#2A3BCE"/>
</linearGradient>
</defs>
</svg>
