<svg width="27" height="26" viewBox="0 0 27 26" fill="none" xmlns="http://www.w3.org/2000/svg">
<path d="M22.9471 17.8689C22.3835 16.898 21.5456 14.1507 21.5456 10.5625C21.5456 8.40762 20.6896 6.34099 19.1658 4.81726C17.6421 3.29352 15.5755 2.4375 13.4206 2.4375C11.2657 2.4375 9.19907 3.29352 7.67533 4.81726C6.1516 6.34099 5.29558 8.40762 5.29558 10.5625C5.29558 14.1517 4.45667 16.898 3.893 17.8689C3.74905 18.1157 3.67274 18.3962 3.67176 18.6819C3.67078 18.9677 3.74516 19.2486 3.88741 19.4964C4.02966 19.7443 4.23473 19.9502 4.48196 20.0935C4.72919 20.2367 5.00983 20.3123 5.29558 20.3125H9.44034C9.6278 21.2298 10.1263 22.0541 10.8516 22.6462C11.5769 23.2382 12.4843 23.5616 13.4206 23.5616C14.3568 23.5616 15.2643 23.2382 15.9896 22.6462C16.7148 22.0541 17.2134 21.2298 17.4008 20.3125H21.5456C21.8312 20.3121 22.1117 20.2364 22.3588 20.0931C22.6059 19.9497 22.8109 19.7438 22.953 19.496C23.0951 19.2482 23.1694 18.9673 23.1684 18.6817C23.1673 18.396 23.091 18.1157 22.9471 17.8689ZM13.4206 21.9375C12.9166 21.9373 12.4251 21.781 12.0137 21.49C11.6023 21.199 11.2912 20.7876 11.1232 20.3125H15.7179C15.5499 20.7876 15.2388 21.199 14.8274 21.49C14.416 21.781 13.9245 21.9373 13.4206 21.9375ZM5.29558 18.6875C6.07761 17.3428 6.92058 14.2269 6.92058 10.5625C6.92058 8.83859 7.6054 7.18529 8.82438 5.96631C10.0434 4.74732 11.6967 4.0625 13.4206 4.0625C15.1445 4.0625 16.7978 4.74732 18.0168 5.96631C19.2358 7.18529 19.9206 8.83859 19.9206 10.5625C19.9206 14.2238 20.7615 17.3398 21.5456 18.6875H5.29558Z" fill="#111439"/>
</svg>
