<svg width="29" height="30" viewBox="0 0 29 30" fill="none" xmlns="http://www.w3.org/2000/svg">
<path fill-rule="evenodd" clip-rule="evenodd" d="M14.4998 25.8753C20.5059 25.8753 25.3748 21.0063 25.3748 15.0003C25.3748 8.9943 20.5059 4.12533 14.4998 4.12533C8.49382 4.12533 3.62484 8.9943 3.62484 15.0003C3.62484 21.0063 8.49382 25.8753 14.4998 25.8753ZM14.4998 27.0837C21.1735 27.0837 26.5832 21.6739 26.5832 15.0003C26.5832 8.3267 21.1735 2.91699 14.4998 2.91699C7.82621 2.91699 2.4165 8.3267 2.4165 15.0003C2.4165 21.6739 7.82621 27.0837 14.4998 27.0837Z" fill="#111439"/>
<path d="M7.25 22.0263C7.25 21.4022 7.71642 20.8748 8.3375 20.8059C12.9986 20.2899 16.0225 20.3365 20.6734 20.8174C20.9056 20.8418 21.1257 20.9333 21.3068 21.0807C21.4879 21.2281 21.6222 21.4251 21.6932 21.6476C21.7642 21.8701 21.7689 22.1084 21.7066 22.3335C21.6444 22.5586 21.518 22.7606 21.3428 22.9151C15.8539 27.6994 12.7171 27.6336 7.63667 22.9199C7.38896 22.6903 7.25 22.3634 7.25 22.0263Z" fill="#111439"/>
<path fill-rule="evenodd" clip-rule="evenodd" d="M20.6108 21.4189C15.9968 20.9416 13.0164 20.8969 8.40303 21.4074C8.25117 21.4251 8.11117 21.4982 8.00984 21.6127C7.90851 21.7272 7.85297 21.875 7.85384 22.0279C7.85384 22.2007 7.92574 22.3644 8.04718 22.478C10.5653 24.8137 12.4733 25.8692 14.3384 25.8758C16.2101 25.8825 18.2207 24.8354 20.9455 22.4611C21.0321 22.384 21.0944 22.2835 21.1249 22.1717C21.1554 22.0599 21.1528 21.9416 21.1173 21.8313C21.0819 21.721 21.0151 21.6233 20.9252 21.5502C20.8353 21.4771 20.7261 21.4311 20.6108 21.4189ZM8.27072 20.2063C12.9808 19.6849 16.0488 19.732 20.7359 20.2172C21.0853 20.2537 21.4165 20.3912 21.6889 20.613C21.9613 20.8348 22.1631 21.1312 22.2697 21.4659C22.3763 21.8007 22.3829 22.1592 22.2888 22.4977C22.1947 22.8361 22.004 23.1398 21.74 23.3715C18.9759 25.781 16.6741 27.0932 14.3347 27.0841C11.9888 27.0757 9.78839 25.7411 7.22612 23.3637C7.04266 23.1928 6.89642 22.9859 6.79652 22.756C6.69662 22.5261 6.64521 22.278 6.64551 22.0273C6.64463 21.5768 6.80997 21.1419 7.10985 20.8058C7.40974 20.4697 7.82308 20.2566 8.27072 20.2063Z" fill="#111439"/>
<path d="M19.3332 12.5833C19.3332 13.8652 18.8239 15.0946 17.9175 16.001C17.0111 16.9074 15.7817 17.4167 14.4998 17.4167C13.218 17.4167 11.9886 16.9074 11.0822 16.001C10.1757 15.0946 9.6665 13.8652 9.6665 12.5833C9.6665 11.3015 10.1757 10.0721 11.0822 9.16565C11.9886 8.25922 13.218 7.75 14.4998 7.75C15.7817 7.75 17.0111 8.25922 17.9175 9.16565C18.8239 10.0721 19.3332 11.3015 19.3332 12.5833Z" fill="#111439"/>
<path fill-rule="evenodd" clip-rule="evenodd" d="M14.4998 16.2083C15.4612 16.2083 16.3833 15.8264 17.0631 15.1466C17.7429 14.4668 18.1248 13.5447 18.1248 12.5833C18.1248 11.6219 17.7429 10.6999 17.0631 10.0201C16.3833 9.34025 15.4612 8.95833 14.4998 8.95833C13.5384 8.95833 12.6164 9.34025 11.9366 10.0201C11.2568 10.6999 10.8748 11.6219 10.8748 12.5833C10.8748 13.5447 11.2568 14.4668 11.9366 15.1466C12.6164 15.8264 13.5384 16.2083 14.4998 16.2083ZM14.4998 17.4167C15.7817 17.4167 17.0111 16.9074 17.9175 16.001C18.8239 15.0946 19.3332 13.8652 19.3332 12.5833C19.3332 11.3015 18.8239 10.0721 17.9175 9.16565C17.0111 8.25922 15.7817 7.75 14.4998 7.75C13.218 7.75 11.9886 8.25922 11.0822 9.16565C10.1757 10.0721 9.6665 11.3015 9.6665 12.5833C9.6665 13.8652 10.1757 15.0946 11.0822 16.001C11.9886 16.9074 13.218 17.4167 14.4998 17.4167Z" fill="#111439"/>
</svg>
