<svg width="48" height="48" viewBox="0 0 48 48" fill="none" xmlns="http://www.w3.org/2000/svg">
<path fill-rule="evenodd" clip-rule="evenodd" d="M24 42C33.941 42 42 33.941 42 24C42 14.059 33.941 6 24 6C14.059 6 6 14.059 6 24C6 33.941 14.059 42 24 42ZM24 44C35.046 44 44 35.046 44 24C44 12.954 35.046 4 24 4C12.954 4 4 12.954 4 24C4 35.046 12.954 44 24 44Z" fill="#111439"/>
<path d="M12 35.6298C12 34.5968 12.772 33.7238 13.8 33.6098C21.515 32.7558 26.52 32.8328 34.218 33.6288C34.6024 33.6691 34.9667 33.8206 35.2665 34.0646C35.5663 34.3086 35.7885 34.6347 35.906 35.0029C36.0235 35.3711 36.0312 35.7656 35.9282 36.1382C35.8252 36.5107 35.616 36.8452 35.326 37.1008C26.241 45.0198 21.049 44.9108 12.64 37.1088C12.23 36.7288 12 36.1878 12 35.6298Z" fill="#111439"/>
<path fill-rule="evenodd" clip-rule="evenodd" d="M34.115 34.6233C26.478 33.8333 21.545 33.7593 13.909 34.6043C13.6576 34.6336 13.4259 34.7545 13.2582 34.944C13.0905 35.1335 12.9986 35.3782 13 35.6313C13 35.9173 13.119 36.1883 13.32 36.3763C17.488 40.2423 20.646 41.9893 23.733 42.0003C26.831 42.0113 30.159 40.2783 34.669 36.3483C34.8123 36.2207 34.9154 36.0543 34.9659 35.8693C35.0164 35.6842 35.012 35.4885 34.9533 35.3059C34.8946 35.1233 34.7842 34.9616 34.6354 34.8406C34.4865 34.7196 34.3058 34.6435 34.115 34.6233ZM13.69 32.6163C21.486 31.7533 26.564 31.8313 34.322 32.6343C34.9003 32.6946 35.4485 32.9223 35.8994 33.2894C36.3503 33.6565 36.6844 34.1471 36.8607 34.7011C37.0371 35.2552 37.0481 35.8487 36.8924 36.4089C36.7367 36.9691 36.421 37.4717 35.984 37.8553C31.409 41.8433 27.599 44.0153 23.727 44.0003C19.844 43.9863 16.202 41.7773 11.961 37.8423C11.6574 37.5594 11.4153 37.217 11.2499 36.8364C11.0846 36.4558 10.9995 36.0452 11 35.6303C10.9985 34.8847 11.2722 34.1648 11.7686 33.6085C12.2649 33.0521 12.9491 32.6995 13.69 32.6163Z" fill="#111439"/>
<path d="M32 20C32 22.1217 31.1571 24.1566 29.6569 25.6569C28.1566 27.1571 26.1217 28 24 28C21.8783 28 19.8434 27.1571 18.3431 25.6569C16.8429 24.1566 16 22.1217 16 20C16 17.8783 16.8429 15.8434 18.3431 14.3431C19.8434 12.8429 21.8783 12 24 12C26.1217 12 28.1566 12.8429 29.6569 14.3431C31.1571 15.8434 32 17.8783 32 20Z" fill="#111439"/>
<path fill-rule="evenodd" clip-rule="evenodd" d="M24 26C25.5913 26 27.1174 25.3679 28.2426 24.2426C29.3679 23.1174 30 21.5913 30 20C30 18.4087 29.3679 16.8826 28.2426 15.7574C27.1174 14.6321 25.5913 14 24 14C22.4087 14 20.8826 14.6321 19.7574 15.7574C18.6321 16.8826 18 18.4087 18 20C18 21.5913 18.6321 23.1174 19.7574 24.2426C20.8826 25.3679 22.4087 26 24 26ZM24 28C26.1217 28 28.1566 27.1571 29.6569 25.6569C31.1571 24.1566 32 22.1217 32 20C32 17.8783 31.1571 15.8434 29.6569 14.3431C28.1566 12.8429 26.1217 12 24 12C21.8783 12 19.8434 12.8429 18.3431 14.3431C16.8429 15.8434 16 17.8783 16 20C16 22.1217 16.8429 24.1566 18.3431 25.6569C19.8434 27.1571 21.8783 28 24 28Z" fill="#111439"/>
</svg>
