<svg width="17" height="37" viewBox="0 0 17 37" fill="none" xmlns="http://www.w3.org/2000/svg">
<path d="M15.7432 34.0347L8.65882 35.9983L1 34.0347L6.08803 12.0886L3.68059 2.73259L8.65882 1L15.7432 2.73259L12.201 17.8639L15.7432 34.0347Z" fill="#111439"/>
<path d="M1 34.0347L8.65882 32.9951M1 34.0347L8.65882 35.9983L15.7432 34.0347M1 34.0347L6.08803 12.0886M8.65882 32.9951L15.7432 34.0347M8.65882 32.9951L12.201 17.8639M15.7432 34.0347L12.201 17.8639M8.65882 1L15.7432 2.73259L12.201 17.8639M8.65882 1L6.08803 12.0886M8.65882 1L3.68059 2.73259L6.08803 12.0886" stroke="white" stroke-width="1.21733"/>
</svg>
