<svg width="1441" height="992" viewBox="0 0 1441 992" fill="none" xmlns="http://www.w3.org/2000/svg">
<rect x="0.0678711" y="30" width="1458" height="983" fill="#111439"/>
<path fill-rule="evenodd" clip-rule="evenodd" d="M1232.99 0.442271C1316.01 -8.16098 1345.26 110.872 1401.28 172.734C1452.22 228.982 1528.27 266.284 1541.41 341.021C1556.39 426.214 1541.75 528.509 1473.08 581.11C1407.03 631.709 1315.95 583.668 1232.99 577.273C1161.14 571.734 1084.81 590.134 1027.27 546.744C963.038 498.309 903.78 419.882 919.681 341.021C934.978 265.156 1043.92 261.297 1096.31 204.34C1153.9 141.739 1148.39 9.21087 1232.99 0.442271Z" fill="#20234F"/>
<path fill-rule="evenodd" clip-rule="evenodd" d="M985.861 455.617C1073.4 461.078 1145.07 519.488 1203.43 584.967C1257.85 646.036 1311.19 722.339 1295.04 802.531C1280.05 876.952 1187.56 897.099 1130.49 947.162C1080.42 991.087 1050.88 1059.31 985.861 1073.76C907.545 1091.18 816.231 1085.6 758.539 1029.85C700.355 973.626 708.458 883.378 705.183 802.531C701.693 716.363 685.103 623.06 739.346 556.016C797.361 484.31 893.804 449.874 985.861 455.617Z" fill="#20234F"/>
<path fill-rule="evenodd" clip-rule="evenodd" d="M233.167 578.617C131.276 568.142 41.6522 513.33 -21.6494 448.712C-85.8556 383.171 -124.657 304.075 -109.261 229.071C-94.1269 155.34 -33.895 88.2007 57.6216 62.5193C138.955 39.6953 226.16 94.5243 315.836 109.78C407.018 125.292 519.676 94.5478 579.468 151.295C639.448 208.221 586.837 282.796 567.207 348.35C550.078 405.551 531.078 461.205 475.115 499.783C408.682 545.577 328.559 588.424 233.167 578.617Z" fill="#20234F"/>
<path fill-rule="evenodd" clip-rule="evenodd" d="M87.0924 772.724C162.156 736.247 230.359 838.096 304.158 877.067C371.261 912.502 455.481 921.544 493.39 987.28C536.603 1062.21 557.838 1163.34 511.302 1236.26C466.538 1306.4 364.525 1292.4 284.38 1314.77C214.964 1334.14 149.535 1377.53 80.6225 1356.44C3.69709 1332.9 -78.8108 1279.47 -90.8405 1199.92C-102.413 1123.4 -1.36534 1082.52 28.3913 1011.07C61.0967 932.551 10.586 809.901 87.0924 772.724Z" fill="#20234F"/>
</svg>
